<svg width="15" height="14" viewBox="0 0 15 14" fill="none" xmlns="http://www.w3.org/2000/svg">
<g id="akar-icons:copy">
<g id="Group">
<path id="Vector" d="M5.16797 2.33769V9.33769C5.16797 9.64711 5.29089 9.94385 5.50968 10.1626C5.72847 10.3814 6.02522 10.5044 6.33464 10.5044H11.0013C11.3107 10.5044 11.6075 10.3814 11.8263 10.1626C12.0451 9.94385 12.168 9.64711 12.168 9.33769V4.22885C12.1679 4.07343 12.1369 3.91958 12.0766 3.77633C12.0163 3.63308 11.9279 3.50333 11.8168 3.39469L9.88305 1.50352C9.6651 1.2904 9.37239 1.17106 9.06755 1.17102H6.33464C6.02522 1.17102 5.72847 1.29394 5.50968 1.51273C5.29089 1.73152 5.16797 2.02827 5.16797 2.33769V2.33769Z" stroke="black" stroke-width="1.07692" stroke-linecap="round" stroke-linejoin="round"/>
<path id="Vector_2" d="M9.83594 10.503V11.6696C9.83594 11.9791 9.71302 12.2758 9.49423 12.4946C9.27544 12.7134 8.97869 12.8363 8.66927 12.8363H4.0026C3.69318 12.8363 3.39644 12.7134 3.17765 12.4946C2.95885 12.2758 2.83594 11.9791 2.83594 11.6696V5.25297C2.83594 4.94355 2.95885 4.6468 3.17765 4.42801C3.39644 4.20922 3.69318 4.0863 4.0026 4.0863H5.16927" stroke="black" stroke-width="1.07692" stroke-linecap="round" stroke-linejoin="round"/>
</g>
</g>
</svg>
