<svg width="21" height="20" viewBox="0 0 21 20" fill="none" xmlns="http://www.w3.org/2000/svg">
<g id="Group">
<path id="Vector" d="M7.95508 12.9888L13.9551 6.98877" stroke="#215D4F" stroke-width="2" stroke-linecap="round" stroke-linejoin="round"/>
<path id="Vector_2" d="M8.45508 7.98877C8.73122 7.98877 8.95508 7.76491 8.95508 7.48877C8.95508 7.21263 8.73122 6.98877 8.45508 6.98877C8.17894 6.98877 7.95508 7.21263 7.95508 7.48877C7.95508 7.76491 8.17894 7.98877 8.45508 7.98877Z" fill="#215D4F" stroke="#215D4F" stroke-width="2" stroke-linecap="round" stroke-linejoin="round"/>
<path id="Vector_3" d="M13.4551 12.9888C13.7312 12.9888 13.9551 12.7649 13.9551 12.4888C13.9551 12.2126 13.7312 11.9888 13.4551 11.9888C13.1789 11.9888 12.9551 12.2126 12.9551 12.4888C12.9551 12.7649 13.1789 12.9888 13.4551 12.9888Z" fill="#215D4F" stroke="#215D4F" stroke-width="2" stroke-linecap="round" stroke-linejoin="round"/>
<path id="Vector_4" d="M3.95554 5.18874C3.95554 4.60527 4.18732 4.04569 4.5999 3.63311C5.01248 3.22053 5.57206 2.98874 6.15554 2.98874H7.15554C7.73644 2.98841 8.29363 2.75834 8.70554 2.34874L9.40554 1.64874C9.60999 1.44314 9.85306 1.27998 10.1208 1.16865C10.3885 1.05731 10.6756 1 10.9655 1C11.2555 1 11.5426 1.05731 11.8103 1.16865C12.078 1.27998 12.3211 1.44314 12.5255 1.64874L13.2255 2.34874C13.6375 2.75834 14.1946 2.98841 14.7755 2.98874H15.7755C16.359 2.98874 16.9186 3.22053 17.3312 3.63311C17.7438 4.04569 17.9755 4.60527 17.9755 5.18874V6.18874C17.9759 6.76964 18.2059 7.32683 18.6155 7.73874L19.3155 8.43874C19.5211 8.64319 19.6843 8.88626 19.7956 9.15398C19.907 9.42171 19.9643 9.70879 19.9643 9.99874C19.9643 10.2887 19.907 10.5758 19.7956 10.8435C19.6843 11.1112 19.5211 11.3543 19.3155 11.5587L18.6155 12.2587C18.2059 12.6707 17.9759 13.2278 17.9755 13.8087V14.8087C17.9755 15.3922 17.7438 15.9518 17.3312 16.3644C16.9186 16.777 16.359 17.0087 15.7755 17.0087H14.7755C14.1946 17.0091 13.6375 17.2391 13.2255 17.6487L12.5255 18.3487C12.3211 18.5543 12.078 18.7175 11.8103 18.8288C11.5426 18.9402 11.2555 18.9975 10.9655 18.9975C10.6756 18.9975 10.3885 18.9402 10.1208 18.8288C9.85306 18.7175 9.60999 18.5543 9.40554 18.3487L8.70554 17.6487C8.29363 17.2391 7.73644 17.0091 7.15554 17.0087H6.15554C5.57206 17.0087 5.01248 16.777 4.5999 16.3644C4.18732 15.9518 3.95554 15.3922 3.95554 14.8087V13.8087C3.95521 13.2278 3.72514 12.6707 3.31554 12.2587L2.61554 11.5587C2.40994 11.3543 2.24678 11.1112 2.13545 10.8435C2.02411 10.5758 1.9668 10.2887 1.9668 9.99874C1.9668 9.70879 2.02411 9.42171 2.13545 9.15398C2.24678 8.88626 2.40994 8.64319 2.61554 8.43874L3.31554 7.73874C3.72514 7.32683 3.95521 6.76964 3.95554 6.18874V5.18874" stroke="#215D4F" stroke-width="2" stroke-linecap="round" stroke-linejoin="round"/>
</g>
</svg>
