<svg width="33" height="33" viewBox="0 0 33 33" fill="none" xmlns="http://www.w3.org/2000/svg">
<g id="bi:credit-card-2-front">
<g id="Group">
<path id="Vector" d="M26.8125 8.59375C27.2683 8.59375 27.7055 8.77483 28.0278 9.09716C28.3502 9.41949 28.5312 9.85666 28.5312 10.3125V24.0625C28.5312 24.5183 28.3502 24.9555 28.0278 25.2778C27.7055 25.6002 27.2683 25.7812 26.8125 25.7812H6.1875C5.73166 25.7812 5.29449 25.6002 4.97216 25.2778C4.64983 24.9555 4.46875 24.5183 4.46875 24.0625V10.3125C4.46875 9.85666 4.64983 9.41949 4.97216 9.09716C5.29449 8.77483 5.73166 8.59375 6.1875 8.59375H26.8125ZM6.1875 6.875C5.27582 6.875 4.40148 7.23716 3.75682 7.88182C3.11216 8.52648 2.75 9.40082 2.75 10.3125L2.75 24.0625C2.75 24.9742 3.11216 25.8485 3.75682 26.4932C4.40148 27.1378 5.27582 27.5 6.1875 27.5H26.8125C27.7242 27.5 28.5985 27.1378 29.2432 26.4932C29.8878 25.8485 30.25 24.9742 30.25 24.0625V10.3125C30.25 9.40082 29.8878 8.52648 29.2432 7.88182C28.5985 7.23716 27.7242 6.875 26.8125 6.875H6.1875Z" fill="#CB8461"/>
<path id="Vector_2" d="M6.1875 12.8906C6.1875 12.6627 6.27804 12.4441 6.43921 12.283C6.60037 12.1218 6.81895 12.0312 7.04688 12.0312H10.4844C10.7123 12.0312 10.9309 12.1218 11.092 12.283C11.2532 12.4441 11.3438 12.6627 11.3438 12.8906V14.6094C11.3438 14.8373 11.2532 15.0559 11.092 15.217C10.9309 15.3782 10.7123 15.4688 10.4844 15.4688H7.04688C6.81895 15.4688 6.60037 15.3782 6.43921 15.217C6.27804 15.0559 6.1875 14.8373 6.1875 14.6094V12.8906ZM6.1875 18.0469C6.1875 17.819 6.27804 17.6004 6.43921 17.4392C6.60037 17.278 6.81895 17.1875 7.04688 17.1875H15.6406C15.8685 17.1875 16.0871 17.278 16.2483 17.4392C16.4095 17.6004 16.5 17.819 16.5 18.0469C16.5 18.2748 16.4095 18.4934 16.2483 18.6545C16.0871 18.8157 15.8685 18.9062 15.6406 18.9062H7.04688C6.81895 18.9062 6.60037 18.8157 6.43921 18.6545C6.27804 18.4934 6.1875 18.2748 6.1875 18.0469ZM6.1875 21.4844C6.1875 21.2565 6.27804 21.0379 6.43921 20.8767C6.60037 20.7155 6.81895 20.625 7.04688 20.625H8.76562C8.99355 20.625 9.21213 20.7155 9.37329 20.8767C9.53446 21.0379 9.625 21.2565 9.625 21.4844C9.625 21.7123 9.53446 21.9309 9.37329 22.092C9.21213 22.2532 8.99355 22.3438 8.76562 22.3438H7.04688C6.81895 22.3438 6.60037 22.2532 6.43921 22.092C6.27804 21.9309 6.1875 21.7123 6.1875 21.4844ZM11.3438 21.4844C11.3438 21.2565 11.4343 21.0379 11.5955 20.8767C11.7566 20.7155 11.9752 20.625 12.2031 20.625H13.9219C14.1498 20.625 14.3684 20.7155 14.5295 20.8767C14.6907 21.0379 14.7812 21.2565 14.7812 21.4844C14.7812 21.7123 14.6907 21.9309 14.5295 22.092C14.3684 22.2532 14.1498 22.3438 13.9219 22.3438H12.2031C11.9752 22.3438 11.7566 22.2532 11.5955 22.092C11.4343 21.9309 11.3438 21.7123 11.3438 21.4844ZM16.5 21.4844C16.5 21.2565 16.5905 21.0379 16.7517 20.8767C16.9129 20.7155 17.1315 20.625 17.3594 20.625H19.0781C19.306 20.625 19.5246 20.7155 19.6858 20.8767C19.847 21.0379 19.9375 21.2565 19.9375 21.4844C19.9375 21.7123 19.847 21.9309 19.6858 22.092C19.5246 22.2532 19.306 22.3438 19.0781 22.3438H17.3594C17.1315 22.3438 16.9129 22.2532 16.7517 22.092C16.5905 21.9309 16.5 21.7123 16.5 21.4844ZM21.6562 21.4844C21.6562 21.2565 21.7468 21.0379 21.908 20.8767C22.0691 20.7155 22.2877 20.625 22.5156 20.625H24.2344C24.4623 20.625 24.6809 20.7155 24.842 20.8767C25.0032 21.0379 25.0938 21.2565 25.0938 21.4844C25.0938 21.7123 25.0032 21.9309 24.842 22.092C24.6809 22.2532 24.4623 22.3438 24.2344 22.3438H22.5156C22.2877 22.3438 22.0691 22.2532 21.908 22.092C21.7468 21.9309 21.6562 21.7123 21.6562 21.4844Z" fill="#CB8461"/>
</g>
</g>
</svg>
