<svg width="33" height="33" viewBox="0 0 33 33" fill="none" xmlns="http://www.w3.org/2000/svg">
<g id="fluent:wallet-16-regular">
<path id="Vector" d="M21.6562 16.5C21.3827 16.5 21.1204 16.6086 20.927 16.802C20.7336 16.9954 20.625 17.2577 20.625 17.5312C20.625 17.8048 20.7336 18.0671 20.927 18.2605C21.1204 18.4539 21.3827 18.5625 21.6562 18.5625H23.7188C23.9923 18.5625 24.2546 18.4539 24.448 18.2605C24.6414 18.0671 24.75 17.8048 24.75 17.5312C24.75 17.2577 24.6414 16.9954 24.448 16.802C24.2546 16.6086 23.9923 16.5 23.7188 16.5H21.6562ZM7.21875 4.125C6.39824 4.125 5.61133 4.45095 5.03114 5.03114C4.45095 5.61133 4.125 6.39824 4.125 7.21875V23.7188C4.125 25.0863 4.66825 26.3978 5.63523 27.3648C6.60222 28.3318 7.91373 28.875 9.28125 28.875H24.75C25.844 28.875 26.8932 28.4404 27.6668 27.6668C28.4404 26.8932 28.875 25.844 28.875 24.75V12.375C28.875 11.6509 28.6844 10.9396 28.3223 10.3126C27.9603 9.6855 27.4396 9.16479 26.8125 8.80275V8.25C26.8125 7.15598 26.3779 6.10677 25.6043 5.33318C24.8307 4.5596 23.7815 4.125 22.6875 4.125H7.21875ZM7.21875 6.1875H22.6875C23.2345 6.1875 23.7591 6.4048 24.1459 6.79159C24.5327 7.17839 24.75 7.70299 24.75 8.25H7.21875C6.94525 8.25 6.68294 8.14135 6.48955 7.94795C6.29615 7.75456 6.1875 7.49225 6.1875 7.21875C6.1875 6.94525 6.29615 6.68294 6.48955 6.48955C6.68294 6.29615 6.94525 6.1875 7.21875 6.1875ZM7.21875 10.3125H24.75C25.297 10.3125 25.8216 10.5298 26.2084 10.9166C26.5952 11.3034 26.8125 11.828 26.8125 12.375V24.75C26.8125 25.297 26.5952 25.8216 26.2084 26.2084C25.8216 26.5952 25.297 26.8125 24.75 26.8125H9.28125C8.46074 26.8125 7.67383 26.4866 7.09364 25.9064C6.51345 25.3262 6.1875 24.5393 6.1875 23.7188V10.1372C6.50925 10.2506 6.85781 10.3125 7.21875 10.3125Z" fill="#CB8461"/>
</g>
</svg>
