<svg width="22" height="20" viewBox="0 0 22 20" fill="none" xmlns="http://www.w3.org/2000/svg">
<path id="Vector" d="M13.585 0C14.652 0.0108521 15.521 0.553459 16.027 1.53015C16.1576 1.78789 16.3398 2.16432 16.5306 2.56142L16.7609 3.04159L16.874 3.27735L16.984 3.51609C17.028 3.59206 17.105 3.64632 17.204 3.64632C19.844 3.64632 22 5.77334 22 8.37785V14.824C22 17.4285 19.844 19.5556 17.204 19.5556H4.796C2.145 19.5556 0 17.4285 0 14.824V8.37785C0 5.77334 2.145 3.64632 4.796 3.64632C4.884 3.64632 4.972 3.60291 5.005 3.51609L5.071 3.38587C5.379 2.74559 5.753 1.96424 5.973 1.53015C6.479 0.553459 7.337 0.0108521 8.404 0H13.585ZM11 6.95622C9.845 6.95622 8.756 7.40116 7.931 8.21507C7.117 9.02898 6.666 10.0925 6.677 11.2211C6.677 12.3606 7.128 13.4241 7.942 14.238C8.767 15.0411 9.845 15.486 11 15.486C12.188 15.486 13.266 15.0085 14.047 14.238C14.828 13.4675 15.312 12.404 15.323 11.2211C15.323 10.0925 14.872 9.01813 14.058 8.20422C13.244 7.40116 12.155 6.95622 11 6.95622ZM11 8.58404C11.715 8.58404 12.386 8.85535 12.892 9.35454C13.398 9.85374 13.673 10.5157 13.673 11.2211C13.662 12.6753 12.474 13.8582 11 13.8582C10.285 13.8582 9.614 13.5869 9.108 13.0877C8.602 12.5885 8.327 11.9265 8.327 11.2211V11.2103C8.316 10.5266 8.591 9.8646 9.097 9.3654C9.614 8.85535 10.285 8.58404 11 8.58404ZM17.171 6.69577C16.621 6.69577 16.181 7.14071 16.181 7.68332C16.181 8.22592 16.621 8.66001 17.171 8.66001C17.721 8.66001 18.172 8.22592 18.172 7.68332C18.172 7.14071 17.721 6.69577 17.171 6.69577Z" fill="white"/>
</svg>
