<svg width="21" height="22" viewBox="0 0 21 22" fill="none" xmlns="http://www.w3.org/2000/svg">
<path id="Vector" d="M2 21.2625C1.45 21.2625 0.979002 21.0668 0.587002 20.6755C0.195002 20.2842 -0.000664969 19.8132 1.69779e-06 19.2625V5.26249C1.69779e-06 4.71249 0.196002 4.24149 0.588002 3.84949C0.980002 3.45749 1.45067 3.26182 2 3.26249H10.925L8.925 5.26249H2V19.2625H16V12.3125L18 10.3125V19.2625C18 19.8125 17.804 20.2835 17.412 20.6755C17.02 21.0675 16.5493 21.2632 16 21.2625H2ZM13.175 3.83749L14.6 5.23749L8 11.8375V13.2625H9.4L16.025 6.63749L17.45 8.03749L10.825 14.6625C10.6417 14.8458 10.429 14.9918 10.187 15.1005C9.945 15.2092 9.691 15.2632 9.425 15.2625H7C6.71667 15.2625 6.479 15.1665 6.287 14.9745C6.095 14.7825 5.99934 14.5452 6 14.2625V11.8375C6 11.5708 6.05 11.3165 6.15 11.0745C6.25 10.8325 6.39167 10.6202 6.575 10.4375L13.175 3.83749ZM17.45 8.03749L13.175 3.83749L15.675 1.33749C16.075 0.937488 16.5543 0.737488 17.113 0.737488C17.6717 0.737488 18.1423 0.937488 18.525 1.33749L19.925 2.76249C20.3083 3.14582 20.5 3.61249 20.5 4.16249C20.5 4.71249 20.3083 5.17915 19.925 5.56249L17.45 8.03749Z" fill="#215D4F"/>
</svg>
