<svg width="1304" height="1459" viewBox="0 0 1304 1459" fill="none" xmlns="http://www.w3.org/2000/svg">
<path d="M0 158.572C0 149.171 6.54671 141.04 15.7305 139.033L647.717 0.935814C650.539 0.319252 653.461 0.321139 656.281 0.941332L1284.29 139.017C1293.47 141.034 1300 149.16 1300 158.551V1313.31C1300 1322.85 1293.26 1331.06 1283.9 1332.93L654.401 1458.22C651.826 1458.74 649.174 1458.74 646.599 1458.22L16.1015 1332.92C6.74175 1331.06 0 1322.85 0 1313.31V158.572Z" fill="#215D4F"/>
<g opacity="0.4">
<mask id="mask0_0_1" style="mask-type:luminance" maskUnits="userSpaceOnUse" x="1128" y="1037" width="162" height="163">
<path d="M1128.71 1054.95L1272.22 1037.48L1289.82 1182.09L1146.31 1199.56L1128.71 1054.95Z" fill="white"/>
</mask>
<g mask="url(#mask0_0_1)">
<path d="M1130.92 1058.24C1130.27 1057.73 1130.16 1056.81 1130.67 1056.17C1131.17 1055.52 1132.09 1055.41 1132.74 1055.91L1288.69 1178.02C1289.34 1178.52 1289.45 1179.45 1288.95 1180.09C1288.44 1180.73 1287.52 1180.85 1286.87 1180.34L1130.92 1058.24Z" fill="white"/>
</g>
</g>
<path opacity="0.4" d="M1233.05 1104.65C1232.95 1103.84 1233.54 1103.1 1234.36 1103C1235.18 1102.9 1235.93 1103.48 1236.03 1104.29L1240.5 1141.05C1240.6 1141.87 1240.01 1142.61 1239.19 1142.71C1238.37 1142.81 1237.62 1142.23 1237.53 1141.42L1233.05 1104.65Z" fill="white"/>
<path opacity="0.4" d="M1120.03 1016.71C1119.39 1016.21 1119.27 1015.27 1119.77 1014.63C1120.28 1013.99 1121.21 1013.88 1121.85 1014.38L1235.48 1103.34C1236.12 1103.84 1236.23 1104.78 1235.73 1105.42C1235.23 1106.06 1234.29 1106.18 1233.65 1105.67L1120.03 1016.71Z" fill="white"/>
<g opacity="0.4">
<mask id="mask1_0_1" style="mask-type:luminance" maskUnits="userSpaceOnUse" x="1212" y="1151" width="84" height="84">
<path d="M1212.69 1160.35L1286.09 1151.41L1295.16 1225.91L1221.76 1234.84L1212.69 1160.35Z" fill="white"/>
</mask>
<g mask="url(#mask1_0_1)">
<path d="M1215.4 1163.95C1214.76 1163.45 1214.65 1162.51 1215.15 1161.87C1215.65 1161.23 1216.58 1161.12 1217.22 1161.62L1294.01 1221.74C1294.65 1222.24 1294.76 1223.17 1294.26 1223.82C1293.76 1224.45 1292.82 1224.56 1292.18 1224.07L1215.4 1163.95Z" fill="white"/>
</g>
</g>
<g opacity="0.4">
<mask id="mask2_0_1" style="mask-type:luminance" maskUnits="userSpaceOnUse" x="1147" y="1116" width="152" height="153">
<path d="M1147.08 1132.76L1281.82 1116.36L1298.36 1252.2L1163.61 1268.6L1147.08 1132.76Z" fill="white"/>
</mask>
<g mask="url(#mask2_0_1)">
<path d="M1149.02 1137.15C1148.38 1136.64 1148.26 1135.72 1148.77 1135.07C1149.26 1134.43 1150.2 1134.32 1150.84 1134.82L1297.46 1249.62C1298.11 1250.13 1298.22 1251.05 1297.72 1251.69C1297.21 1252.34 1296.28 1252.45 1295.64 1251.95L1149.02 1137.15Z" fill="white"/>
</g>
</g>
<path opacity="0.4" d="M1178.13 1133.5C1178.04 1132.69 1178.62 1131.95 1179.44 1131.85C1180.27 1131.75 1181.01 1132.33 1181.11 1133.14L1184.62 1161.95C1184.72 1162.77 1184.14 1163.51 1183.31 1163.61C1182.48 1163.71 1181.74 1163.13 1181.64 1162.31L1178.13 1133.5Z" fill="white"/>
<path opacity="0.4" d="M1094.06 1068.23C1093.42 1067.72 1093.31 1066.79 1093.81 1066.15C1094.31 1065.5 1095.24 1065.39 1095.88 1065.9L1180.56 1132.19C1181.2 1132.7 1181.32 1133.62 1180.81 1134.27C1180.31 1134.91 1179.38 1135.02 1178.74 1134.52L1094.06 1068.23Z" fill="white"/>
<path opacity="0.4" d="M1162.35 1103.15C1162.25 1102.35 1162.84 1101.63 1163.66 1101.53C1164.49 1101.43 1165.23 1101.99 1165.33 1102.78L1167.76 1122.74C1167.85 1123.54 1167.26 1124.26 1166.44 1124.36C1165.62 1124.46 1164.88 1123.9 1164.78 1123.1L1162.35 1103.15Z" fill="white"/>
<path opacity="0.4" d="M1140.52 1085.78C1139.89 1085.27 1139.77 1084.32 1140.26 1083.67C1140.75 1083.02 1141.66 1082.91 1142.29 1083.42L1164.79 1101.83C1165.42 1102.35 1165.53 1103.29 1165.04 1103.94C1164.56 1104.59 1163.65 1104.7 1163.02 1104.19L1140.52 1085.78Z" fill="white"/>
<g opacity="0.4">
<mask id="mask3_0_1" style="mask-type:luminance" maskUnits="userSpaceOnUse" x="1122" y="1114" width="180" height="180">
<path d="M1122.71 1133.5L1281.56 1114.17L1301.03 1274.11L1142.18 1293.44L1122.71 1133.5Z" fill="white"/>
</mask>
<g mask="url(#mask3_0_1)">
<path d="M1125.31 1137.17C1124.68 1136.67 1124.56 1135.74 1125.06 1135.1C1125.56 1134.46 1126.5 1134.35 1127.14 1134.85L1299.91 1270.12C1300.54 1270.61 1300.65 1271.55 1300.16 1272.19C1299.65 1272.83 1298.72 1272.94 1298.08 1272.44L1125.31 1137.17Z" fill="white"/>
</g>
</g>
<g opacity="0.4">
<mask id="mask4_0_1" style="mask-type:luminance" maskUnits="userSpaceOnUse" x="1161" y="1166" width="143" height="144">
<path d="M1161.98 1182.09L1287.96 1166.75L1303.43 1293.83L1177.45 1309.16L1161.98 1182.09Z" fill="white"/>
</mask>
<g mask="url(#mask4_0_1)">
<path d="M1164.43 1186.37C1163.78 1185.87 1163.67 1184.95 1164.17 1184.3C1164.68 1183.66 1165.6 1183.55 1166.24 1184.05L1302.42 1290.67C1303.07 1291.18 1303.18 1292.11 1302.68 1292.75C1302.18 1293.39 1301.25 1293.51 1300.61 1293L1164.43 1186.37Z" fill="white"/>
</g>
</g>
<g opacity="0.4">
<mask id="mask5_0_1" style="mask-type:luminance" maskUnits="userSpaceOnUse" x="1081" y="1122" width="210" height="210">
<path d="M1081.88 1145.14L1268.12 1122.47L1290.75 1308.43L1104.52 1331.1L1081.88 1145.14Z" fill="white"/>
</mask>
<g mask="url(#mask5_0_1)">
<path d="M1083.59 1147.97C1082.95 1147.46 1082.84 1146.54 1083.34 1145.9C1083.84 1145.25 1084.78 1145.14 1085.42 1145.64L1289.97 1305.8C1290.62 1306.3 1290.73 1307.23 1290.22 1307.87C1289.72 1308.51 1288.79 1308.63 1288.14 1308.12L1083.59 1147.97Z" fill="white"/>
</g>
</g>
<path opacity="0.4" d="M1179.43 1247.7C1178.62 1247.8 1177.9 1247.44 1177.83 1246.89C1177.77 1246.33 1178.38 1245.81 1179.18 1245.71L1208 1242.21C1208.82 1242.11 1209.53 1242.47 1209.6 1243.02C1209.67 1243.57 1209.06 1244.09 1208.24 1244.19L1179.43 1247.7Z" fill="white"/>
<path opacity="0.4" d="M1149.49 1225.6C1148.85 1225.11 1148.74 1224.21 1149.24 1223.59C1149.75 1222.96 1150.69 1222.85 1151.33 1223.34L1180.21 1245.14C1180.85 1245.63 1180.96 1246.53 1180.45 1247.15C1179.94 1247.78 1179.02 1247.89 1178.37 1247.4L1149.49 1225.6Z" fill="white"/>
<path opacity="0.4" d="M1085.79 1206.71C1084.98 1206.81 1084.24 1206.23 1084.13 1205.4C1084.03 1204.59 1084.61 1203.83 1085.42 1203.74L1148.99 1196C1149.8 1195.9 1150.54 1196.49 1150.64 1197.31C1150.74 1198.13 1150.16 1198.88 1149.35 1198.98L1085.79 1206.71Z" fill="white"/>
<path opacity="0.4" d="M1044.91 1152.76C1044.28 1152.26 1044.16 1151.34 1044.66 1150.7C1045.16 1150.06 1046.08 1149.95 1046.72 1150.45L1111.38 1201.08C1112.02 1201.58 1112.13 1202.5 1111.63 1203.13C1111.13 1203.77 1110.21 1203.88 1109.57 1203.38L1044.91 1152.76Z" fill="white"/>
<path opacity="0.4" d="M1094.89 1136.56C1094.8 1135.76 1095.39 1135.03 1096.21 1134.93C1097.03 1134.83 1097.77 1135.4 1097.87 1136.2L1100.54 1158.12C1100.64 1158.92 1100.05 1159.65 1099.23 1159.75C1098.41 1159.85 1097.66 1159.29 1097.56 1158.48L1094.89 1136.56Z" fill="white"/>
<path opacity="0.4" d="M1030.86 1086.98C1030.22 1086.48 1030.11 1085.56 1030.61 1084.92C1031.11 1084.28 1032.04 1084.17 1032.68 1084.67L1097.33 1135.29C1097.97 1135.79 1098.08 1136.71 1097.58 1137.35C1097.08 1137.99 1096.15 1138.1 1095.51 1137.6L1030.86 1086.98Z" fill="white"/>
<path opacity="0.4" d="M1052.39 1181.07C1051.75 1180.57 1051.64 1179.65 1052.14 1179.01C1052.64 1178.37 1053.56 1178.26 1054.2 1178.76L1086.56 1204.1C1087.2 1204.6 1087.31 1205.52 1086.81 1206.16C1086.31 1206.79 1085.39 1206.91 1084.75 1206.41L1052.39 1181.07Z" fill="white"/>
<g opacity="0.4">
<mask id="mask6_0_1" style="mask-type:luminance" maskUnits="userSpaceOnUse" x="1105" y="1216" width="114" height="114">
<path d="M1105.43 1228.99L1206.22 1216.72L1218.45 1317.23L1117.67 1329.5L1105.43 1228.99Z" fill="white"/>
</mask>
<g mask="url(#mask6_0_1)">
<path d="M1106.32 1231.48C1105.68 1230.98 1105.57 1230.05 1106.07 1229.41C1106.58 1228.76 1107.51 1228.65 1108.15 1229.15L1217.34 1314.65C1217.98 1315.14 1218.09 1316.08 1217.59 1316.72C1217.09 1317.36 1216.16 1317.48 1215.52 1316.97L1106.32 1231.48Z" fill="white"/>
</g>
</g>
<path opacity="0.4" d="M1063.36 1237.65C1062.55 1237.75 1061.81 1237.16 1061.71 1236.34C1061.61 1235.52 1062.18 1234.77 1062.99 1234.67L1106.73 1229.35C1107.53 1229.25 1108.26 1229.84 1108.36 1230.66C1108.46 1231.48 1107.89 1232.23 1107.09 1232.33L1063.36 1237.65Z" fill="white"/>
<path opacity="0.4" d="M960.806 1156.96C960.167 1156.46 960.055 1155.54 960.555 1154.9C961.056 1154.26 961.983 1154.15 962.622 1154.65L1064.02 1234.04C1064.66 1234.54 1064.77 1235.46 1064.27 1236.1C1063.77 1236.74 1062.84 1236.85 1062.2 1236.35L960.806 1156.96Z" fill="white"/>
<path opacity="0.4" d="M1029.04 1174.83C1028.94 1174.01 1029.52 1173.27 1030.34 1173.17C1031.16 1173.07 1031.91 1173.64 1032.01 1174.47L1036.85 1214.19C1036.95 1215 1036.36 1215.75 1035.54 1215.85C1034.72 1215.95 1033.97 1215.37 1033.87 1214.55L1029.04 1174.83Z" fill="white"/>
<path opacity="0.4" d="M997.293 1150.5C996.653 1150 996.541 1149.08 997.042 1148.44C997.542 1147.8 998.47 1147.69 999.1 1148.19L1031.46 1173.53C1032.1 1174.03 1032.22 1174.95 1031.72 1175.59C1031.22 1176.23 1030.3 1176.34 1029.66 1175.84L997.293 1150.5Z" fill="white"/>
<g opacity="0.4">
<mask id="mask7_0_1" style="mask-type:luminance" maskUnits="userSpaceOnUse" x="1135" y="1272" width="55" height="55">
<path d="M1135.93 1278.64L1184.13 1272.77L1189.97 1320.7L1141.76 1326.57L1135.93 1278.64Z" fill="white"/>
</mask>
<g mask="url(#mask7_0_1)">
<path d="M1138.93 1282.49C1138.28 1281.98 1138.17 1281.05 1138.67 1280.41C1139.18 1279.76 1140.11 1279.65 1140.75 1280.15L1189.2 1318.09C1189.84 1318.6 1189.95 1319.53 1189.45 1320.16C1188.95 1320.81 1188.02 1320.92 1187.38 1320.42L1138.93 1282.49Z" fill="white"/>
</g>
</g>
<path opacity="0.4" d="M1113.58 1285.94C1112.76 1286.04 1112.01 1285.45 1111.91 1284.63C1111.81 1283.81 1112.4 1283.06 1113.22 1282.96L1140.01 1279.7C1140.84 1279.6 1141.59 1280.18 1141.69 1281.01C1141.79 1281.82 1141.2 1282.57 1140.38 1282.67L1113.58 1285.94Z" fill="white"/>
<path opacity="0.4" d="M1072.37 1254.19C1071.73 1253.69 1071.62 1252.76 1072.12 1252.13C1072.62 1251.49 1073.55 1251.38 1074.19 1251.88L1114.34 1283.31C1114.98 1283.81 1115.09 1284.74 1114.59 1285.38C1114.1 1286.02 1113.17 1286.13 1112.53 1285.63L1072.37 1254.19Z" fill="white"/>
<path opacity="0.4" d="M1074.72 1247.81C1075.25 1248.23 1075.67 1248.72 1076 1249.29C1076.32 1249.87 1076.53 1250.49 1076.61 1251.15C1076.69 1251.81 1076.64 1252.46 1076.46 1253.1C1076.28 1253.74 1075.99 1254.31 1075.58 1254.84C1075.17 1255.36 1074.68 1255.78 1074.1 1256.11C1073.52 1256.43 1072.9 1256.64 1072.24 1256.72C1071.59 1256.8 1070.94 1256.75 1070.3 1256.57C1069.66 1256.4 1069.08 1256.1 1068.56 1255.69C1068.04 1255.28 1067.61 1254.79 1067.29 1254.21C1066.96 1253.63 1066.76 1253.01 1066.68 1252.36C1066.6 1251.7 1066.64 1251.05 1066.83 1250.41C1067 1249.77 1067.3 1249.2 1067.7 1248.67C1068.11 1248.15 1068.61 1247.72 1069.19 1247.4C1069.76 1247.08 1070.38 1246.87 1071.04 1246.79C1071.7 1246.71 1072.35 1246.76 1072.99 1246.94C1073.63 1247.11 1074.2 1247.41 1074.72 1247.81Z" fill="white"/>
<path opacity="0.4" d="M1055.74 1174.58C1056.26 1174.99 1056.69 1175.48 1057.01 1176.06C1057.34 1176.63 1057.54 1177.25 1057.62 1177.91C1057.7 1178.57 1057.65 1179.21 1057.47 1179.85C1057.3 1180.49 1057 1181.08 1056.59 1181.6C1056.19 1182.12 1055.69 1182.54 1055.11 1182.87C1054.53 1183.2 1053.92 1183.39 1053.26 1183.47C1052.6 1183.55 1051.95 1183.51 1051.32 1183.33C1050.68 1183.15 1050.1 1182.86 1049.58 1182.45C1049.06 1182.04 1048.63 1181.55 1048.3 1180.97C1047.98 1180.39 1047.77 1179.78 1047.69 1179.12C1047.61 1178.46 1047.66 1177.81 1047.84 1177.18C1048.02 1176.54 1048.32 1175.95 1048.72 1175.43C1049.13 1174.91 1049.63 1174.49 1050.2 1174.16C1050.77 1173.83 1051.39 1173.63 1052.05 1173.55C1052.71 1173.47 1053.36 1173.52 1054 1173.7C1054.64 1173.88 1055.22 1174.17 1055.74 1174.58Z" fill="white"/>
<path opacity="0.4" d="M1151.84 1219.29C1152.37 1219.7 1152.78 1220.2 1153.12 1220.77C1153.44 1221.35 1153.64 1221.96 1153.72 1222.62C1153.81 1223.29 1153.75 1223.93 1153.58 1224.57C1153.39 1225.21 1153.11 1225.79 1152.69 1226.31C1152.29 1226.83 1151.8 1227.26 1151.22 1227.58C1150.64 1227.91 1150.02 1228.11 1149.36 1228.19C1148.71 1228.27 1148.06 1228.23 1147.42 1228.04C1146.78 1227.87 1146.19 1227.57 1145.68 1227.17C1145.16 1226.76 1144.73 1226.26 1144.41 1225.68C1144.07 1225.11 1143.88 1224.49 1143.8 1223.83C1143.72 1223.17 1143.76 1222.52 1143.94 1221.88C1144.12 1221.25 1144.41 1220.67 1144.82 1220.15C1145.23 1219.63 1145.72 1219.2 1146.3 1218.87C1146.88 1218.55 1147.5 1218.34 1148.15 1218.26C1148.81 1218.18 1149.46 1218.23 1150.1 1218.41C1150.74 1218.59 1151.32 1218.89 1151.84 1219.29Z" fill="white"/>
<path opacity="0.4" d="M963.154 1150.59C963.682 1151 964.099 1151.49 964.431 1152.07C964.753 1152.64 964.959 1153.26 965.039 1153.92C965.12 1154.58 965.067 1155.23 964.893 1155.86C964.709 1156.51 964.423 1157.09 964.008 1157.61C963.601 1158.13 963.113 1158.55 962.534 1158.88C961.956 1159.21 961.336 1159.41 960.675 1159.49C960.023 1159.57 959.374 1159.52 958.733 1159.34C958.094 1159.17 957.509 1158.87 956.99 1158.46C956.47 1158.06 956.044 1157.56 955.721 1156.98C955.389 1156.4 955.193 1155.79 955.113 1155.13C955.032 1154.47 955.075 1153.82 955.259 1153.19C955.434 1152.55 955.728 1151.97 956.135 1151.45C956.542 1150.93 957.039 1150.5 957.617 1150.17C958.196 1149.85 958.815 1149.64 959.467 1149.56C960.128 1149.48 960.778 1149.53 961.418 1149.71C962.058 1149.89 962.634 1150.18 963.154 1150.59Z" fill="white"/>
<path opacity="0.4" d="M1000.63 1144.01C1001.15 1144.42 1001.58 1144.91 1001.9 1145.49C1002.23 1146.07 1002.44 1146.69 1002.52 1147.35C1002.6 1148 1002.55 1148.65 1002.36 1149.29C1002.19 1149.93 1001.89 1150.5 1001.49 1151.03C1001.08 1151.55 1000.58 1151.98 1000.01 1152.3C999.436 1152.62 998.816 1152.83 998.156 1152.91C997.495 1152.99 996.853 1152.94 996.214 1152.76C995.574 1152.59 994.99 1152.29 994.47 1151.89C993.949 1151.47 993.524 1150.98 993.201 1150.4C992.87 1149.83 992.672 1149.21 992.593 1148.55C992.513 1147.89 992.555 1147.24 992.739 1146.6C992.913 1145.96 993.209 1145.39 993.616 1144.87C994.022 1144.34 994.518 1143.91 995.097 1143.59C995.676 1143.27 996.287 1143.06 996.947 1142.98C997.608 1142.9 998.259 1142.95 998.889 1143.13C999.529 1143.3 1000.11 1143.6 1000.63 1144.01Z" fill="white"/>
<path opacity="0.4" d="M1047.27 1146.4C1047.79 1146.8 1048.22 1147.3 1048.54 1147.88C1048.86 1148.45 1049.07 1149.07 1049.15 1149.73C1049.23 1150.39 1049.18 1151.03 1049 1151.67C1048.83 1152.31 1048.53 1152.89 1048.13 1153.41C1047.71 1153.93 1047.22 1154.36 1046.64 1154.68C1046.07 1155.01 1045.45 1155.21 1044.79 1155.29C1044.13 1155.37 1043.48 1155.33 1042.84 1155.15C1042.2 1154.97 1041.63 1154.67 1041.11 1154.27C1040.58 1153.86 1040.15 1153.37 1039.83 1152.79C1039.51 1152.21 1039.3 1151.6 1039.22 1150.94C1039.14 1150.28 1039.19 1149.63 1039.37 1148.99C1039.54 1148.35 1039.84 1147.77 1040.25 1147.25C1040.66 1146.73 1041.15 1146.3 1041.73 1145.97C1042.3 1145.65 1042.92 1145.44 1043.58 1145.36C1044.24 1145.28 1044.89 1145.34 1045.53 1145.51C1046.17 1145.69 1046.74 1145.99 1047.27 1146.4Z" fill="white"/>
<path opacity="0.4" d="M1085.98 1141.68C1086.51 1142.09 1086.92 1142.59 1087.25 1143.16C1087.58 1143.74 1087.78 1144.35 1087.86 1145.02C1087.94 1145.67 1087.89 1146.32 1087.72 1146.96C1087.53 1147.6 1087.25 1148.18 1086.83 1148.7C1086.43 1149.22 1085.94 1149.65 1085.36 1149.97C1084.78 1150.3 1084.16 1150.5 1083.5 1150.58C1082.85 1150.66 1082.2 1150.62 1081.56 1150.43C1080.92 1150.26 1080.34 1149.96 1079.81 1149.56C1079.29 1149.15 1078.87 1148.65 1078.55 1148.07C1078.22 1147.49 1078.02 1146.88 1077.94 1146.22C1077.86 1145.56 1077.91 1144.91 1078.08 1144.27C1078.26 1143.64 1078.55 1143.06 1078.96 1142.54C1079.37 1142.01 1079.86 1141.59 1080.44 1141.26C1081.02 1140.94 1081.64 1140.73 1082.29 1140.65C1082.95 1140.57 1083.6 1140.62 1084.24 1140.8C1084.88 1140.98 1085.46 1141.27 1085.98 1141.68Z" fill="white"/>
<path opacity="0.4" d="M1033.21 1080.6C1033.74 1081.02 1034.15 1081.51 1034.49 1082.09C1034.81 1082.66 1035.02 1083.28 1035.09 1083.94C1035.18 1084.6 1035.12 1085.25 1034.95 1085.89C1034.77 1086.53 1034.48 1087.1 1034.06 1087.62C1033.66 1088.15 1033.17 1088.57 1032.59 1088.9C1032.01 1089.22 1031.39 1089.43 1030.73 1089.51C1030.08 1089.59 1029.43 1089.54 1028.79 1089.36C1028.15 1089.18 1027.57 1088.89 1027.05 1088.48C1026.53 1088.07 1026.1 1087.58 1025.78 1087C1025.45 1086.42 1025.25 1085.8 1025.17 1085.14C1025.09 1084.49 1025.14 1083.84 1025.31 1083.2C1025.49 1082.56 1025.79 1081.99 1026.19 1081.46C1026.61 1080.94 1027.09 1080.51 1027.67 1080.19C1028.25 1079.87 1028.87 1079.66 1029.52 1079.58C1030.18 1079.5 1030.83 1079.55 1031.47 1079.73C1032.11 1079.9 1032.69 1080.2 1033.21 1080.6Z" fill="white"/>
<path opacity="0.4" d="M1167.23 1180.15C1167.75 1180.55 1168.18 1181.05 1168.5 1181.62C1168.82 1182.2 1169.03 1182.82 1169.11 1183.48C1169.19 1184.14 1169.14 1184.78 1168.96 1185.42C1168.79 1186.06 1168.49 1186.65 1168.08 1187.17C1167.67 1187.69 1167.18 1188.11 1166.6 1188.43C1166.02 1188.77 1165.4 1188.96 1164.75 1189.04C1164.09 1189.12 1163.44 1189.08 1162.8 1188.9C1162.16 1188.72 1161.59 1188.43 1161.07 1188.02C1160.54 1187.61 1160.11 1187.12 1159.79 1186.54C1159.47 1185.96 1159.26 1185.35 1159.18 1184.69C1159.1 1184.03 1159.15 1183.38 1159.33 1182.74C1159.5 1182.11 1159.8 1181.52 1160.21 1181C1160.62 1180.48 1161.11 1180.06 1161.69 1179.72C1162.26 1179.4 1162.88 1179.2 1163.54 1179.12C1164.2 1179.04 1164.85 1179.09 1165.49 1179.26C1166.13 1179.45 1166.7 1179.74 1167.23 1180.15Z" fill="white"/>
<path opacity="0.4" d="M1128.07 1131.52C1128.59 1131.93 1129.01 1132.42 1129.33 1133C1129.66 1133.58 1129.86 1134.19 1129.94 1134.86C1130.02 1135.51 1129.97 1136.16 1129.8 1136.8C1129.62 1137.44 1129.33 1138.01 1128.92 1138.54C1128.51 1139.06 1128.02 1139.49 1127.44 1139.81C1126.86 1140.13 1126.24 1140.34 1125.59 1140.42C1124.93 1140.5 1124.28 1140.45 1123.64 1140.27C1123 1140.1 1122.42 1139.8 1121.89 1139.4C1121.37 1138.98 1120.95 1138.49 1120.63 1137.91C1120.3 1137.34 1120.1 1136.72 1120.02 1136.06C1119.94 1135.4 1119.99 1134.75 1120.16 1134.11C1120.34 1133.47 1120.63 1132.9 1121.04 1132.38C1121.45 1131.85 1121.94 1131.43 1122.52 1131.1C1123.1 1130.78 1123.72 1130.57 1124.38 1130.49C1125.03 1130.41 1125.68 1130.46 1126.32 1130.64C1126.96 1130.82 1127.54 1131.11 1128.07 1131.52Z" fill="white"/>
<path opacity="0.4" d="M1152.24 1131.46C1152.75 1131.82 1153.17 1132.26 1153.48 1132.77C1153.8 1133.29 1154 1133.84 1154.07 1134.44C1154.14 1135.03 1154.08 1135.61 1153.9 1136.19C1153.72 1136.77 1153.42 1137.3 1153.01 1137.77C1152.58 1138.25 1152.09 1138.63 1151.51 1138.93C1150.93 1139.24 1150.31 1139.42 1149.65 1139.5C1148.99 1139.58 1148.35 1139.55 1147.71 1139.4C1147.07 1139.25 1146.5 1138.99 1145.98 1138.63C1145.46 1138.27 1145.04 1137.82 1144.73 1137.31C1144.41 1136.79 1144.22 1136.24 1144.14 1135.65C1144.07 1135.05 1144.13 1134.46 1144.31 1133.89C1144.5 1133.31 1144.8 1132.78 1145.21 1132.31C1145.63 1131.84 1146.12 1131.45 1146.7 1131.14C1147.29 1130.84 1147.91 1130.65 1148.57 1130.57C1149.22 1130.49 1149.87 1130.53 1150.5 1130.68C1151.14 1130.84 1151.71 1131.1 1152.24 1131.46Z" fill="white"/>
<path opacity="0.4" d="M1142.86 1079.34C1143.39 1079.75 1143.82 1080.25 1144.14 1080.83C1144.46 1081.4 1144.67 1082.02 1144.75 1082.68C1144.83 1083.34 1144.78 1083.99 1144.6 1084.63C1144.43 1085.26 1144.13 1085.84 1143.72 1086.36C1143.31 1086.88 1142.82 1087.31 1142.24 1087.64C1141.66 1087.96 1141.04 1088.17 1140.38 1088.25C1139.73 1088.33 1139.08 1088.28 1138.44 1088.1C1137.8 1087.92 1137.23 1087.62 1136.7 1087.22C1136.18 1086.81 1135.75 1086.31 1135.43 1085.74C1135.11 1085.16 1134.9 1084.54 1134.82 1083.88C1134.74 1083.22 1134.79 1082.58 1134.97 1081.94C1135.14 1081.3 1135.44 1080.72 1135.84 1080.2C1136.26 1079.68 1136.75 1079.25 1137.33 1078.93C1137.9 1078.6 1138.52 1078.4 1139.18 1078.32C1139.84 1078.24 1140.49 1078.28 1141.13 1078.47C1141.77 1078.64 1142.34 1078.94 1142.86 1079.34Z" fill="white"/>
<path opacity="0.4" d="M1096.41 1061.83C1096.93 1062.24 1097.36 1062.73 1097.68 1063.31C1098.01 1063.89 1098.21 1064.5 1098.29 1065.16C1098.37 1065.82 1098.33 1066.47 1098.14 1067.11C1097.97 1067.74 1097.67 1068.33 1097.27 1068.85C1096.86 1069.38 1096.36 1069.79 1095.79 1070.12C1095.21 1070.45 1094.6 1070.65 1093.94 1070.73C1093.28 1070.81 1092.62 1070.76 1091.99 1070.59C1091.35 1070.4 1090.77 1070.12 1090.25 1069.7C1089.73 1069.29 1089.3 1068.8 1088.98 1068.23C1088.65 1067.65 1088.44 1067.03 1088.36 1066.37C1088.28 1065.71 1088.34 1065.07 1088.52 1064.43C1088.69 1063.79 1088.99 1063.2 1089.39 1062.68C1089.8 1062.16 1090.3 1061.74 1090.88 1061.41C1091.45 1061.08 1092.07 1060.89 1092.73 1060.81C1093.39 1060.73 1094.03 1060.77 1094.67 1060.95C1095.31 1061.13 1095.89 1061.42 1096.41 1061.83Z" fill="white"/>
<path opacity="0.4" d="M1133.53 1052.28C1134.05 1052.69 1134.48 1053.18 1134.8 1053.76C1135.13 1054.33 1135.33 1054.95 1135.41 1055.61C1135.49 1056.27 1135.44 1056.92 1135.26 1057.56C1135.09 1058.2 1134.79 1058.77 1134.39 1059.3C1133.98 1059.82 1133.48 1060.25 1132.9 1060.57C1132.32 1060.89 1131.71 1061.1 1131.05 1061.18C1130.39 1061.26 1129.74 1061.21 1129.1 1061.03C1128.47 1060.86 1127.89 1060.56 1127.37 1060.15C1126.85 1059.74 1126.42 1059.25 1126.09 1058.67C1125.77 1058.09 1125.56 1057.48 1125.48 1056.82C1125.4 1056.16 1125.45 1055.51 1125.63 1054.87C1125.81 1054.23 1126.11 1053.66 1126.51 1053.14C1126.92 1052.61 1127.42 1052.19 1127.99 1051.86C1128.56 1051.54 1129.18 1051.33 1129.84 1051.25C1130.51 1051.17 1131.15 1051.22 1131.79 1051.4C1132.43 1051.58 1133.01 1051.87 1133.53 1052.28Z" fill="white"/>
<path opacity="0.4" d="M1217.9 1157.85C1218.43 1158.26 1218.85 1158.75 1219.18 1159.33C1219.5 1159.91 1219.7 1160.52 1219.78 1161.18C1219.86 1161.84 1219.81 1162.49 1219.64 1163.13C1219.46 1163.76 1219.17 1164.35 1218.75 1164.87C1218.35 1165.39 1217.86 1165.81 1217.28 1166.15C1216.7 1166.47 1216.08 1166.68 1215.42 1166.76C1214.77 1166.84 1214.12 1166.78 1213.48 1166.61C1212.84 1166.43 1212.26 1166.13 1211.73 1165.72C1211.22 1165.32 1210.79 1164.82 1210.47 1164.24C1210.14 1163.67 1209.94 1163.05 1209.86 1162.39C1209.78 1161.73 1209.83 1161.09 1210 1160.45C1210.18 1159.81 1210.47 1159.23 1210.88 1158.71C1211.3 1158.19 1211.78 1157.76 1212.36 1157.44C1212.94 1157.11 1213.56 1156.91 1214.21 1156.83C1214.87 1156.75 1215.52 1156.79 1216.16 1156.97C1216.8 1157.15 1217.38 1157.44 1217.9 1157.85Z" fill="white"/>
<path opacity="0.4" d="M1123.36 1010.19C1123.89 1010.61 1124.31 1011.1 1124.64 1011.68C1124.96 1012.25 1125.17 1012.87 1125.25 1013.53C1125.33 1014.19 1125.28 1014.84 1125.1 1015.48C1124.92 1016.12 1124.63 1016.69 1124.22 1017.21C1123.81 1017.74 1123.32 1018.17 1122.74 1018.49C1122.16 1018.81 1121.54 1019.02 1120.88 1019.1C1120.23 1019.18 1119.58 1019.13 1118.94 1018.95C1118.3 1018.78 1117.72 1018.48 1117.2 1018.07C1116.68 1017.66 1116.25 1017.17 1115.93 1016.59C1115.6 1016.01 1115.4 1015.39 1115.32 1014.73C1115.24 1014.08 1115.28 1013.43 1115.47 1012.79C1115.64 1012.15 1115.94 1011.58 1116.34 1011.05C1116.75 1010.53 1117.25 1010.1 1117.83 1009.78C1118.4 1009.46 1119.02 1009.25 1119.68 1009.17C1120.34 1009.09 1120.99 1009.14 1121.63 1009.32C1122.27 1009.49 1122.84 1009.79 1123.36 1010.19Z" fill="white"/>
<g opacity="0.4">
<mask id="mask8_0_1" style="mask-type:luminance" maskUnits="userSpaceOnUse" x="1130" y="1305" width="25" height="23">
<path d="M1130.63 1308.19L1152.54 1305.52L1154.91 1324.97L1133 1327.63L1130.63 1308.19Z" fill="white"/>
</mask>
<g mask="url(#mask8_0_1)">
<path d="M1133.42 1310.72C1132.78 1310.21 1132.66 1309.28 1133.17 1308.64C1133.67 1307.99 1134.59 1307.88 1135.24 1308.38L1153.23 1322.47C1153.87 1322.97 1153.98 1323.91 1153.48 1324.54C1152.98 1325.19 1152.04 1325.3 1151.4 1324.8L1133.42 1310.72Z" fill="white"/>
</g>
</g>
<g opacity="0.4">
<mask id="mask9_0_1" style="mask-type:luminance" maskUnits="userSpaceOnUse" x="1143" y="1337" width="25" height="23">
<path d="M1143 1339.67L1164.91 1337L1167.28 1356.44L1145.37 1359.11L1143 1339.67Z" fill="white"/>
</mask>
<g mask="url(#mask9_0_1)">
<path d="M1145.78 1342.19C1145.14 1341.69 1145.03 1340.76 1145.53 1340.11C1146.03 1339.47 1146.96 1339.36 1147.6 1339.86L1165.59 1353.95C1166.24 1354.45 1166.35 1355.38 1165.85 1356.02C1165.34 1356.66 1164.41 1356.78 1163.77 1356.27L1145.78 1342.19Z" fill="white"/>
</g>
</g>
<path opacity="0.4" d="M1012.59 1325.43C1011.78 1325.53 1011.04 1324.94 1010.94 1324.11C1010.84 1323.3 1011.42 1322.55 1012.23 1322.45L1134.37 1307.58C1135.18 1307.48 1135.92 1308.07 1136.02 1308.89C1136.12 1309.71 1135.54 1310.46 1134.73 1310.56L1012.59 1325.43Z" fill="white"/>
<path opacity="0.4" d="M1024.78 1359.59C1023.98 1359.7 1023.23 1359.13 1023.11 1358.31C1022.99 1357.5 1023.55 1356.73 1024.35 1356.62L1146.13 1339.05C1146.95 1338.93 1147.7 1339.5 1147.82 1340.31C1147.94 1341.14 1147.37 1341.9 1146.56 1342.02L1024.78 1359.59Z" fill="white"/>
<path opacity="0.4" d="M1014.09 1320.67C1014.61 1321.09 1015.03 1321.58 1015.36 1322.16C1015.69 1322.73 1015.89 1323.35 1015.97 1324.01C1016.05 1324.67 1016 1325.32 1015.82 1325.96C1015.65 1326.6 1015.35 1327.17 1014.94 1327.69C1014.54 1328.22 1014.04 1328.65 1013.46 1328.97C1012.89 1329.29 1012.27 1329.5 1011.61 1329.58C1010.95 1329.66 1010.3 1329.61 1009.66 1329.43C1009.02 1329.26 1008.44 1328.96 1007.92 1328.55C1007.4 1328.14 1006.97 1327.65 1006.65 1327.07C1006.32 1326.5 1006.12 1325.88 1006.04 1325.21C1005.96 1324.56 1006 1323.91 1006.19 1323.27C1006.36 1322.63 1006.66 1322.06 1007.06 1321.53C1007.47 1321.01 1007.97 1320.58 1008.55 1320.26C1009.12 1319.94 1009.74 1319.73 1010.4 1319.65C1011.06 1319.57 1011.71 1319.62 1012.34 1319.8C1012.98 1319.97 1013.57 1320.27 1014.09 1320.67Z" fill="white"/>
<path opacity="0.4" d="M1026.07 1353.48C1026.59 1353.9 1027.02 1354.39 1027.34 1354.97C1027.67 1355.54 1027.87 1356.16 1027.95 1356.82C1028.03 1357.48 1027.99 1358.13 1027.8 1358.77C1027.63 1359.41 1027.33 1359.98 1026.92 1360.5C1026.52 1361.03 1026.02 1361.46 1025.44 1361.78C1024.87 1362.1 1024.25 1362.31 1023.59 1362.39C1022.93 1362.47 1022.28 1362.42 1021.65 1362.24C1021.01 1362.07 1020.42 1361.77 1019.9 1361.36C1019.38 1360.95 1018.95 1360.46 1018.63 1359.88C1018.3 1359.31 1018.1 1358.69 1018.02 1358.03C1017.94 1357.37 1017.99 1356.72 1018.17 1356.08C1018.34 1355.44 1018.64 1354.87 1019.05 1354.34C1019.45 1353.82 1019.95 1353.39 1020.53 1353.07C1021.1 1352.75 1021.72 1352.54 1022.38 1352.46C1023.04 1352.38 1023.69 1352.43 1024.33 1352.61C1024.97 1352.78 1025.55 1353.08 1026.07 1353.48Z" fill="white"/>
<path opacity="0.4" d="M987.331 1242.38C986.683 1241.88 986.571 1240.96 987.08 1240.32C987.588 1239.68 988.52 1239.56 989.168 1240.07L1084.84 1314.1C1085.49 1314.61 1085.6 1315.53 1085.09 1316.17C1084.58 1316.81 1083.65 1316.92 1083 1316.42L987.331 1242.38Z" fill="white"/>
<path opacity="0.4" d="M990.672 1235.89C991.192 1236.3 991.617 1236.79 991.94 1237.36C992.263 1237.94 992.469 1238.56 992.549 1239.22C992.628 1239.88 992.577 1240.53 992.402 1241.17C992.228 1241.81 991.933 1242.39 991.526 1242.91C991.111 1243.43 990.623 1243.86 990.044 1244.18C989.466 1244.51 988.846 1244.71 988.194 1244.79C987.533 1244.87 986.883 1244.82 986.243 1244.64C985.604 1244.47 985.028 1244.17 984.508 1243.76C983.98 1243.36 983.562 1242.86 983.231 1242.28C982.908 1241.7 982.702 1241.08 982.622 1240.43C982.542 1239.77 982.593 1239.12 982.768 1238.48C982.951 1237.84 983.238 1237.27 983.654 1236.75C984.06 1236.22 984.549 1235.8 985.126 1235.47C985.705 1235.15 986.325 1234.94 986.985 1234.86C987.637 1234.78 988.288 1234.83 988.927 1235.01C989.568 1235.19 990.143 1235.48 990.672 1235.89Z" fill="white"/>
<path opacity="0.4" d="M1258.2 1038.13C1258.1 1037.32 1258.68 1036.57 1259.5 1036.47C1260.33 1036.37 1261.07 1036.95 1261.17 1037.77L1277.01 1167.84C1277.11 1168.65 1276.52 1169.39 1275.69 1169.49C1274.88 1169.59 1274.13 1169.01 1274.03 1168.21L1258.2 1038.13Z" fill="white"/>
<path opacity="0.4" d="M1262.09 1032.59C1262.61 1033 1263.03 1033.5 1263.36 1034.08C1263.69 1034.65 1263.89 1035.26 1263.97 1035.93C1264.05 1036.59 1264 1037.24 1263.83 1037.88C1263.64 1038.51 1263.36 1039.09 1262.94 1039.61C1262.53 1040.13 1262.05 1040.56 1261.47 1040.89C1260.89 1041.21 1260.27 1041.42 1259.61 1041.5C1258.96 1041.58 1258.31 1041.53 1257.67 1041.35C1257.03 1041.17 1256.44 1040.87 1255.92 1040.47C1255.4 1040.06 1254.98 1039.56 1254.65 1038.99C1254.32 1038.41 1254.13 1037.79 1254.05 1037.13C1253.96 1036.47 1254.01 1035.83 1254.19 1035.19C1254.37 1034.55 1254.66 1033.97 1255.07 1033.45C1255.47 1032.93 1255.97 1032.5 1256.55 1032.18C1257.13 1031.85 1257.75 1031.65 1258.4 1031.57C1259.06 1031.49 1259.71 1031.53 1260.35 1031.72C1260.99 1031.89 1261.57 1032.19 1262.09 1032.59Z" fill="white"/>
<path opacity="0.4" d="M1236.19 1069.01C1235.56 1068.52 1235.45 1067.61 1235.94 1066.97C1236.44 1066.34 1237.35 1066.23 1237.99 1066.72L1265.92 1088.59C1266.56 1089.08 1266.67 1090 1266.17 1090.64C1265.68 1091.27 1264.76 1091.38 1264.12 1090.89L1236.19 1069.01Z" fill="white"/>
<path opacity="0.4" d="M1238.56 1062.67C1239.08 1063.07 1239.5 1063.56 1239.82 1064.14C1240.16 1064.72 1240.35 1065.34 1240.43 1066C1240.51 1066.65 1240.47 1067.3 1240.29 1067.94C1240.11 1068.58 1239.82 1069.16 1239.41 1069.68C1239 1070.2 1238.51 1070.63 1237.93 1070.95C1237.35 1071.28 1236.74 1071.48 1236.08 1071.56C1235.42 1071.64 1234.77 1071.6 1234.13 1071.42C1233.5 1071.24 1232.91 1070.95 1232.39 1070.54C1231.87 1070.13 1231.45 1069.64 1231.12 1069.06C1230.79 1068.48 1230.59 1067.86 1230.51 1067.21C1230.43 1066.55 1230.48 1065.9 1230.65 1065.26C1230.84 1064.62 1231.13 1064.04 1231.54 1063.52C1231.94 1062.99 1232.44 1062.57 1233.01 1062.24C1233.59 1061.92 1234.21 1061.72 1234.87 1061.64C1235.53 1061.55 1236.17 1061.61 1236.81 1061.78C1237.45 1061.96 1238.04 1062.25 1238.56 1062.67Z" fill="white"/>
</svg>
