<svg width="135" height="130" viewBox="0 0 135 130" fill="none" xmlns="http://www.w3.org/2000/svg">
<g id="Frame">
<g id="[component:lottie:https://assets1.lottiefiles.com/packages/lf20_nft4b16l.json]">
<g id="Group" opacity="0.300205">
<g id="Group_2">
<path id="Vector" d="M78.4125 23.9276C78.4125 25.4719 77.1606 26.7238 75.6164 26.7238C74.0722 26.7238 72.8203 25.4719 72.8203 23.9276C72.8203 22.3834 74.0722 21.1316 75.6164 21.1316C77.1606 21.1316 78.4125 22.3834 78.4125 23.9276Z" fill="#41AE80"/>
</g>
</g>
<g id="Group_3" opacity="0.660382">
<g id="Group_4">
<path id="Vector_2" d="M56.4066 30.5287L54.746 31.4874C54.4454 31.661 54.061 31.5579 53.8874 31.2573L50.889 26.0639C50.7154 25.7633 50.8185 25.3789 51.119 25.2054L52.7796 24.2466C53.0802 24.0731 53.4646 24.1761 53.6382 24.4767L56.6366 29.6701C56.8102 29.9708 56.7071 30.3551 56.4066 30.5287Z" fill="#4A90E2"/>
</g>
</g>
<g id="Group_5" opacity="0.660382">
<g id="Group_6">
<path id="Vector_3" d="M28.4122 41.8138L28.7857 41.9405C29.2092 42.0842 29.6763 42.0102 30.0348 41.7427L30.3509 41.5068C31.2536 40.8332 32.5369 41.487 32.5225 42.6132L32.5175 43.0076C32.5117 43.4548 32.7264 43.8762 33.0915 44.1345L33.4136 44.3622C34.3332 45.0126 34.1078 46.435 33.0323 46.7694L32.6556 46.8864C32.2286 47.0192 31.8943 47.3537 31.7615 47.7807L31.6444 48.1574C31.3101 49.2329 29.8876 49.4582 29.2372 48.5386L29.0094 48.2166C28.7512 47.8515 28.3298 47.6367 27.8826 47.6425L27.4881 47.6474C26.362 47.6618 25.7082 46.3787 26.3818 45.4759L26.6178 45.1598C26.8853 44.8014 26.9592 44.3343 26.8155 43.9107L26.6888 43.5372C26.3272 42.4705 27.3455 41.4522 28.4122 41.8138Z" fill="#46AC7C"/>
</g>
</g>
<g id="Group_7" opacity="0.660382">
<g id="Group_8">
<path id="Vector_4" d="M25.7615 61.6154L26.1809 63.4865C26.2568 63.8251 26.0438 64.1613 25.7051 64.2372L19.8535 65.5489C19.5148 65.6248 19.1787 65.4118 19.1027 65.0731L18.6833 63.202C18.6074 62.8633 18.8204 62.5272 19.1591 62.4514L25.0108 61.1396C25.3494 61.0637 25.6856 61.2767 25.7615 61.6154Z" fill="#5E8EC7"/>
</g>
</g>
<g id="Group_9" opacity="0.660382">
<g id="Group_10">
<path id="Vector_5" d="M31.7014 85.5626C31.7014 87.1068 30.4496 88.3586 28.9054 88.3586C27.3611 88.3586 26.1094 87.1068 26.1094 85.5626C26.1094 84.0184 27.3611 82.7666 28.9054 82.7666C30.4496 82.7666 31.7014 84.0184 31.7014 85.5626Z" fill="#F9C033"/>
</g>
</g>
<g id="Group_11" opacity="0.660382">
<g id="Group_12">
<path id="Vector_6" d="M28.4122 99.3232L28.7857 99.4498C29.2092 99.5934 29.6763 99.5195 30.0348 99.252L30.3509 99.016C31.2536 98.3425 32.5369 98.9963 32.5225 100.123L32.5175 100.517C32.5117 100.964 32.7264 101.386 33.0915 101.644L33.4136 101.871C34.3332 102.522 34.1078 103.944 33.0323 104.279L32.6556 104.396C32.2286 104.528 31.8943 104.863 31.7615 105.29L31.6444 105.667C31.3101 106.742 29.8876 106.968 29.2372 106.048L29.0094 105.726C28.7512 105.361 28.3298 105.146 27.8826 105.152L27.4881 105.157C26.362 105.171 25.7082 103.888 26.3818 102.985L26.6178 102.669C26.8853 102.311 26.9592 101.844 26.8155 101.42L26.6888 101.047C26.3272 99.9798 27.3455 98.9615 28.4122 99.3232Z" fill="#FC6011"/>
</g>
</g>
<g id="Group_13" opacity="0.660382">
<g id="Group_14">
<path id="Vector_7" d="M100.38 39.1549C99.5329 38.0505 99.7952 36.4055 100.961 35.5106C102.128 34.6158 103.785 34.7881 104.632 35.8925C104.634 35.8946 104.635 35.8967 104.637 35.8987" stroke="#FC0611" stroke-width="1.66667" stroke-linecap="round" stroke-linejoin="round"/>
</g>
</g>
<g id="Group_15" opacity="0.660382">
<g id="Group_16">
<path id="Vector_8" d="M107.924 54.3781L108.297 54.5047C108.721 54.6484 109.188 54.5744 109.546 54.3069L109.863 54.071C110.765 53.3974 112.049 54.0512 112.034 55.1774L112.029 55.5718C112.023 56.0191 112.238 56.4405 112.603 56.6987L112.925 56.9264C113.845 57.5768 113.62 58.9992 112.544 59.3336L112.167 59.4507C111.74 59.5834 111.406 59.9179 111.273 60.3449L111.156 60.7216C110.822 61.7971 109.399 62.0224 108.749 61.1028L108.521 60.7808C108.263 60.4157 107.842 60.2009 107.394 60.2067L107 60.2117C105.874 60.226 105.22 58.9429 105.894 58.0402L106.129 57.7241C106.397 57.3656 106.471 56.8985 106.327 56.4749L106.201 56.1014C105.839 55.0347 106.857 54.0164 107.924 54.3781Z" fill="#FFBB31"/>
</g>
</g>
<g id="Group_17" opacity="0.660382">
<g id="Group_18">
<path id="Vector_9" d="M110.533 87.5239C112.434 87.7743 113.781 89.6326 113.517 91.6404C113.253 93.6483 111.471 95.0945 109.569 94.8441C109.566 94.8436 109.562 94.8432 109.559 94.8427" stroke="#3490DC" stroke-width="1.25" stroke-linecap="round" stroke-linejoin="round"/>
</g>
</g>
<g id="Group_19" opacity="0.660382">
<g id="Group_20">
<path id="Vector_10" d="M104.547 111.102L102.887 112.06C102.586 112.234 102.202 112.131 102.028 111.83L99.0296 106.637C98.8561 106.336 98.9591 105.952 99.2596 105.778L100.92 104.82C101.221 104.646 101.605 104.749 101.779 105.05L104.777 110.243C104.951 110.544 104.848 110.928 104.547 111.102Z" fill="#FC0611"/>
</g>
</g>
<g id="Group_21" opacity="0.660382">
<g id="Group_22">
<path id="Vector_11" d="M50.1227 114.146C48.9554 112.625 49.3168 110.358 50.9235 109.126C52.5302 107.893 54.813 108.13 55.9803 109.652L55.987 109.66" stroke="#41AE80" stroke-width="1.66667" stroke-linecap="round" stroke-linejoin="round"/>
</g>
</g>
<g id="Group_23" opacity="0.2">
<g id="Group_24">
<path id="Vector_12" d="M115.932 67.6655C115.932 93.9903 94.5919 115.331 68.267 115.331C41.9422 115.331 20.6016 93.9903 20.6016 67.6655C20.6016 41.3406 41.9422 20.0002 68.267 20.0002C94.5919 20.0002 115.932 41.3406 115.932 67.6655Z" fill="#2C9D82"/>
</g>
</g>
<g id="Group_25">
<g id="Group_26">
<path id="Vector_13" d="M101.061 67.6579C101.061 85.7673 86.3801 100.448 68.2706 100.448C50.1612 100.448 35.4805 85.7673 35.4805 67.6579C35.4805 49.5484 50.1612 34.8679 68.2706 34.8679C86.3801 34.8679 101.061 49.5484 101.061 67.6579Z" fill="#215D4F"/>
</g>
</g>
<g id="Group_27">
<g id="Group_28">
<path id="Vector_14" d="M53.793 67.718L63.4057 77.3308L82.7427 57.9939" stroke="white" stroke-width="4.30208" stroke-linecap="round" stroke-linejoin="round"/>
</g>
</g>
</g>
</g>
</svg>
