<svg width="959" height="78" viewBox="0 0 959 78" fill="none" xmlns="http://www.w3.org/2000/svg">
<path d="M3.50021 77.9999L11.8118 69.9843L0.714304 66.794L3.50021 77.9999ZM8.54259 67.1517C9.6953 64.836 11.0123 62.6128 12.4889 60.4789L10.8443 59.3408C9.31418 61.552 7.94827 63.8576 6.75215 66.2604L8.54259 67.1517ZM17.3833 54.3532C19.1111 52.4636 20.9842 50.6533 22.9988 48.9199L21.6944 47.4038C19.6224 49.1865 17.6917 51.0521 15.9073 53.0036L17.3833 54.3532ZM29.2043 44.1276C31.3315 42.6487 33.5782 41.2347 35.9413 39.8836L34.9486 38.1473C32.5378 39.5257 30.2411 40.9709 28.0626 42.4855L29.2043 44.1276ZM42.8179 36.2835C45.2084 35.1367 47.6961 34.043 50.2782 33.0005L49.5295 31.146C46.9106 32.2032 44.384 33.314 41.9529 34.4802L42.8179 36.2835ZM57.4957 30.3034C59.9479 29.4555 62.473 28.6474 65.069 27.878L64.5007 25.9604C61.8777 26.7378 59.3241 27.555 56.8421 28.4132L57.4957 30.3034ZM72.8996 25.7273C75.351 25.1041 77.8576 24.5112 80.4181 23.9477L79.9883 21.9944C77.4078 22.5623 74.8801 23.1602 72.4068 23.7889L72.8996 25.7273ZM88.2593 22.3447C90.8801 21.8479 93.5514 21.3788 96.2717 20.9364L95.9507 18.9623C93.214 19.4073 90.5256 19.8795 87.8868 20.3797L88.2593 22.3447ZM103.927 19.7796C106.52 19.4164 109.153 19.0755 111.826 18.756L111.588 16.7702C108.903 17.0911 106.256 17.4338 103.65 17.799L103.927 19.7796ZM119.961 17.8618C122.518 17.6043 125.108 17.365 127.73 17.1431L127.562 15.1503C124.929 15.373 122.329 15.6133 119.761 15.8719L119.961 17.8618ZM135.593 16.5367C138.245 16.3513 140.928 16.1825 143.64 16.0299L143.527 14.033C140.807 14.1862 138.115 14.3555 135.454 14.5415L135.593 16.5367ZM151.722 15.6259C154.295 15.5131 156.893 15.4137 159.515 15.3274L159.449 13.3284C156.82 13.415 154.215 13.5147 151.635 13.6279L151.722 15.6259ZM167.453 15.1072C170.122 15.0466 172.816 14.9986 175.531 14.9629L175.505 12.9631C172.783 12.9989 170.084 13.0469 167.407 13.1077L167.453 15.1072ZM183.573 14.8929C186.165 14.8815 188.776 14.8806 191.406 14.8897L191.413 12.8898C188.778 12.8806 186.161 12.8815 183.564 12.8929L183.573 14.8929ZM199.353 14.9473C202.021 14.9763 204.706 15.0151 207.41 15.0634L207.446 13.0637C204.738 13.0154 202.047 12.9765 199.375 12.9474L199.353 14.9473ZM215.49 15.2341C218.087 15.2972 220.699 15.3686 223.327 15.4478L223.387 13.4487C220.756 13.3694 218.14 13.2979 215.539 13.2347L215.49 15.2341ZM231.253 15.7089C233.91 15.8036 236.581 15.9059 239.267 16.0155L239.348 14.0172C236.66 13.9074 233.985 13.805 231.325 13.7101L231.253 15.7089ZM247.364 16.366C249.981 16.4856 252.61 16.6117 255.252 16.7441L255.352 14.7466C252.707 14.6141 250.075 14.4878 247.455 14.3681L247.364 16.366ZM263.149 17.1563C265.793 17.2997 268.448 17.449 271.115 17.604L271.231 15.6074C268.562 15.4523 265.904 15.3028 263.257 15.1592L263.149 17.1563ZM279.147 18.0857C281.811 18.2503 284.486 18.4202 287.171 18.5952L287.301 16.5994C284.614 16.4243 281.937 16.2543 279.27 16.0895L279.147 18.0857ZM295.041 19.1203C297.673 19.3 300.314 19.4843 302.965 19.6729L303.107 17.6779C300.455 17.4892 297.811 17.3048 295.177 17.125L295.041 19.1203ZM310.941 20.2515C313.608 20.4485 316.284 20.6497 318.968 20.8548L319.12 18.8606C316.435 18.6554 313.758 18.4541 311.089 18.2569L310.941 20.2515ZM326.926 21.4722C329.551 21.6788 332.182 21.8889 334.82 22.1022L334.981 20.1087C332.342 19.8953 329.709 19.6851 327.083 19.4784L326.926 21.4722ZM342.754 22.7516C345.405 22.9711 348.063 23.1937 350.727 23.4192L350.895 21.4263C348.23 21.2008 345.572 20.9781 342.919 20.7584L342.754 22.7516ZM358.736 24.1037C361.376 24.3315 364.022 24.5618 366.673 24.7945L366.847 22.8022C364.196 22.5694 361.549 22.339 358.908 22.1111L358.736 24.1037ZM374.58 25.494C377.221 25.7293 379.867 25.9668 382.517 26.2061L382.697 24.2142C380.046 23.9748 377.399 23.7373 374.758 23.5019L374.58 25.494ZM390.481 26.9297C393.14 27.1727 395.803 27.4174 398.47 27.6636L398.654 25.6721C395.986 25.4258 393.322 25.1811 390.663 24.938L390.481 26.9297ZM406.406 28.3996C409.043 28.6451 411.682 28.8919 414.325 29.1397L414.512 27.1485C411.869 26.9006 409.228 26.6537 406.592 26.4082L406.406 28.3996ZM422.263 29.8865C424.912 30.1363 427.564 30.3871 430.218 30.6386L430.406 28.6475C427.752 28.396 425.1 28.1452 422.451 27.8953L422.263 29.8865ZM438.187 31.395C440.833 31.6466 443.481 31.8986 446.131 32.151L446.321 30.16C443.671 29.9076 441.022 29.6556 438.376 29.404L438.187 31.395ZM454.063 32.9067C456.708 33.1588 459.355 33.4111 462.003 33.6633L462.193 31.6723C459.545 31.4201 456.898 31.1679 454.252 30.9157L454.063 32.9067ZM469.951 34.4197C472.601 34.6717 475.252 34.9234 477.904 35.1747L478.092 33.1836C475.441 32.9323 472.79 32.6806 470.14 32.4287L469.951 34.4197ZM485.854 35.9267C488.503 36.1767 491.153 36.4261 493.802 36.6747L493.988 34.6835C491.34 34.4349 488.691 34.1855 486.042 33.9356L485.854 35.9267ZM501.748 37.418C504.397 37.6649 507.045 37.9108 509.693 38.1556L509.877 36.1641C507.23 35.9194 504.582 35.6735 501.934 35.4267L501.748 37.418ZM517.633 38.8862C520.285 39.1291 522.936 39.3705 525.586 39.6105L525.766 37.6187C523.117 37.3788 520.467 37.1373 517.816 36.8946L517.633 38.8862ZM533.552 40.3276C536.206 40.565 538.859 40.8007 541.509 41.0344L541.685 39.0421C539.035 38.8085 536.384 38.5729 533.73 38.3356L533.552 40.3276ZM549.454 41.7298C552.1 41.9595 554.744 42.1872 557.386 42.4125L557.556 40.4198C554.916 40.1945 552.272 39.9669 549.627 39.7372L549.454 41.7298ZM565.336 43.0845C568.002 43.3076 570.666 43.5282 573.326 43.7461L573.489 41.7528C570.83 41.535 568.168 41.3145 565.503 41.0914L565.336 43.0845ZM581.295 44.3914C583.948 44.6036 586.598 44.813 589.244 45.0192L589.399 43.0253C586.755 42.8191 584.107 42.6099 581.455 42.3978L581.295 44.3914ZM597.168 45.6284C599.823 45.8295 602.473 46.0273 605.119 46.2215L605.266 44.2269C602.621 44.0328 599.972 43.8351 597.319 43.6341L597.168 45.6284ZM613.133 46.7998C615.799 46.9888 618.461 47.174 621.116 47.3551L621.252 45.3598C618.598 45.1788 615.939 44.9937 613.275 44.8048L613.133 46.7998ZM629.067 47.8862C631.711 48.0591 634.35 48.2277 636.983 48.3919L637.107 46.3958C634.477 46.2317 631.84 46.0632 629.197 45.8905L629.067 47.8862ZM644.95 48.8761C647.635 49.0349 650.314 49.1889 652.985 49.3377L653.097 47.3408C650.428 47.1921 647.751 47.0383 645.068 46.8795L644.95 48.8761ZM660.978 49.7687C663.635 49.9072 666.284 50.0402 668.926 50.1678L669.022 48.1701C666.384 48.0427 663.737 47.9097 661.082 47.7714L660.978 49.7687ZM676.826 50.5335C679.506 50.6522 682.178 50.7648 684.84 50.8712L684.92 48.8728C682.26 48.7665 679.592 48.654 676.915 48.5355L676.826 50.5335ZM692.889 51.1745C695.562 51.269 698.226 51.3569 700.88 51.438L700.941 49.4389C698.29 49.358 695.63 49.2701 692.959 49.1757L692.889 51.1745ZM708.811 51.6602C711.444 51.7273 714.067 51.7872 716.679 51.8397L716.719 49.8401C714.111 49.7877 711.492 49.7278 708.862 49.6609L708.811 51.6602ZM724.793 51.9796C727.485 52.018 730.166 52.0483 732.834 52.07L732.851 50.0701C730.187 50.0484 727.51 50.0182 724.821 49.9798L724.793 51.9796ZM740.8 52.1094C743.443 52.1138 746.072 52.1094 748.688 52.096L748.678 50.0961C746.066 50.1094 743.442 50.1138 740.804 50.1094L740.8 52.1094ZM756.691 52.0259C759.404 51.9921 762.101 51.948 764.783 51.8933L764.742 49.8937C762.066 49.9483 759.374 49.9923 756.666 50.0261L756.691 52.0259ZM772.779 51.6972C775.428 51.621 778.061 51.534 780.676 51.4357L780.601 49.4371C777.992 49.5351 775.365 49.622 772.722 49.698L772.779 51.6972ZM788.588 51.1015C791.316 50.9732 794.025 50.832 796.714 50.6775L796.599 48.6808C793.918 48.8349 791.216 48.9757 788.494 49.1037L788.588 51.1015ZM804.72 50.1739C807.367 49.9926 809.995 49.7975 812.6 49.5885L812.44 47.5949C809.843 47.8033 807.223 47.9977 804.583 48.1786L804.72 50.1739ZM820.469 48.9081C823.201 48.6544 825.909 48.3842 828.59 48.0973L828.378 46.1086C825.706 46.3946 823.007 46.6638 820.284 46.9167L820.469 48.9081ZM836.557 47.1853C839.186 46.8642 841.789 46.5258 844.364 46.1696L844.09 44.1884C841.526 44.5431 838.934 44.8802 836.315 45.2001L836.557 47.1853ZM852.265 45.0072C854.975 44.5837 857.653 44.1392 860.297 43.6729L859.95 41.7033C857.319 42.1672 854.654 42.6097 851.956 43.0311L852.265 45.0072ZM868.129 42.2084C870.706 41.6982 873.248 41.1656 875.755 40.6102L875.322 38.6575C872.83 39.2096 870.303 39.7391 867.741 40.2465L868.129 42.2084ZM883.748 38.7308C886.385 38.0737 888.979 37.3889 891.529 36.6757L890.99 34.7496C888.459 35.4575 885.884 36.1375 883.265 36.7902L883.748 38.7308ZM899.046 34.4499C901.664 33.6299 904.231 32.7769 906.746 31.8898L906.08 30.0038C903.589 30.8826 901.045 31.7282 898.449 32.5414L899.046 34.4499ZM914.32 29.0504C916.788 28.0675 919.2 27.0477 921.553 25.9902L920.733 24.1659C918.408 25.2111 916.023 26.2196 913.58 27.1923L914.32 29.0504ZM928.885 22.4741C931.317 21.2298 933.677 19.9391 935.963 18.6006L934.952 16.8747C932.7 18.1932 930.374 19.4658 927.974 20.6936L928.885 22.4741ZM942.605 14.4358C944.912 12.8855 947.131 11.2779 949.259 9.61142L948.025 8.03698C945.938 9.67225 943.758 11.2514 941.49 12.7757L942.605 14.4358ZM955.364 4.43334C956.335 3.54004 957.283 2.63159 958.207 1.70779L956.793 0.29357C955.889 1.19734 954.961 2.08651 954.01 2.96127L955.364 4.43334Z" fill="white"/>
</svg>
