<svg width="931" height="96" viewBox="0 0 931 96" fill="none" xmlns="http://www.w3.org/2000/svg">
<path d="M930 95.9998L930.931 84.4904L920.498 89.4381L930 95.9998ZM0.84622 2.25593C1.81026 3.09069 2.80629 3.90994 3.83372 4.71394L5.06626 3.13887C4.06407 2.35462 3.09365 1.55639 2.15542 0.743974L0.84622 2.25593ZM10.3711 9.35735C12.5835 10.7878 14.9082 12.1642 17.3413 13.4883L18.2973 11.7316C15.9054 10.4299 13.6243 9.07913 11.457 7.67783L10.3711 9.35735ZM24.3841 17.0374C26.8231 18.1767 29.3527 19.2727 31.9698 20.327L32.7171 18.4718C30.1312 17.4301 27.6348 16.3484 25.2305 15.2254L24.3841 17.0374ZM39.2264 23.0657C41.6995 23.9404 44.2406 24.783 46.8475 25.5944L47.4419 23.6847C44.8579 22.8805 42.3411 22.0459 39.8933 21.1802L39.2264 23.0657ZM54.6585 27.8798C57.1204 28.5567 59.6342 29.2092 62.1986 29.838L62.6749 27.8955C60.1277 27.271 57.6319 26.6231 55.1888 25.9514L54.6585 27.8798ZM70.0418 31.6538C72.6453 32.2227 75.2957 32.7695 77.9917 33.295L78.3743 31.3319C75.6925 30.8092 73.0568 30.2654 70.4687 29.6999L70.0418 31.6538ZM85.6528 34.7102C88.2454 35.1637 90.8767 35.5993 93.5454 36.0173L93.8549 34.0414C91.1975 33.6251 88.5779 33.1915 85.9974 32.7401L85.6528 34.7102ZM101.663 37.2195C104.2 37.5743 106.767 37.9145 109.365 38.2407L109.614 36.2562C107.025 35.9312 104.467 35.5922 101.94 35.2388L101.663 37.2195ZM117.229 39.175C119.88 39.4727 122.561 39.7567 125.269 40.0276L125.468 38.0375C122.767 37.7674 120.095 37.4842 117.453 37.1875L117.229 39.175ZM133.253 40.7809C135.831 41.0099 138.433 41.2279 141.059 41.435L141.216 39.4412C138.597 39.2346 136.002 39.0172 133.43 38.7887L133.253 40.7809ZM149.005 42.0241C151.676 42.2099 154.37 42.3852 157.086 42.5503L157.208 40.554C154.497 40.3892 151.809 40.2143 149.143 40.029L149.005 42.0241ZM165.02 43.0007C167.619 43.1381 170.238 43.2668 172.875 43.387L172.966 41.389C170.334 41.2691 167.72 41.1407 165.125 41.0035L165.02 43.0007ZM180.84 43.7223C183.513 43.8258 186.203 43.9211 188.911 44.0085L188.976 42.0095C186.272 41.9223 183.585 41.8272 180.917 41.7238L180.84 43.7223ZM196.87 44.2414C199.478 44.3101 202.101 44.3718 204.738 44.4268L204.779 42.4272C202.146 42.3723 199.527 42.3106 196.923 42.2421L196.87 44.2414ZM212.692 44.572C215.358 44.6139 218.037 44.6493 220.731 44.6785L220.752 42.6786C218.062 42.6494 215.386 42.6141 212.723 42.5723L212.692 44.572ZM228.758 44.7469C231.367 44.7633 233.988 44.7742 236.621 44.7798L236.625 42.7798C233.995 42.7742 231.377 42.7634 228.77 42.747L228.758 44.7469ZM244.553 44.7807C247.209 44.7759 249.875 44.7659 252.552 44.751L252.541 42.7511C249.867 42.7659 247.202 42.7759 244.55 42.7807L244.553 44.7807ZM260.616 44.692C263.238 44.6682 265.871 44.64 268.513 44.6076L268.488 42.6077C265.849 42.6402 263.218 42.6683 260.597 42.6921L260.616 44.692ZM276.423 44.4984C279.068 44.458 281.722 44.4135 284.385 44.3652L284.349 42.3656C281.688 42.4138 279.036 42.4582 276.392 42.4987L276.423 44.4984ZM292.397 44.2091C295.059 44.1537 297.728 44.0948 300.404 44.0324L300.358 42.033C297.683 42.0953 295.015 42.1542 292.356 42.2095L292.397 44.2091ZM308.297 43.8394C310.935 43.7719 313.58 43.7014 316.231 43.6279L316.175 41.6286C313.526 41.7021 310.882 41.7726 308.246 41.8401L308.297 43.8394ZM324.203 43.3988C326.866 43.3196 329.536 43.2377 332.211 43.1532L332.148 41.1542C329.474 41.2387 326.805 41.3205 324.143 41.3997L324.203 43.3988ZM340.169 42.895C342.802 42.8073 345.441 42.7174 348.085 42.6252L348.015 40.6265C345.372 40.7185 342.735 40.8085 340.102 40.8961L340.169 42.895ZM356.029 42.3426C358.682 42.2463 361.339 42.1481 364 42.0481L363.925 40.0495C361.264 40.1495 358.608 40.2477 355.956 40.3439L356.029 42.3426ZM371.995 41.7426C374.638 41.6401 377.285 41.5359 379.935 41.4303L379.855 39.4319C377.206 39.5375 374.56 39.6416 371.918 39.7441L371.995 41.7426ZM387.866 41.1103C390.513 41.0023 393.163 40.893 395.815 40.7826L395.732 38.7843C393.08 38.8947 390.431 39.004 387.785 39.112L387.866 41.1103ZM403.779 40.448C406.436 40.3354 409.096 40.2219 411.757 40.1075L411.671 38.1093C409.01 38.2237 406.351 38.3372 403.694 38.4498L403.779 40.448ZM419.698 39.7641C422.344 39.649 424.992 39.5333 427.641 39.4171L427.553 37.419C424.904 37.5352 422.257 37.6509 419.611 37.766L419.698 39.7641ZM435.591 39.067C438.242 38.9499 440.894 38.8324 443.546 38.7148L443.458 36.7167C440.805 36.8344 438.153 36.9518 435.503 37.0689L435.591 39.067ZM451.505 38.3613C454.156 38.2435 456.808 38.1257 459.459 38.0079L459.37 36.0099C456.719 36.1276 454.068 36.2455 451.417 36.3633L451.505 38.3613ZM467.411 37.6551C470.062 37.5377 472.712 37.4206 475.361 37.3039L475.273 35.3058C472.624 35.4226 469.973 35.5397 467.323 35.6571L467.411 37.6551ZM483.307 36.9551C485.955 36.8393 488.602 36.7241 491.248 36.6096L491.162 34.6115C488.516 34.726 485.868 34.8412 483.22 34.957L483.307 36.9551ZM499.22 36.2668C501.876 36.1533 504.53 36.0407 507.182 35.9292L507.098 33.931C504.445 34.0425 501.791 34.1551 499.135 34.2686L499.22 36.2668ZM515.131 35.5978C517.778 35.4885 520.423 35.3803 523.065 35.2736L522.984 33.2752C520.342 33.382 517.696 33.4902 515.048 33.5995L515.131 35.5978ZM530.997 34.9568C533.664 34.8517 536.327 34.7481 538.987 34.6462L538.911 32.6477C536.25 32.7496 533.586 32.8532 530.919 32.9584L530.997 34.9568ZM546.956 34.3458C549.608 34.2474 552.257 34.151 554.901 34.0565L554.83 32.0578C552.185 32.1523 549.535 32.2488 546.882 32.3472L546.956 34.3458ZM562.822 33.7793C565.473 33.6885 568.12 33.5999 570.761 33.5137L570.696 31.5147C568.053 31.601 565.406 31.6896 562.754 31.7805L562.822 33.7793ZM578.765 33.2593C581.428 33.1771 584.085 33.0974 586.737 33.0205L586.679 31.0214C584.026 31.0983 581.367 31.178 578.703 31.2603L578.765 33.2593ZM594.674 32.7983C597.313 32.7271 599.947 32.6589 602.574 32.5937L602.524 30.5943C599.896 30.6595 597.261 30.7278 594.62 30.799L594.674 32.7983ZM610.546 32.4052C613.224 32.345 615.894 32.2883 618.557 32.2352L618.517 30.2356C615.853 30.2887 613.181 30.3455 610.501 30.4057L610.546 32.4052ZM626.523 32.087C629.17 32.0413 631.809 31.9994 634.44 31.9616L634.411 29.9618C631.778 29.9997 629.137 30.0416 626.488 30.0873L626.523 32.087ZM642.307 31.86C644.999 31.8294 647.682 31.8032 650.355 31.7815L650.339 29.7816C647.664 29.8032 644.978 29.8295 642.284 29.8601L642.307 31.86ZM658.359 31.7307C661.016 31.7186 663.664 31.7112 666.3 31.7089L666.299 29.7089C663.659 29.7112 661.009 29.7186 658.349 29.7308L658.359 31.7307ZM674.178 31.7173C676.841 31.7254 679.492 31.7389 682.13 31.7581L682.145 29.7581C679.503 29.739 676.85 29.7254 674.185 29.7173L674.178 31.7173ZM690.177 31.8346C692.846 31.8662 695.502 31.9038 698.145 31.9478L698.178 29.948C695.532 29.904 692.873 29.8663 690.2 29.8348L690.177 31.8346ZM706.033 32.0988C708.666 32.1561 711.285 32.2199 713.889 32.2906L713.943 30.2913C711.335 30.2205 708.713 30.1566 706.077 30.0993L706.033 32.0988ZM721.976 32.5341C724.655 32.6228 727.318 32.7193 729.964 32.8237L730.043 30.8252C727.393 30.7207 724.725 30.624 722.042 30.5352L721.976 32.5341ZM737.851 33.1611C740.465 33.2818 743.062 33.4107 745.64 33.5481L745.747 31.551C743.163 31.4133 740.562 31.2841 737.943 31.1632L737.851 33.1611ZM753.751 34.0124C756.434 34.1768 759.096 34.351 761.737 34.5353L761.876 32.5401C759.23 32.3554 756.562 32.1809 753.873 32.0161L753.751 34.0124ZM769.594 35.1187C772.212 35.3251 774.808 35.5421 777.38 35.7699L777.557 33.7777C774.977 33.5493 772.375 33.3318 769.751 33.1249L769.594 35.1187ZM785.476 36.5309C788.147 36.7969 790.792 37.0756 793.41 37.3672L793.631 35.3794C791.006 35.087 788.353 34.8075 785.674 34.5407L785.476 36.5309ZM801.178 38.281C803.835 38.6107 806.462 38.9546 809.056 39.3133L809.33 37.3322C806.726 36.9722 804.09 36.627 801.424 36.2962L801.178 38.281ZM817.053 40.4812C819.683 40.8867 822.278 41.3086 824.838 41.7474L825.176 39.7762C822.605 39.3354 819.999 38.9117 817.357 38.5046L817.053 40.4812ZM832.467 43.1264C835.181 43.6431 837.85 44.1803 840.473 44.7388L840.89 42.7827C838.252 42.221 835.568 41.6809 832.841 41.1617L832.467 43.1264ZM848.205 46.4785C850.735 47.08 853.219 47.7033 855.654 48.3489L856.166 46.4157C853.714 45.7654 851.214 45.138 848.667 44.5327L848.205 46.4785ZM863.54 50.5699C866.11 51.3384 868.619 52.135 871.066 52.9603L871.705 51.0653C869.236 50.2321 866.704 49.4285 864.113 48.6537L863.54 50.5699ZM878.369 55.5822C880.953 56.5695 883.457 57.5935 885.878 58.6553L886.681 56.8237C884.229 55.7482 881.695 54.712 879.083 53.7139L878.369 55.5822ZM892.89 61.9548C895.326 63.1855 897.662 64.4613 899.895 65.7835L900.914 64.0625C898.64 62.7162 896.265 61.4191 893.792 60.1697L892.89 61.9548ZM906.499 70.0412C908.684 71.5791 910.745 73.1726 912.679 74.8234L913.977 73.3025C911.994 71.6086 909.883 69.977 907.65 68.4056L906.499 70.0412ZM918.379 80.2537C920.178 82.1771 921.823 84.1699 923.31 86.2341L924.933 85.0653C923.394 82.9285 921.694 80.87 919.839 78.8873L918.379 80.2537Z" fill="white"/>
</svg>
