<svg width="26" height="24" viewBox="0 0 26 24" fill="none" xmlns="http://www.w3.org/2000/svg">
<path id="Vector" fill-rule="evenodd" clip-rule="evenodd" d="M22.1 9.93926C22.8898 9.93928 23.661 10.1765 24.3116 10.6196C24.9621 11.0627 25.4613 11.6907 25.7432 12.4206C26.025 13.1504 26.0762 13.9477 25.8899 14.707C25.7036 15.4663 25.2887 16.1517 24.7 16.6726V23.0445C24.7 23.1542 24.6716 23.262 24.6176 23.3578C24.5636 23.4535 24.4858 23.534 24.3915 23.5916C24.2972 23.6492 24.1895 23.682 24.0788 23.6869C23.968 23.6917 23.8579 23.6685 23.7588 23.6194L22.1 22.7989L20.4412 23.6194C20.3421 23.6685 20.232 23.6917 20.1212 23.6869C20.0105 23.682 19.9028 23.6492 19.8085 23.5916C19.7142 23.534 19.6364 23.4535 19.5824 23.3578C19.5284 23.262 19.5 23.1542 19.5 23.0445V16.6726C18.9113 16.1517 18.4964 15.4663 18.3101 14.707C18.1238 13.9477 18.175 13.1504 18.4568 12.4206C18.7387 11.6907 19.2379 11.0627 19.8884 10.6196C20.539 10.1765 21.3102 9.93928 22.1 9.93926ZM23.4 0.9375C24.0896 0.9375 24.7509 1.20847 25.2385 1.6908C25.7261 2.17313 26 2.82731 26 3.50943V8.6533C24.7483 7.72464 23.1999 7.27379 21.6392 7.38351C20.0785 7.49322 18.6102 8.15615 17.5038 9.25058C16.3974 10.345 15.7273 11.7975 15.6164 13.3414C15.5054 14.8852 15.9612 16.4169 16.9 17.6551V21.513H2.6C1.91044 21.513 1.24912 21.242 0.761522 20.7597C0.273928 20.2773 0 19.6231 0 18.941V3.50943C0 2.82731 0.273928 2.17313 0.761522 1.6908C1.24912 1.20847 1.91044 0.9375 2.6 0.9375H23.4ZM7.8 12.5112H5.2C4.85522 12.5112 4.52456 12.6467 4.28076 12.8878C4.03696 13.129 3.9 13.4561 3.9 13.7972C3.9 14.1382 4.03696 14.4653 4.28076 14.7065C4.52456 14.9476 4.85522 15.0831 5.2 15.0831H7.8C8.14478 15.0831 8.47544 14.9476 8.71924 14.7065C8.96304 14.4653 9.1 14.1382 9.1 13.7972C9.1 13.4561 8.96304 13.129 8.71924 12.8878C8.47544 12.6467 8.14478 12.5112 7.8 12.5112ZM13 7.36733H5.2C4.86866 7.36769 4.54996 7.4932 4.30902 7.7182C4.06808 7.94321 3.92309 8.25073 3.90368 8.57793C3.88426 8.90513 3.99188 9.22732 4.20454 9.47867C4.41721 9.73002 4.71888 9.89155 5.0479 9.93026L5.2 9.93926H13C13.3313 9.9389 13.65 9.81339 13.891 9.58839C14.1319 9.36338 14.2769 9.05586 14.2963 8.72866C14.3157 8.40146 14.2081 8.07927 13.9955 7.82792C13.7828 7.57657 13.4811 7.41504 13.1521 7.37633L13 7.36733Z" fill="white"/>
</svg>
