<svg width="21" height="26" viewBox="0 0 21 26" fill="none" xmlns="http://www.w3.org/2000/svg">
<path id="Vector" d="M17.7734 0H10.1562V9.1L6.98242 7.15L3.80859 9.1V0H2.53906C1.86566 0 1.21984 0.273928 0.743674 0.761522C0.267507 1.24912 0 1.91044 0 2.6V23.4C0 24.0896 0.267507 24.7509 0.743674 25.2385C1.21984 25.7261 1.86566 26 2.53906 26H17.7734C18.4468 26 19.0927 25.7261 19.5688 25.2385C20.045 24.7509 20.3125 24.0896 20.3125 23.4V2.6C20.3125 1.91044 20.045 1.24912 19.5688 0.761522C19.0927 0.273928 18.4468 0 17.7734 0ZM12.6953 13C13.1975 13 13.6884 13.1525 14.1059 13.4382C14.5235 13.7239 14.8489 14.1299 15.0411 14.605C15.2333 15.0801 15.2836 15.6029 15.1856 16.1072C15.0876 16.6116 14.8458 17.0749 14.4907 17.4385C14.1356 17.8021 13.6832 18.0497 13.1907 18.15C12.6981 18.2504 12.1876 18.1989 11.7237 18.0021C11.2597 17.8053 10.8632 17.472 10.5842 17.0445C10.3052 16.6169 10.1562 16.1142 10.1562 15.6C10.1562 14.9104 10.4238 14.2491 10.8999 13.7615C11.3761 13.2739 12.0219 13 12.6953 13ZM17.7734 23.4H7.61719V22.1C7.61719 20.371 11.0068 19.5 12.6953 19.5C14.3838 19.5 17.7734 20.371 17.7734 22.1V23.4Z" fill="white"/>
</svg>
