<svg width="29" height="31" viewBox="0 0 29 31" fill="none" xmlns="http://www.w3.org/2000/svg">
<path id="Vector" fill-rule="evenodd" clip-rule="evenodd" d="M23.2589 2.12477C23.8401 2.66684 24.2202 3.79823 24.295 4.48062C25.1609 5.02121 26.1852 6.11125 26.2748 8.16431C27.8201 9.24401 28.9942 11.2409 27.5281 14.161C28.3793 14.9586 29.3288 17.3927 28.1078 19.3542C26.6857 21.6466 23.595 21.8061 20.5146 21.3969C21.3364 23.7085 21.6446 25.8413 20.3443 28.0258C19.0514 29.9637 17.2669 30.2783 16.6564 30.2783C14.9863 30.2783 13.8416 28.8323 13.3778 26.9062C13.209 26.3686 13.0168 25.0984 12.9419 24.7646C12.553 22.6376 11.2454 20.9361 9.02355 19.6644C8.03505 19.093 6.99108 18.6248 5.90791 18.2671H2.47381C1.70921 18.2671 0.794922 17.4887 0.794922 16.5464V5.26787C0.903522 4.20146 1.49201 3.66973 2.55893 3.66973H7.12306C9.12481 3.21186 11.1207 2.72149 13.1093 2.2001C15.0303 1.67871 15.4515 1.5059 16.7958 1.13369C19.8087 0.347912 21.9 0.780679 23.2589 2.12477ZM19.7632 2.75103C18.5613 2.75103 17.0394 3.12323 16.3643 3.34036C16.1266 3.41569 15.7098 3.53975 15.271 3.66678L14.8307 3.79528L14.408 3.9164L13.5862 4.14976C13.5862 4.14976 11.5169 4.70808 7.46207 5.65633C7.31091 5.67405 7.23019 5.68587 7.21845 5.68882V16.5892C9.43594 17.4489 11.1633 18.4916 12.3989 19.7176C14.254 21.555 14.7691 23.2152 15.0729 25.3406C15.246 26.4085 15.5263 27.2696 15.949 27.8589C16.0704 28.0355 16.2471 28.166 16.4509 28.2296C16.6666 28.2991 16.9645 28.3035 17.6 27.9579C18.2355 27.6093 19.0529 26.698 19.207 25.3406C19.3097 24.0216 18.9575 22.8784 18.4849 21.6761C18.3218 21.2665 18.1471 20.8616 17.961 20.462C17.6411 19.852 18.1224 18.8387 19.1145 19.0588C20.4441 19.4355 23.7432 19.945 25.6041 19.0588C26.6857 18.4281 26.9542 17.4105 26.4068 16.0073C26.2259 15.6856 25.9781 15.407 25.6804 15.1905C25.4309 15.0398 24.9437 14.387 25.5292 13.647C26.1104 12.7091 26.9601 10.7993 24.8101 9.60884C24.6601 9.52584 24.5348 9.40407 24.4471 9.25608C24.3593 9.10809 24.3124 8.93924 24.3112 8.76693C24.2818 8.36223 24.3464 6.86158 23.2398 6.19101C22.9757 6.04774 22.6572 5.92958 22.4767 5.58543C22.3622 5.35797 22.3256 4.80556 22.3256 4.80556C22.1744 3.87208 21.966 3.00064 19.7632 2.75103ZM5.2255 5.68291H2.79228V16.254H5.2255V5.68291Z" fill="#215D4F"/>
</svg>
