<svg xmlns="http://www.w3.org/2000/svg" xmlns:xlink="http://www.w3.org/1999/xlink" width="1080" zoomAndPan="magnify" viewBox="0 0 810 809.999993" height="1080" preserveAspectRatio="xMidYMid meet" version="1.0"><defs><clipPath id="115d203133"><path d="M 8 178 L 807 178 L 807 636.394531 L 8 636.394531 Z M 8 178 " clip-rule="nonzero"/></clipPath></defs><g clip-path="url(#115d203133)"><path fill="#ffffff" d="M 788.300781 197.066406 C 787.632812 196.34375 786.949219 195.640625 786.246094 194.953125 C 785.542969 194.265625 784.824219 193.597656 784.085938 192.945312 C 783.351562 192.296875 782.597656 191.667969 781.828125 191.054688 C 781.054688 190.445312 780.269531 189.855469 779.472656 189.28125 C 778.671875 188.710938 777.855469 188.164062 777.027344 187.632812 C 776.199219 187.105469 775.355469 186.597656 774.503906 186.113281 C 773.648438 185.628906 772.78125 185.167969 771.902344 184.726562 C 771.023438 184.285156 770.132812 183.867188 769.234375 183.472656 C 768.332031 183.082031 767.421875 182.710938 766.503906 182.363281 C 765.585938 182.015625 764.65625 181.691406 763.71875 181.390625 C 762.785156 181.09375 761.839844 180.816406 760.890625 180.566406 C 759.941406 180.316406 758.984375 180.089844 758.023438 179.886719 C 757.0625 179.6875 756.09375 179.511719 755.125 179.359375 C 754.152344 179.207031 753.175781 179.082031 752.199219 178.980469 C 751.222656 178.878906 750.242188 178.800781 749.261719 178.75 C 748.28125 178.699219 747.296875 178.675781 746.316406 178.675781 C 745.332031 178.675781 744.351562 178.699219 743.367188 178.75 C 742.386719 178.800781 741.40625 178.878906 740.429688 178.980469 C 739.453125 179.082031 738.476562 179.207031 737.507812 179.359375 C 736.535156 179.511719 735.570312 179.6875 734.605469 179.886719 C 733.644531 180.089844 732.6875 180.316406 731.738281 180.566406 C 730.789062 180.816406 729.84375 181.09375 728.910156 181.390625 C 727.972656 181.691406 727.046875 182.015625 726.125 182.363281 C 725.207031 182.710938 724.296875 183.082031 723.398438 183.472656 C 722.496094 183.867188 721.605469 184.285156 720.726562 184.726562 C 719.847656 185.167969 718.984375 185.628906 718.128906 186.113281 C 717.273438 186.597656 716.429688 187.105469 715.601562 187.632812 C 714.773438 188.164062 713.960938 188.710938 713.160156 189.28125 C 712.359375 189.855469 711.574219 190.445312 710.804688 191.054688 C 710.035156 191.667969 709.28125 192.296875 708.542969 192.945312 C 707.804688 193.597656 707.085938 194.265625 706.382812 194.953125 C 705.679688 195.640625 704.996094 196.34375 704.328125 197.066406 L 407.855469 494.140625 L 109.667969 197.066406 C 108.292969 195.691406 106.855469 194.390625 105.351562 193.15625 C 103.847656 191.921875 102.289062 190.765625 100.671875 189.6875 C 99.054688 188.605469 97.390625 187.609375 95.671875 186.691406 C 93.957031 185.777344 92.203125 184.945312 90.40625 184.203125 C 88.609375 183.460938 86.78125 182.804688 84.921875 182.242188 C 83.058594 181.675781 81.175781 181.207031 79.269531 180.828125 C 77.363281 180.449219 75.441406 180.164062 73.507812 179.972656 C 71.570312 179.78125 69.632812 179.6875 67.6875 179.6875 C 65.742188 179.6875 63.804688 179.785156 61.871094 179.976562 C 59.933594 180.167969 58.011719 180.453125 56.105469 180.832031 C 54.199219 181.210938 52.316406 181.683594 50.457031 182.246094 C 48.59375 182.8125 46.765625 183.464844 44.972656 184.210938 C 43.175781 184.953125 41.417969 185.785156 39.703125 186.703125 C 37.988281 187.617188 36.324219 188.617188 34.707031 189.699219 C 33.089844 190.777344 31.53125 191.933594 30.027344 193.167969 C 28.527344 194.402344 27.085938 195.707031 25.710938 197.082031 C 24.335938 198.457031 23.035156 199.894531 21.800781 201.398438 C 20.566406 202.902344 19.410156 204.460938 18.328125 206.078125 C 17.25 207.695312 16.25 209.359375 15.335938 211.074219 C 14.417969 212.789062 13.585938 214.546875 12.84375 216.34375 C 12.097656 218.136719 11.445312 219.96875 10.878906 221.828125 C 10.316406 223.6875 9.84375 225.570312 9.464844 227.480469 C 9.082031 229.386719 8.796875 231.308594 8.609375 233.242188 C 8.417969 235.175781 8.320312 237.117188 8.320312 239.0625 C 8.320312 241.007812 8.414062 242.945312 8.605469 244.878906 C 8.796875 246.816406 9.082031 248.738281 9.460938 250.644531 C 9.839844 252.550781 10.308594 254.433594 10.875 256.296875 C 11.4375 258.15625 12.089844 259.984375 12.835938 261.78125 C 13.578125 263.578125 14.410156 265.335938 15.324219 267.050781 C 16.242188 268.765625 17.238281 270.429688 18.316406 272.046875 C 19.398438 273.664062 20.554688 275.226562 21.785156 276.730469 C 23.019531 278.234375 24.324219 279.671875 25.699219 281.046875 L 365.011719 620.398438 C 365.679688 621.121094 366.363281 621.824219 367.066406 622.511719 C 367.769531 623.199219 368.488281 623.867188 369.226562 624.515625 C 369.964844 625.167969 370.71875 625.796875 371.488281 626.410156 C 372.257812 627.019531 373.042969 627.609375 373.84375 628.179688 C 374.644531 628.75 375.457031 629.300781 376.285156 629.828125 C 377.117188 630.359375 377.957031 630.863281 378.8125 631.351562 C 379.667969 631.835938 380.535156 632.296875 381.414062 632.738281 C 382.292969 633.179688 383.179688 633.59375 384.082031 633.988281 C 384.980469 634.382812 385.890625 634.753906 386.808594 635.101562 C 387.730469 635.449219 388.65625 635.773438 389.59375 636.074219 C 390.53125 636.371094 391.472656 636.648438 392.421875 636.898438 C 393.375 637.148438 394.328125 637.375 395.292969 637.578125 C 396.253906 637.777344 397.21875 637.953125 398.191406 638.105469 C 399.164062 638.257812 400.136719 638.382812 401.113281 638.484375 C 402.089844 638.585938 403.070312 638.664062 404.054688 638.714844 C 405.035156 638.765625 406.015625 638.789062 407 638.789062 C 407.980469 638.789062 408.964844 638.765625 409.945312 638.714844 C 410.925781 638.664062 411.90625 638.585938 412.882812 638.484375 C 413.863281 638.382812 414.835938 638.257812 415.808594 638.105469 C 416.777344 637.953125 417.746094 637.777344 418.707031 637.578125 C 419.667969 637.375 420.625 637.148438 421.574219 636.898438 C 422.527344 636.648438 423.46875 636.371094 424.40625 636.074219 C 425.339844 635.773438 426.269531 635.449219 427.1875 635.101562 C 428.109375 634.753906 429.015625 634.382812 429.917969 633.988281 C 430.816406 633.59375 431.707031 633.179688 432.585938 632.738281 C 433.464844 632.296875 434.332031 631.835938 435.1875 631.351562 C 436.042969 630.863281 436.882812 630.359375 437.710938 629.828125 C 438.539062 629.300781 439.355469 628.75 440.15625 628.179688 C 440.957031 627.609375 441.742188 627.019531 442.511719 626.410156 C 443.28125 625.796875 444.035156 625.167969 444.769531 624.515625 C 445.507812 623.867188 446.230469 623.199219 446.929688 622.511719 C 447.632812 621.824219 448.320312 621.121094 448.984375 620.398438 L 788.300781 281.046875 C 789.023438 280.382812 789.726562 279.695312 790.414062 278.992188 C 791.101562 278.289062 791.769531 277.570312 792.421875 276.832031 C 793.070312 276.09375 793.699219 275.34375 794.3125 274.570312 C 794.921875 273.800781 795.511719 273.015625 796.082031 272.214844 C 796.65625 271.417969 797.203125 270.601562 797.730469 269.773438 C 798.261719 268.945312 798.765625 268.101562 799.253906 267.246094 C 799.738281 266.390625 800.199219 265.527344 800.640625 264.648438 C 801.082031 263.769531 801.496094 262.878906 801.890625 261.976562 C 802.285156 261.078125 802.65625 260.167969 803.003906 259.25 C 803.351562 258.328125 803.675781 257.402344 803.976562 256.464844 C 804.273438 255.527344 804.550781 254.585938 804.800781 253.636719 C 805.050781 252.683594 805.277344 251.726562 805.476562 250.765625 C 805.679688 249.804688 805.855469 248.835938 806.007812 247.867188 C 806.160156 246.894531 806.285156 245.921875 806.386719 244.941406 C 806.488281 243.964844 806.5625 242.984375 806.613281 242.003906 C 806.664062 241.023438 806.691406 240.039062 806.691406 239.058594 C 806.691406 238.074219 806.664062 237.09375 806.613281 236.109375 C 806.5625 235.128906 806.488281 234.148438 806.386719 233.171875 C 806.285156 232.195312 806.160156 231.21875 806.007812 230.25 C 805.855469 229.277344 805.679688 228.308594 805.476562 227.347656 C 805.277344 226.386719 805.050781 225.429688 804.800781 224.480469 C 804.550781 223.527344 804.273438 222.585938 803.976562 221.648438 C 803.675781 220.714844 803.351562 219.785156 803.003906 218.867188 C 802.65625 217.945312 802.285156 217.035156 801.890625 216.136719 C 801.496094 215.234375 801.082031 214.347656 800.640625 213.46875 C 800.199219 212.589844 799.738281 211.722656 799.253906 210.867188 C 798.765625 210.011719 798.261719 209.171875 797.730469 208.339844 C 797.203125 207.511719 796.652344 206.699219 796.082031 205.898438 C 795.511719 205.097656 794.921875 204.3125 794.3125 203.542969 C 793.699219 202.773438 793.070312 202.019531 792.421875 201.28125 C 791.769531 200.542969 791.101562 199.824219 790.414062 199.121094 C 789.726562 198.417969 789.023438 197.734375 788.300781 197.066406 Z M 788.300781 197.066406 " fill-opacity="1" fill-rule="nonzero"/></g></svg>