<svg width="28" height="28" viewBox="0 0 28 28" fill="none" xmlns="http://www.w3.org/2000/svg">
<path id="Vector" d="M25.1136 20.0909V8.78977H7.53409V20.0909H25.1136ZM25.1136 2.51136C25.7797 2.51136 26.4185 2.77595 26.8894 3.24693C27.3604 3.7179 27.625 4.35667 27.625 5.02273V20.0909C27.625 20.757 27.3604 21.3957 26.8894 21.8667C26.4185 22.3377 25.7797 22.6023 25.1136 22.6023H7.53409C6.86804 22.6023 6.22926 22.3377 5.75829 21.8667C5.28732 21.3957 5.02273 20.757 5.02273 20.0909V5.02273C5.02273 4.35667 5.28732 3.7179 5.75829 3.24693C6.22926 2.77595 6.86804 2.51136 7.53409 2.51136H8.78977V0H11.3011V2.51136H21.3466V0H23.858V2.51136H25.1136ZM20.7564 12.6322L15.1812 18.2074L11.816 14.8422L13.147 13.5111L15.1812 15.5453L19.4254 11.3011L20.7564 12.6322ZM2.51136 25.1136H20.0909V27.625H2.51136C1.84531 27.625 1.20653 27.3604 0.735561 26.8894C0.264589 26.4185 0 25.7797 0 25.1136V10.0455H2.51136V25.1136Z" fill="white"/>
</svg>
