<svg width="68" height="43" viewBox="0 0 68 43" fill="none" xmlns="http://www.w3.org/2000/svg">
<g id="Group 18">
<path id="Rectangle 59" d="M0.636695 11.3304L34.7232 0L67.1388 11.3304C68.1223 12.4779 68.0514 13.1205 67.1388 14.268L33.5536 26.8573L0.636695 14.268C-0.100874 13.0838 -0.316754 12.4384 0.636695 11.3304Z" fill="#215D4F"/>
<path id="Rectangle 60" d="M7.77266 16.9617L9.89297 17.6685L9.64353 34.655C10.6407 35.7845 11.0008 36.4465 11.3065 37.6738V41.6988C8.83282 42.7589 7.77266 42.4055 5.65234 41.6988V37.6737C6.03901 36.549 6.2211 35.924 7.31534 34.655L7.77266 16.9617Z" fill="#CB8461"/>
<path id="Rectangle 62" d="M16.2564 22.6169L33.5722 29.6847L51.5949 22.9703C54.0156 25.6228 54.8942 29.218 54.1746 33.4177C43.2484 34.5229 40.2388 37.249 33.9579 42.4066C25.6288 35.5245 21.2151 33.9185 13.6104 33.4177C13.0216 29.9548 14.0319 25.7851 16.2564 22.6169Z" fill="#CB8461"/>
<path id="Rectangle 63" d="M7.77302 16.962L28.451 9.5144L29.9233 10.6615L9.89333 17.6688L7.77302 16.962Z" fill="#CB8461"/>
<ellipse id="Ellipse 23" cx="29.6828" cy="9.54092" rx="2.12032" ry="1.76693" fill="#CB8461"/>
</g>
</svg>
