<svg width="23" height="25" viewBox="0 0 23 25" fill="none" xmlns="http://www.w3.org/2000/svg">
<path id="Vector" d="M12.8879 11.5479C13.2019 11.6699 13.5075 11.8042 13.805 11.9507C14.1024 12.0972 14.3915 12.264 14.6724 12.4512C14.4907 12.6465 14.3254 12.8499 14.1767 13.0615C14.028 13.2731 13.8917 13.501 13.7678 13.7451C13.1316 13.3382 12.4542 13.029 11.7355 12.8174C11.0167 12.6058 10.2773 12.5 9.51724 12.5C8.79023 12.5 8.088 12.5936 7.41056 12.7808C6.73312 12.9679 6.10111 13.2284 5.51455 13.562C4.92798 13.8957 4.39511 14.3026 3.91595 14.7827C3.43678 15.2629 3.02371 15.7918 2.67672 16.3696C2.32974 16.9474 2.06124 17.57 1.87123 18.2373C1.68121 18.9046 1.58621 19.5964 1.58621 20.3125H0C0 19.3359 0.144576 18.396 0.433728 17.4927C0.722881 16.5894 1.14009 15.7552 1.68534 14.9902C2.2306 14.2253 2.875 13.5457 3.61853 12.9517C4.36207 12.3576 5.20474 11.8896 6.14655 11.5479C5.213 10.9456 4.48599 10.1888 3.96552 9.27734C3.44504 8.36589 3.18068 7.35677 3.17241 6.25C3.17241 5.38737 3.33764 4.57764 3.6681 3.8208C3.99856 3.06397 4.44881 2.40072 5.01886 1.83105C5.5889 1.26139 6.26221 0.813802 7.03879 0.488281C7.81537 0.16276 8.64152 0 9.51724 0C10.393 0 11.215 0.16276 11.9833 0.488281C12.7516 0.813802 13.4249 1.25732 14.0032 1.81885C14.5815 2.38037 15.0359 3.04362 15.3664 3.80859C15.6968 4.57357 15.8621 5.38737 15.8621 6.25C15.8621 6.78711 15.796 7.31201 15.6638 7.82471C15.5316 8.3374 15.3333 8.82162 15.069 9.27734C14.8046 9.73307 14.4948 10.1522 14.1395 10.5347C13.7843 10.9172 13.3671 11.2549 12.8879 11.5479ZM4.75862 6.25C4.75862 6.90104 4.88254 7.50732 5.13039 8.06885C5.37823 8.63037 5.71695 9.12679 6.14655 9.55811C6.57615 9.98942 7.0801 10.3271 7.65841 10.5713C8.23671 10.8154 8.85632 10.9375 9.51724 10.9375C10.1699 10.9375 10.7854 10.8154 11.3637 10.5713C11.942 10.3271 12.4459 9.99349 12.8755 9.57031C13.3051 9.14714 13.648 8.65072 13.9041 8.08106C14.1602 7.51139 14.2841 6.90104 14.2759 6.25C14.2759 5.6071 14.1519 5.00081 13.9041 4.43115C13.6562 3.86149 13.3175 3.36507 12.8879 2.94189C12.4583 2.51872 11.9503 2.18099 11.3637 1.92871C10.7771 1.67643 10.1616 1.55436 9.51724 1.5625C8.85632 1.5625 8.24084 1.68457 7.6708 1.92871C7.10075 2.17285 6.5968 2.50651 6.15894 2.92969C5.72108 3.35286 5.37823 3.85335 5.13039 4.43115C4.88254 5.00895 4.75862 5.61523 4.75862 6.25ZM23 16.4063C23 16.8294 22.9339 17.2404 22.8017 17.6392C22.6695 18.0379 22.4713 18.4082 22.2069 18.75V25L19.0345 23.4375L15.8621 25V18.75C15.606 18.4082 15.4118 18.0379 15.2796 17.6392C15.1474 17.2404 15.0772 16.8294 15.069 16.4063C15.069 15.8691 15.1722 15.3646 15.3788 14.8926C15.5853 14.4206 15.8662 14.0096 16.2214 13.6597C16.5767 13.3097 16.998 13.029 17.4855 12.8174C17.9729 12.6058 18.4892 12.5 19.0345 12.5C19.5797 12.5 20.092 12.6017 20.5711 12.8052C21.0503 13.0086 21.4675 13.2894 21.8227 13.6475C22.178 14.0055 22.463 14.4206 22.6778 14.8926C22.8926 15.3646 23 15.8691 23 16.4063ZM19.0345 14.0625C18.704 14.0625 18.3942 14.1235 18.1051 14.2456C17.8159 14.3677 17.5639 14.5345 17.3491 14.7461C17.1343 14.9577 16.965 15.2059 16.8411 15.4907C16.7171 15.7756 16.6552 16.0807 16.6552 16.4063C16.6552 16.7318 16.7171 17.0369 16.8411 17.3218C16.965 17.6066 17.1343 17.8548 17.3491 18.0664C17.5639 18.278 17.8159 18.4448 18.1051 18.5669C18.3942 18.689 18.704 18.75 19.0345 18.75C19.3649 18.75 19.6747 18.689 19.9639 18.5669C20.2531 18.4448 20.505 18.278 20.7198 18.0664C20.9346 17.8548 21.104 17.6066 21.2279 17.3218C21.3518 17.0369 21.4138 16.7318 21.4138 16.4063C21.4138 16.0807 21.3518 15.7756 21.2279 15.4907C21.104 15.2059 20.9346 14.9577 20.7198 14.7461C20.505 14.5345 20.2531 14.3677 19.9639 14.2456C19.6747 14.1235 19.3649 14.0625 19.0345 14.0625ZM20.6207 22.4731V19.9829C20.125 20.2026 19.5963 20.3125 19.0345 20.3125C18.4727 20.3125 17.944 20.2026 17.4483 19.9829V22.4731C17.7126 22.3429 17.977 22.2168 18.2414 22.0947C18.5057 21.9727 18.7701 21.8384 19.0345 21.6919C19.2989 21.8302 19.5632 21.9605 19.8276 22.0825C20.092 22.2046 20.3563 22.3348 20.6207 22.4731Z" fill="white"/>
</svg>
