<svg width="29" height="27" viewBox="0 0 29 27" fill="none" xmlns="http://www.w3.org/2000/svg">
<g id="Group 1000002204">
<path id="Vector" d="M28.0069 13.8139C28.0069 11.9762 26.5191 11.0135 24.5064 11.0135H18.643C19.0806 9.43828 19.2556 7.95056 19.2556 6.63786C19.2556 1.56212 17.8554 0.511963 16.6302 0.511963C15.8426 0.511963 15.23 0.599476 14.4424 1.03704C14.1798 1.21207 14.0923 1.38709 14.0048 1.64963L13.1297 6.37533C12.167 8.82569 9.80419 11.0135 7.87891 12.5012V25.0156C8.57901 25.0156 9.27911 25.3656 10.1542 25.8032C11.1169 26.2408 12.0795 26.7658 13.1297 26.7658H21.4434C23.1937 26.7658 24.5064 25.3656 24.5064 24.1404C24.5064 23.8779 24.5064 23.7029 24.4188 23.5278C25.469 23.0903 26.2566 22.2152 26.2566 21.0775C26.2566 20.5524 26.1691 20.1148 25.9941 19.6773C26.6942 19.2397 27.3068 18.4521 27.3068 17.577C27.3068 17.0519 27.0442 16.5268 26.7817 16.0893C27.4818 15.5642 28.0069 14.6891 28.0069 13.8139ZM26.1691 13.8139C26.1691 14.9516 25.0314 15.0391 24.8564 15.5642C24.6814 16.1768 25.5565 16.3518 25.5565 17.4019C25.5565 18.4521 24.2438 18.4521 24.0688 19.0647C23.8938 19.7648 24.5064 19.9398 24.5064 20.99V21.165C24.3313 22.0401 23.0186 22.1276 22.7561 22.4777C22.4936 22.9153 22.7561 23.0903 22.7561 24.0529C22.7561 24.578 22.1435 24.9281 21.4434 24.9281H13.1297C12.4296 24.9281 11.7295 24.578 10.8543 24.1404C10.1542 23.7904 9.45414 23.4403 8.75403 23.2653V14.0765C10.9419 12.4137 13.7423 9.96335 14.7924 6.9004V6.72538L15.58 2.34973C15.9301 2.26222 16.1926 2.26222 16.6302 2.26222C16.8052 2.26222 17.5053 3.31238 17.5053 6.63786C17.5053 7.95056 17.2428 9.35076 16.8052 11.0135H16.6302C16.1051 11.0135 15.7551 11.3636 15.7551 11.8886C15.7551 12.4137 16.1051 12.7638 16.6302 12.7638H24.5064C25.3815 12.7638 26.1691 13.2013 26.1691 13.8139Z" fill="#215D4F"/>
<path id="Vector_2" d="M7.00103 26.7649H1.75026C0.787616 26.7649 0 25.9773 0 25.0146V12.7628C0 11.8002 0.787616 11.0126 1.75026 11.0126H7.00103C7.96367 11.0126 8.75129 11.8002 8.75129 12.7628V25.0146C8.75129 25.9773 7.96367 26.7649 7.00103 26.7649ZM1.75026 12.7628V25.0146H7.00103V12.7628H1.75026Z" fill="#215D4F"/>
</g>
</svg>
