<svg xmlns="http://www.w3.org/2000/svg" xmlns:xlink="http://www.w3.org/1999/xlink" width="1080" zoomAndPan="magnify" viewBox="0 0 810 809.999993" height="1080" preserveAspectRatio="xMidYMid meet" version="1.0"><defs><clipPath id="05f7165f6a"><path d="M 0 331 L 804.75 331 L 804.75 483 L 0 483 Z M 0 331 " clip-rule="nonzero"/></clipPath><clipPath id="9b1564e171"><path d="M 0 81 L 804.75 81 L 804.75 233 L 0 233 Z M 0 81 " clip-rule="nonzero"/></clipPath><clipPath id="4d8f532b98"><path d="M 0.289062 582 L 804.460938 582 L 804.460938 733.460938 L 0.289062 733.460938 Z M 0.289062 582 " clip-rule="nonzero"/></clipPath></defs><g clip-path="url(#05f7165f6a)"><path fill="#000000" d="M 728.710938 482.9375 L 76.039062 482.9375 C 34.238281 482.9375 0.289062 449.039062 0.289062 407.230469 C 0.289062 365.398438 34.238281 331.523438 76.039062 331.523438 L 728.710938 331.523438 C 770.542969 331.523438 804.460938 365.398438 804.460938 407.230469 C 804.460938 449.039062 770.542969 482.9375 728.710938 482.9375 " fill-opacity="1" fill-rule="nonzero"/></g><g clip-path="url(#9b1564e171)"><path fill="#000000" d="M 728.710938 232.414062 L 76.039062 232.414062 C 34.238281 232.414062 0.289062 198.515625 0.289062 156.707031 C 0.289062 114.875 34.238281 80.996094 76.039062 80.996094 L 728.710938 80.996094 C 770.542969 80.996094 804.460938 114.875 804.460938 156.707031 C 804.460938 198.515625 770.542969 232.414062 728.710938 232.414062 " fill-opacity="1" fill-rule="nonzero"/></g><g clip-path="url(#4d8f532b98)"><path fill="#000000" d="M 728.710938 733.460938 L 76.039062 733.460938 C 34.238281 733.460938 0.289062 699.5625 0.289062 657.753906 C 0.289062 615.925781 34.238281 582.046875 76.039062 582.046875 L 728.710938 582.046875 C 770.542969 582.046875 804.460938 615.925781 804.460938 657.753906 C 804.460938 699.5625 770.542969 733.460938 728.710938 733.460938 " fill-opacity="1" fill-rule="nonzero"/></g></svg>