<svg xmlns="http://www.w3.org/2000/svg" xmlns:xlink="http://www.w3.org/1999/xlink" width="1080" zoomAndPan="magnify" viewBox="0 0 810 809.999993" height="1080" preserveAspectRatio="xMidYMid meet" version="1.0"><path fill="#000000" d="M 0 405 C 0 628.683594 181.332031 810 405 810 C 628.667969 810 810 628.683594 810 405 C 810 181.316406 628.683594 0 405 0 C 181.316406 0 0 181.332031 0 405 Z M 360.972656 163.820312 L 553.472656 356.320312 C 566.792969 369.640625 573.4375 387.121094 573.4375 404.605469 C 573.4375 422.085938 566.777344 439.582031 553.472656 452.886719 L 361.730469 644.628906 C 344.125 662.238281 315.582031 662.238281 297.976562 644.628906 C 280.367188 627.023438 280.367188 598.464844 297.976562 580.875 L 474.246094 404.605469 L 297.230469 227.589844 C 279.625 209.984375 279.625 181.425781 297.230469 163.835938 C 314.839844 146.226562 343.378906 146.226562 360.988281 163.835938 Z M 360.972656 163.820312 " fill-opacity="1" fill-rule="nonzero"/></svg>