<svg width="26" height="26" viewBox="0 0 26 26" fill="none" xmlns="http://www.w3.org/2000/svg">
<path id="Vector" d="M18.2609 20.1453V22.6641C18.2609 22.832 18.3239 22.9789 18.4498 23.1048C18.5758 23.2308 18.7227 23.2937 18.8906 23.2937C19.0585 23.2937 19.2055 23.2308 19.3314 23.1048C19.4573 22.9789 19.5203 22.832 19.5203 22.6641V20.1453H22.0391C22.207 20.1453 22.3539 20.0823 22.4798 19.9564C22.6058 19.8305 22.6687 19.6835 22.6687 19.5156C22.6687 19.3477 22.6058 19.2008 22.4798 19.0748C22.3539 18.9489 22.207 18.8859 22.0391 18.8859H19.5203V16.3672C19.5203 16.1993 19.4573 16.0523 19.3314 15.9264C19.2055 15.8005 19.0585 15.7375 18.8906 15.7375C18.7227 15.7375 18.5758 15.8005 18.4498 15.9264C18.3239 16.0523 18.2609 16.1993 18.2609 16.3672V18.8859H15.7422C15.5743 18.8859 15.4273 18.9489 15.3014 19.0748C15.1755 19.2008 15.1125 19.3477 15.1125 19.5156C15.1125 19.6835 15.1755 19.8305 15.3014 19.9564C15.4273 20.0823 15.5743 20.1453 15.7422 20.1453H18.2609ZM18.8906 25.8125C17.1485 25.8125 15.6633 25.1983 14.435 23.97C13.2066 22.7417 12.5929 21.2569 12.5938 19.5156C12.5938 17.7735 13.2079 16.2883 14.4362 15.06C15.6645 13.8316 17.1493 13.2179 18.8906 13.2188C20.6328 13.2188 22.118 13.8329 23.3463 15.0612C24.5746 16.2895 25.1883 17.7743 25.1875 19.5156C25.1875 21.2578 24.5733 22.743 23.345 23.9713C22.1167 25.1996 20.6319 25.8133 18.8906 25.8125ZM6.29688 8.18125H16.3719C16.7287 8.18125 17.028 8.06035 17.2698 7.81855C17.5116 7.57675 17.6321 7.27786 17.6313 6.92188C17.6313 6.56505 17.5104 6.26574 17.2686 6.02394C17.0268 5.78214 16.7279 5.66166 16.3719 5.6625H6.29688C5.94005 5.6625 5.64074 5.7834 5.39894 6.0252C5.15714 6.267 5.03666 6.56589 5.0375 6.92188C5.0375 7.2787 5.1584 7.57801 5.4002 7.81981C5.642 8.06161 5.94089 8.18209 6.29688 8.18125ZM10.9251 23.2937H2.51875C1.8261 23.2937 1.23293 23.0469 0.739255 22.5532C0.24558 22.0596 -0.000837445 21.4668 2.13816e-06 20.775V3.14375C2.13816e-06 2.4511 0.24684 1.85793 0.740515 1.36426C1.23419 0.87058 1.82694 0.624163 2.51875 0.625002H20.15C20.8427 0.625002 21.4358 0.87184 21.9295 1.36551C22.4232 1.85919 22.6696 2.45194 22.6687 3.14375V11.5816C22.0601 11.2877 21.4459 11.0673 20.8263 10.9204C20.2067 10.7735 19.5615 10.7 18.8906 10.7C18.6597 10.7 18.4444 10.705 18.2446 10.7151C18.0447 10.7252 17.8403 10.7516 17.6313 10.7945C17.4423 10.7525 17.2324 10.7264 17.0016 10.7164C16.7707 10.7063 16.5608 10.7008 16.3719 10.7H6.29688C5.94005 10.7 5.64074 10.8209 5.39894 11.0627C5.15714 11.3045 5.03666 11.6034 5.0375 11.9594C5.0375 12.3162 5.1584 12.6155 5.4002 12.8573C5.642 13.0991 5.94089 13.2196 6.29688 13.2188H12.7512C12.3734 13.5756 12.0321 13.9639 11.7273 14.3837C11.4225 14.8035 11.1551 15.2547 10.9251 15.7375H6.29688C5.94005 15.7375 5.64074 15.8584 5.39894 16.1002C5.15714 16.342 5.03666 16.6409 5.0375 16.9969C5.0375 17.3537 5.1584 17.653 5.4002 17.8948C5.642 18.1366 5.94089 18.2571 6.29688 18.2563H10.1695C10.1275 18.4661 10.101 18.671 10.0901 18.8708C10.0792 19.0706 10.0742 19.2856 10.075 19.5156C10.075 20.2083 10.138 20.8539 10.2639 21.4525C10.3898 22.0512 10.6102 22.6649 10.9251 23.2937Z" fill="white"/>
</svg>
