<svg width="23" height="22" viewBox="0 0 23 22" fill="none" xmlns="http://www.w3.org/2000/svg">
<path id="Vector" d="M21.2308 5.28H16.8077C16.8077 3.87966 16.2485 2.53667 15.2531 1.54648C14.2577 0.556284 12.9077 0 11.5 0C10.0923 0 8.74228 0.556284 7.74689 1.54648C6.75151 2.53667 6.19231 3.87966 6.19231 5.28H1.76923C1.3 5.28 0.849991 5.46543 0.518196 5.79549C0.1864 6.12556 0 6.57322 0 7.04V20.24C0 20.7068 0.1864 21.1544 0.518196 21.4845C0.849991 21.8146 1.3 22 1.76923 22H21.2308C21.7 22 22.15 21.8146 22.4818 21.4845C22.8136 21.1544 23 20.7068 23 20.24V7.04C23 6.57322 22.8136 6.12556 22.4818 5.79549C22.15 5.46543 21.7 5.28 21.2308 5.28ZM11.5 1.76C12.4385 1.76 13.3385 2.13086 14.0021 2.79098C14.6657 3.45111 15.0385 4.34644 15.0385 5.28H7.96154C7.96154 4.34644 8.33434 3.45111 8.99793 2.79098C9.66152 2.13086 10.5615 1.76 11.5 1.76Z" fill="white"/>
</svg>
