<svg width="32" height="32" viewBox="0 0 32 32" fill="none" xmlns="http://www.w3.org/2000/svg">
<path id="Vector" d="M16.4289 0C7.83342 0 0.857422 6.976 0.857422 15.5714C0.857422 24.1669 7.83342 31.1429 16.4289 31.1429C25.0243 31.1429 32.0003 24.1669 32.0003 15.5714C32.0003 6.976 25.0243 0 16.4289 0ZM23.654 10.5886C23.4204 13.0489 22.4083 19.0283 21.8944 21.7844C21.6764 22.9523 21.2404 23.3416 20.8356 23.3883C19.9324 23.4661 19.2473 22.7966 18.3753 22.2204C17.005 21.3173 16.2264 20.7567 14.9029 19.8847C13.3613 18.8726 14.3579 18.312 15.2454 17.4089C15.479 17.1753 19.4653 13.5471 19.5431 13.2201C19.554 13.1706 19.5525 13.1192 19.5389 13.0704C19.5254 13.0215 19.5001 12.9767 19.4653 12.9399C19.3719 12.862 19.2473 12.8931 19.1383 12.9087C18.9981 12.9399 16.8181 14.388 12.5671 17.2531C11.9443 17.6736 11.3837 17.8916 10.8854 17.876C10.3249 17.8604 9.26599 17.5646 8.47185 17.2999C7.49085 16.9884 6.72785 16.8171 6.79014 16.2721C6.82128 15.9919 7.21057 15.7116 7.94242 15.4157C12.4893 13.4381 15.5101 12.1301 17.0206 11.5073C21.3494 9.701 22.237 9.38957 22.8287 9.38957C22.9533 9.38957 23.2491 9.42071 23.436 9.57643C23.5917 9.701 23.6384 9.87229 23.654 9.99686C23.6384 10.0903 23.6696 10.3706 23.654 10.5886Z" fill="white"/>
</svg>
