<svg width="268" height="171" viewBox="0 0 268 171" fill="none" xmlns="http://www.w3.org/2000/svg">
<path d="M67.5781 136.49L67.819 49.8443C67.8259 48.0906 68.53 46.4112 69.7768 45.1746C71.0237 43.938 72.7115 43.2451 74.47 43.248L140.084 43.4294C141.843 43.4363 143.527 44.1385 144.767 45.382C146.007 46.6254 146.701 48.3087 146.698 50.0624L146.457 136.708C146.451 138.461 145.747 140.141 144.5 141.377C143.253 142.614 141.565 143.307 139.807 143.304L74.1923 143.123C72.4339 143.116 70.7499 142.414 69.51 141.17C68.27 139.927 67.5752 138.243 67.5781 136.49Z" fill="#E6E6E6"/>
<path d="M72.6836 110.333L72.8385 54.6295C72.8449 52.9871 73.5043 51.4143 74.672 50.2562C75.8398 49.0981 77.4205 48.4492 79.0673 48.4519L135.457 48.6078C137.104 48.6142 138.681 49.2718 139.843 50.4364C141.004 51.6009 141.655 53.1774 141.652 54.8198L141.438 131.922C141.431 133.565 140.772 135.138 139.604 136.296C138.436 137.454 136.855 138.103 135.208 138.1L100.276 138.003C92.9404 137.975 85.9155 135.046 80.7427 129.858C75.5699 124.671 72.6716 117.649 72.6836 110.333Z" fill="white"/>
<path d="M129.12 91.9363H85.1499C84.4502 91.9363 83.7792 91.6591 83.2844 91.1656C82.7897 90.6722 82.5117 90.003 82.5117 89.3052C82.5117 88.6074 82.7897 87.9382 83.2844 87.4448C83.7792 86.9514 84.4502 86.6742 85.1499 86.6742H129.12C129.819 86.6742 130.49 86.9514 130.985 87.4448C131.48 87.9382 131.758 88.6074 131.758 89.3052C131.758 90.003 131.48 90.6722 130.985 91.1656C130.49 91.6591 129.819 91.9363 129.12 91.9363Z" fill="#CB8461"/>
<path d="M94.8232 77.5075H85.1499C84.4502 77.5075 83.7792 77.2303 83.2844 76.7369C82.7897 76.2435 82.5117 75.5743 82.5117 74.8765C82.5117 74.1787 82.7897 73.5095 83.2844 73.016C83.7792 72.5226 84.4502 72.2454 85.1499 72.2454H94.8232C95.5229 72.2454 96.1939 72.5226 96.6887 73.016C97.1835 73.5095 97.4614 74.1787 97.4614 74.8765C97.4614 75.5743 97.1835 76.2435 96.6887 76.7369C96.1939 77.2303 95.5229 77.5075 94.8232 77.5075Z" fill="#CB8461"/>
<path d="M129.12 115.07H85.1499C84.4502 115.07 83.7792 114.792 83.2844 114.299C82.7897 113.806 82.5117 113.136 82.5117 112.439C82.5117 111.741 82.7897 111.072 83.2844 110.578C83.7792 110.085 84.4502 109.808 85.1499 109.808H129.12C129.819 109.808 130.49 110.085 130.985 110.578C131.48 111.072 131.758 111.741 131.758 112.439C131.758 113.136 131.48 113.806 130.985 114.299C130.49 114.792 129.819 115.07 129.12 115.07Z" fill="#CB8461"/>
<path d="M129.12 103.503H85.1499C84.4502 103.503 83.7792 103.226 83.2844 102.732C82.7897 102.239 82.5117 101.57 82.5117 100.872C82.5117 100.174 82.7897 99.5049 83.2844 99.0115C83.7792 98.5181 84.4502 98.2409 85.1499 98.2409H129.12C129.819 98.2409 130.49 98.5181 130.985 99.0115C131.48 99.5049 131.758 100.174 131.758 100.872C131.758 101.57 131.48 102.239 130.985 102.732C130.49 103.226 129.819 103.503 129.12 103.503Z" fill="#CB8461"/>
<path d="M10.4973 171C16.2948 171 20.9946 166.313 20.9946 160.531C20.9946 154.749 16.2948 150.062 10.4973 150.062C4.69981 150.062 0 154.749 0 160.531C0 166.313 4.69981 171 10.4973 171Z" fill="#F0481B"/>
<path d="M9.06344 165.98C8.88216 165.98 8.70338 165.938 8.54126 165.857C8.37913 165.776 8.23812 165.658 8.12939 165.514L5.26556 161.706C5.17336 161.583 5.10623 161.444 5.06802 161.296C5.02982 161.148 5.02128 160.993 5.0429 160.842C5.06452 160.69 5.11587 160.545 5.19402 160.413C5.27217 160.281 5.37558 160.166 5.49834 160.074C5.62111 159.983 5.76081 159.916 5.90947 159.878C6.05814 159.84 6.21284 159.832 6.36474 159.853C6.51663 159.875 6.66274 159.926 6.79471 160.004C6.92668 160.083 7.04192 160.186 7.13385 160.308L9.00746 162.8L13.8196 155.601C13.9915 155.344 14.2586 155.166 14.5621 155.106C14.8657 155.045 15.1808 155.108 15.4383 155.279C15.6959 155.45 15.8747 155.716 15.9355 156.019C15.9964 156.322 15.9342 156.636 15.7628 156.893L10.0351 165.461C9.93149 165.616 9.79214 165.744 9.62873 165.834C9.46531 165.924 9.28261 165.974 9.09592 165.979C9.08509 165.98 9.07425 165.98 9.06344 165.98Z" fill="white"/>
<path d="M10.5917 137.592H9.83594V139.853H10.5917V137.592Z" fill="#2F2E41"/>
<path d="M10.5917 133.275H9.83594V128.957H10.5917V133.275ZM10.5917 124.64H9.83594V120.323H10.5917V124.64ZM10.5917 116.005H9.83594V111.688H10.5917V116.005ZM10.5917 107.371H9.83594V103.053H10.5917V107.371ZM10.5917 98.7357H9.83594V94.4185H10.5917V98.7357Z" fill="#2F2E41"/>
<path d="M10.5917 90.1014H9.83594V87.4634H12.4811V88.2171H10.5917V90.1014Z" fill="#2F2E41"/>
<path d="M48.1506 88.2171H43.6916V87.4634H48.1506V88.2171ZM39.2326 88.2171H34.7736V87.4634H39.2326V88.2171ZM30.3145 88.2171H25.8555V87.4634H30.3145V88.2171ZM21.3965 88.2171H16.9375V87.4634H21.3965V88.2171Z" fill="#2F2E41"/>
<path d="M54.8805 87.4634H52.6133V88.2171H54.8805V87.4634Z" fill="#2F2E41"/>
<path d="M253.682 114.849H252.926V117.11H253.682V114.849Z" fill="#2F2E41"/>
<path d="M253.682 109.9H252.926V104.95H253.682V109.9ZM253.682 100.001H252.926V95.0511H253.682V100.001Z" fill="#2F2E41"/>
<path d="M253.68 90.1014H252.925V88.2171H251.035V87.4634H253.68V90.1014Z" fill="#2F2E41"/>
<path d="M246.34 88.2171H241.642V87.4634H246.34V88.2171ZM236.945 88.2171H232.247V87.4634H236.945V88.2171ZM227.549 88.2171H222.852V87.4634H227.549V88.2171ZM218.154 88.2171H213.457V87.4634H218.154V88.2171ZM208.759 88.2171H204.061V87.4634H208.759L208.759 88.2171ZM199.364 88.2171H194.666V87.4634H199.364V88.2171ZM189.969 88.2171H185.271V87.4634H189.969V88.2171ZM180.573 88.2171H175.876V87.4634H180.573V88.2171ZM171.178 88.2171H166.48V87.4634H171.178V88.2171Z" fill="#2F2E41"/>
<path d="M161.783 87.4634H159.516V88.2171H161.783V87.4634Z" fill="#2F2E41"/>
<path d="M253.54 144.621C259.338 144.621 264.038 139.933 264.038 134.152C264.038 128.37 259.338 123.683 253.54 123.683C247.743 123.683 243.043 128.37 243.043 134.152C243.043 139.933 247.743 144.621 253.54 144.621Z" fill="#F0481B"/>
<path d="M255.607 134.152L257.672 132.092C257.945 131.819 258.098 131.449 258.097 131.063C258.097 130.677 257.943 130.308 257.67 130.035C257.396 129.762 257.025 129.609 256.639 129.608C256.252 129.608 255.881 129.761 255.607 130.033L253.542 132.092L251.477 130.033C251.203 129.761 250.832 129.608 250.445 129.608C250.058 129.609 249.687 129.762 249.414 130.035C249.14 130.308 248.987 130.677 248.986 131.063C248.986 131.449 249.139 131.819 249.412 132.092L251.477 134.152L249.412 136.211C249.275 136.346 249.167 136.507 249.093 136.684C249.019 136.861 248.981 137.05 248.98 137.242C248.98 137.434 249.018 137.623 249.091 137.8C249.165 137.978 249.272 138.139 249.408 138.274C249.544 138.41 249.705 138.517 249.883 138.59C250.061 138.663 250.251 138.701 250.443 138.701C250.635 138.7 250.826 138.662 251.003 138.588C251.18 138.515 251.341 138.407 251.477 138.271L253.542 136.211L255.607 138.271C255.742 138.407 255.903 138.515 256.081 138.588C256.258 138.662 256.448 138.7 256.64 138.701C256.833 138.701 257.023 138.663 257.201 138.59C257.378 138.517 257.539 138.41 257.675 138.274C257.811 138.139 257.919 137.978 257.992 137.8C258.066 137.623 258.103 137.434 258.103 137.242C258.103 137.05 258.064 136.861 257.991 136.684C257.917 136.507 257.808 136.346 257.672 136.211L255.607 134.152Z" fill="white"/>
<path d="M224.09 71.5118L226.357 84.9329L247.896 73.396L224.09 71.5118Z" fill="#2F2E41"/>
<path d="M221.516 154.962L217.003 154.779L215.566 137.335L222.226 137.606L221.516 154.962Z" fill="#FFB6B6"/>
<path d="M221.823 105.051C230.007 102.563 231.687 91.9231 236.182 89.6005C236.171 83.9812 236.397 66.5554 230.772 66.8872C227.64 67.072 210.187 98.9309 209.439 104.209C208.051 114.002 215.462 138.996 214.602 140.713L223.208 141.256L223.258 140.581C223.395 138.748 224.767 133.223 223.202 132.254L222.609 131.886C222.614 129.981 223.031 126.735 221.308 125.913C221.286 125.902 221.266 125.887 221.251 125.869C221.235 125.85 221.223 125.829 221.216 125.806C221.209 125.782 221.208 125.758 221.211 125.734C221.214 125.71 221.222 125.687 221.235 125.666L221.823 105.051Z" fill="#2F2E41"/>
<path d="M223.838 158.865L220.821 159.043L220.115 156.233L218.903 159.155L210.9 159.626C210.517 159.648 210.136 159.548 209.814 159.34C209.491 159.131 209.244 158.825 209.108 158.467C208.973 158.108 208.955 157.716 209.059 157.347C209.163 156.978 209.382 156.651 209.685 156.416L215.815 151.638L215.646 148.766L222.391 148.771L223.838 158.865Z" fill="#2F2E41"/>
<path d="M255.906 123.524L260.407 123.887L263.956 106.747L257.313 106.21L255.906 123.524Z" fill="#FFB6B6"/>
<path d="M254.141 80.0837C250.104 87.1586 242.882 88.8478 235.393 90.0856C232.137 85.4995 227.174 79.1057 231.951 76.1253C234.611 74.4655 257.671 61.0383 261.231 65.0148C270.525 75.3965 263.895 108.805 264.466 108.066L257.104 107.959L256.67 107.438C256.093 106.744 255.718 105.906 255.585 105.014C255.452 104.122 255.566 103.211 255.915 102.38L256.185 101.738C255.641 100.978 255.323 100.081 255.269 99.1489C255.216 98.217 255.428 97.2891 255.882 96.4727L255.975 96.3048L254.141 80.0837Z" fill="#2F2E41"/>
<path d="M255.789 117.272L262.486 118.083L261.968 120.914L267.472 126.398C267.744 126.668 267.922 127.019 267.98 127.398C268.038 127.776 267.973 128.164 267.795 128.503C267.616 128.843 267.334 129.116 266.989 129.284C266.643 129.452 266.253 129.506 265.875 129.437L257.989 128.002L257.142 124.955L256.098 127.658L253.125 127.117L255.789 117.272Z" fill="#2F2E41"/>
<path d="M238.293 23.6517H235.204C234.573 23.6517 233.951 23.8043 233.392 24.0963C232.833 24.3883 232.354 24.8111 231.995 25.3285L229.757 28.5508L224.184 29.5617C222.248 30.7541 220.789 32.5825 220.06 34.732C219.33 36.8814 219.374 39.2174 220.186 41.3376C224.129 51.6249 226.033 70.9064 222.2 79.4255C222.2 79.4255 245.455 81.5264 251.296 74.5264C257.137 67.5265 252.43 33.4498 252.43 33.4498L243.739 28.5508L241.502 25.3286C241.143 24.8112 240.663 24.3884 240.104 24.0963C239.545 23.8043 238.924 23.6517 238.293 23.6517Z" fill="#CB8461"/>
<path d="M252.705 83.8622C252.967 83.5875 253.164 83.259 253.285 82.8998C253.405 82.5406 253.445 82.1594 253.402 81.7831C253.359 81.4069 253.233 81.0446 253.034 80.722C252.835 80.3993 252.568 80.1241 252.251 79.9156L257.342 63.221L251.674 59.8293L248.528 80.7945C248.213 81.3489 248.112 81.9996 248.245 82.6233C248.378 83.247 248.736 83.8003 249.25 84.1785C249.765 84.5566 250.401 84.7333 251.038 84.675C251.675 84.6167 252.268 84.3275 252.705 83.8622Z" fill="#FFB6B6"/>
<path d="M257.72 65.1052L250.918 62.4673L251.209 59.0804L243.127 41.4378C242.728 40.5657 242.526 39.6166 242.535 38.6579C242.545 37.6992 242.766 36.7543 243.183 35.8905C243.6 35.0266 244.203 34.2649 244.948 33.6594C245.694 33.054 246.564 32.6195 247.496 32.3871C249.181 31.969 250.964 32.2347 252.453 33.1258C253.942 34.0169 255.015 35.4606 255.438 37.1402L260.75 58.3354C261.364 61.6251 260.669 64.0821 257.72 65.1052Z" fill="#CB8461"/>
<path d="M248.311 13.3826C248.311 10.3293 247.094 7.40094 244.93 5.24188C242.765 3.08282 239.828 1.86987 236.767 1.86987C233.705 1.86987 230.769 3.08282 228.604 5.24188C226.439 7.40094 225.223 10.3293 225.223 13.3826V20.5993C225.223 21.0089 225.387 21.4016 225.677 21.6912C225.967 21.9809 226.361 22.1438 226.772 22.1444H227.055C227.383 21.2093 227.582 20.2346 227.649 19.2464C228.245 20.1371 228.699 21.1148 228.994 22.1444H246.758C247.169 22.144 247.563 21.9812 247.854 21.6916C248.145 21.4021 248.309 21.0093 248.311 20.5993C249.244 18.7 249.664 16.5218 248.311 13.3826Z" fill="#2F2E41"/>
<path d="M236.299 22.0732C240.973 22.0732 244.763 18.2943 244.763 13.6328C244.763 8.97128 240.973 5.19238 236.299 5.19238C231.625 5.19238 227.836 8.97128 227.836 13.6328C227.836 18.2943 231.625 22.0732 236.299 22.0732Z" fill="#FFB8B8"/>
<path d="M227.605 13.6003C227.524 13.5072 227.464 13.3979 227.429 13.2797C227.395 13.1615 227.386 13.0373 227.403 12.9153L228.406 5.95304C228.426 5.81138 228.481 5.67689 228.566 5.56174C228.651 5.4466 228.763 5.35444 228.893 5.2936C234.01 2.90516 239.2 2.90213 244.317 5.28455C244.453 5.34873 244.569 5.44694 244.656 5.56959C244.742 5.69224 244.795 5.83513 244.809 5.98427L245.856 11.4482C245.868 11.5674 245.854 11.6876 245.816 11.8012C245.778 11.9148 245.717 12.0193 245.636 12.108C245.473 12.2865 245.246 16.2127 245.003 16.2127C245.208 13.8726 244.713 12.7529 242.924 13.8966C242.76 13.8962 242.599 13.8494 242.461 13.7617C242.323 13.6739 242.213 13.5488 242.143 13.4009L241.41 11.8357C241.363 11.7344 241.284 11.6511 241.185 11.5986C241.086 11.546 240.972 11.527 240.862 11.5444C240.751 11.5618 240.649 11.6147 240.571 11.695C240.493 11.7753 240.443 11.8788 240.429 11.9898L240.284 13.1439C240.258 13.3516 240.157 13.5426 240 13.6812C239.842 13.8198 239.64 13.8963 239.43 13.8966C236.439 15.3766 232.517 14.9783 228.256 13.8966C228.132 13.8966 228.01 13.8702 227.898 13.8191C227.786 13.7679 227.686 13.6933 227.605 13.6003Z" fill="#2F2E41"/>
<path d="M243.049 60.5605H229.178C228.703 60.56 228.248 60.3716 227.912 60.0366C227.576 59.7016 227.387 59.2475 227.387 58.7738V43.9041C227.387 43.4304 227.576 42.9762 227.912 42.6413C228.248 42.3063 228.703 42.1179 229.178 42.1174H243.049C243.524 42.1179 243.98 42.3063 244.316 42.6413C244.652 42.9762 244.84 43.4304 244.841 43.9041V58.7738C244.84 59.2475 244.652 59.7016 244.316 60.0366C243.98 60.3716 243.524 60.56 243.049 60.5605Z" fill="#3F3D56"/>
<path d="M229.57 45.3294C230.144 45.3294 230.609 44.8655 230.609 44.2933C230.609 43.721 230.144 43.2571 229.57 43.2571C228.996 43.2571 228.531 43.721 228.531 44.2933C228.531 44.8655 228.996 45.3294 229.57 45.3294Z" fill="#E6E6E6"/>
<path d="M229.569 44.9149C229.913 44.9149 230.192 44.6366 230.192 44.2932C230.192 43.9499 229.913 43.6716 229.569 43.6716C229.224 43.6716 228.945 43.9499 228.945 44.2932C228.945 44.6366 229.224 44.9149 229.569 44.9149Z" fill="#3F3D56"/>
<path d="M245.51 50.5386C245.202 50.8801 244.822 51.1501 244.398 51.3294C243.974 51.5087 243.515 51.5932 243.055 51.5767C242.595 51.5602 242.143 51.4433 241.733 51.2341C241.323 51.0249 240.964 50.7285 240.681 50.3659L228.245 53.7997L226.355 49.6544L241.393 45.7924C242.035 45.3587 242.815 45.1751 243.584 45.2763C244.353 45.3776 245.058 45.7566 245.565 46.3417C246.073 46.9267 246.348 47.6771 246.337 48.4506C246.327 49.2241 246.033 49.9671 245.51 50.5386Z" fill="#FFB8B8"/>
<path d="M229.721 53.9065L226.231 55.0173C222.436 59.016 221.094 56.1144 216.621 55.8142C215.78 55.7577 215.121 55.0688 214.664 53.767C214.041 51.9362 214.103 49.9427 214.839 48.1542L221.052 32.6265L223.652 30.5018L227.282 34.8408L224.495 46.7697L229.071 49.0958L229.721 53.9065Z" fill="#CB8461"/>
</svg>
