<svg width="33" height="33" viewBox="0 0 33 33" fill="none" xmlns="http://www.w3.org/2000/svg">
<g id="fluent:building-bank-28-regular">
<path id="Vector" d="M16.4999 10.6071C16.9688 10.6071 17.4184 10.4209 17.75 10.0893C18.0815 9.75778 18.2678 9.30812 18.2678 8.83926C18.2678 8.37039 18.0815 7.92073 17.75 7.58919C17.4184 7.25766 16.9688 7.0714 16.4999 7.0714C16.031 7.0714 15.5814 7.25766 15.2498 7.58919C14.9183 7.92073 14.732 8.37039 14.732 8.83926C14.732 9.30812 14.9183 9.75778 15.2498 10.0893C15.5814 10.4209 16.031 10.6071 16.4999 10.6071ZM17.5488 2.70479C17.245 2.48082 16.8774 2.35999 16.4999 2.35999C16.1224 2.35999 15.7548 2.48082 15.451 2.70479L4.25454 10.9607C2.88268 11.9731 3.59807 14.1511 5.30346 14.1511H5.89275V22.6863C5.19453 22.9772 4.59807 23.4684 4.17859 24.0978C3.7591 24.7272 3.53537 25.4668 3.53561 26.2232V27.991C3.53561 28.479 3.93161 28.875 4.41954 28.875H28.5802C28.8147 28.875 29.0395 28.7818 29.2053 28.6161C29.3711 28.4503 29.4642 28.2255 29.4642 27.991V26.2232C29.4642 25.467 29.2403 24.7277 28.8209 24.0985C28.4014 23.4693 27.8051 22.9783 27.107 22.6875V14.1511H27.6951C29.4017 14.1511 30.1171 11.9731 28.7441 10.9607L17.5488 2.70479ZM7.66061 22.3928V14.1511H10.607V22.3928H7.66061ZM25.3392 14.1511V22.3928H22.3927V14.1511H25.3392ZM20.6249 14.1511V22.3928H17.3838V14.1511H20.6249ZM15.616 14.1511V22.3928H12.3749V14.1511H15.616ZM5.30346 12.3832L16.4999 4.12733L27.6951 12.3832H5.30346ZM5.30346 26.2232C5.30346 25.0847 6.22746 24.1607 7.36596 24.1607H25.6338C26.7723 24.1607 27.6963 25.0847 27.6963 26.2232V27.1071H5.30346V26.2232Z" fill="#CB8461"/>
</g>
</svg>
