<svg width="906" height="300" viewBox="0 0 906 300" fill="none" xmlns="http://www.w3.org/2000/svg">
<ellipse opacity="0.5" cx="191.5" cy="434.5" rx="714.5" ry="304.5" fill="url(#paint0_linear_0_1)"/>
<ellipse opacity="0.5" cx="29.2249" cy="402.308" rx="529.375" ry="304.5" transform="rotate(16.0929 29.2249 402.308)" fill="url(#paint1_linear_0_1)"/>
<g clip-path="url(#clip0_0_1)">
<path d="M485.383 44.3142L487.459 70.896L517.55 58.3175L500.575 31.2816L485.383 44.3142Z" fill="#CB8461"/>
<path d="M484.481 52.4126C496.869 52.4126 506.911 42.3623 506.911 29.9647C506.911 17.567 496.869 7.51672 484.481 7.51672C472.093 7.51672 462.051 17.567 462.051 29.9647C462.051 42.3623 472.093 52.4126 484.481 52.4126Z" fill="#CB8461"/>
<path d="M442.517 239.261L446.316 273.356L419.729 269.67L428.41 238.175L442.517 239.261Z" fill="#CB8461"/>
<path d="M546.154 244.148L549.952 278.243L523.365 274.557L532.047 243.062L546.154 244.148Z" fill="#CB8461"/>
<path d="M482.942 141.244C482.579 141.244 453.563 142.702 434.392 143.668C425.319 144.125 418.412 151.984 419.116 161.049L425.97 249.307L445.503 249.85L445.979 178.713L484.57 180.885L482.942 141.244Z" fill="#2F2E41"/>
<path d="M568.129 140.701C568.129 140.701 573.012 178.17 569.214 181.971C565.416 185.773 446.316 178.985 446.316 178.985C446.316 178.985 472.444 141.224 477.15 140.148C481.856 139.072 556.734 135.271 556.734 135.271L568.129 140.701Z" fill="#2F2E41"/>
<path d="M413.839 93.5273C409.303 87.1789 408.9 79.691 412.937 76.8028C416.974 73.9147 423.923 76.7202 428.459 83.0715C430.306 85.5836 431.525 88.5019 432.014 91.5822L450.892 118.723L440.148 126.167L420.737 99.649C417.982 98.1891 415.617 96.09 413.839 93.5273Z" fill="#CB8461"/>
<path d="M484.299 61.1481L511.971 49.7445L564.06 130.112C564.06 130.112 527.706 138.258 515.227 139.887C502.747 141.516 488.64 135 488.64 135L484.299 61.1481Z" fill="#2C9D82"/>
<path d="M517.938 74.7237L507.9 43.3864L520.923 53.2741C520.923 53.2741 557.819 77.7103 557.819 88.0278C557.819 98.3453 569.214 129.841 569.214 129.841C569.214 129.841 581.965 140.43 577.624 150.204C573.283 159.979 583.321 158.621 584.406 165.681C585.491 172.74 568.942 182.243 568.942 182.243C568.942 182.243 564.873 142.33 551.851 142.33C538.828 142.33 517.938 74.7237 517.938 74.7237Z" fill="#3F3D56"/>
<path d="M486.243 60.3467L472.633 65.7637C472.633 65.7637 474.803 103.776 476.974 107.034C479.144 110.292 486.74 127.669 486.74 127.669V133.332C486.74 133.332 471.548 137.986 472.09 140.701C472.633 143.416 507.902 151.019 507.902 151.019C507.902 151.019 500.848 129.298 496.507 122.238C492.166 115.179 486.243 60.3467 486.243 60.3467Z" fill="#3F3D56"/>
<path d="M477.516 65.7637C477.516 65.7637 461.781 63.5916 459.068 82.0545C456.355 100.517 458.079 102.961 458.079 102.961L453.642 113.55L438.992 97.2593L424.885 106.491C424.885 106.491 450.387 147.761 460.696 146.675C471.005 145.589 486.198 115.722 486.198 115.722L477.516 65.7637Z" fill="#3F3D56"/>
<path d="M556.104 146.696L548.053 260.71L527.163 259.896C527.163 259.896 522.551 152.105 522.551 150.476C522.551 148.847 524.721 139.615 538.286 139.072C551.851 138.529 556.104 146.696 556.104 146.696Z" fill="#2F2E41"/>
<path d="M525.806 262.882C525.806 262.882 536.658 259.624 538.286 261.796C539.913 263.968 549.138 265.054 549.138 265.054L551.851 291.663C551.851 291.663 544.254 297.093 543.169 298.179C542.084 299.265 513.326 300.351 512.784 293.835C512.241 287.318 520.38 279.173 520.38 279.173L525.806 262.882Z" fill="#2F2E41"/>
<path d="M446.045 255.28C446.045 255.28 449.301 252.565 450.386 260.167C451.471 267.77 455.27 280.259 449.844 281.888C444.418 283.517 390.158 284.06 390.158 279.173V274.286L395.042 270.485L404.81 268.927C404.81 268.927 423.799 251.479 425.969 251.479C428.14 251.479 435.194 258.538 435.194 258.538L446.045 255.28Z" fill="#2F2E41"/>
<path d="M506.544 42.1421C506.544 42.1421 495.692 29.1095 491.351 30.1955C487.011 31.2816 489.724 32.9106 489.724 32.9106L478.872 20.9641C478.872 20.9641 470.19 17.7059 462.051 28.0234C462.051 28.0234 457.168 19.335 462.051 14.4478C466.935 9.56051 468.562 10.1035 469.648 7.38841C470.733 4.67328 478.329 2.50117 478.329 2.50117C478.329 2.50117 477.893 -1.40691 480.282 0.54713C482.67 2.50117 488.634 2.50117 488.634 2.50117C488.634 2.50117 488.668 0.329067 491.095 2.50117C493.522 4.67328 496.235 3.58722 496.235 3.58722C496.235 3.58722 496.235 7.34565 498.134 7.36703C500.033 7.38841 503.288 4.67328 503.831 6.84538C504.374 9.01749 508.172 10.1035 508.714 16.6199C509.257 23.1362 506.544 42.1421 506.544 42.1421Z" fill="#2F2E41"/>
<path d="M418.106 97.1195L356.122 139.925C353.983 141.402 351.042 140.862 349.566 138.721L332.116 113.412C330.64 111.271 331.179 108.328 333.318 106.851L395.302 64.0454C397.441 62.5683 400.382 63.1081 401.858 65.2487L419.308 90.5586C420.784 92.6992 420.245 95.6424 418.106 97.1195Z" fill="white"/>
<path d="M401.744 65.3275L419.194 90.6372C420.63 92.7197 420.108 95.5685 418.027 97.0055L387.607 118.013C379.585 115.819 372.264 110.891 367.172 103.506C363.836 98.6676 361.825 93.3118 361.059 87.8616L395.38 64.1595C397.461 62.7225 400.308 63.245 401.744 65.3275Z" fill="#CB8461" fill-opacity="0.58"/>
<path d="M353.454 141.3C351.783 141.3 350.139 140.507 349.12 139.03L331.669 113.72C330.873 112.565 330.575 111.168 330.828 109.784C331.082 108.401 331.857 107.2 333.011 106.404L394.994 63.5983C397.38 61.9517 400.659 62.5542 402.305 64.94L419.756 90.2501C420.552 91.4051 420.851 92.8024 420.597 94.186C420.344 95.569 419.568 96.7701 418.415 97.5666L356.431 140.372C355.522 140.999 354.483 141.3 353.454 141.3ZM397.973 63.7553C397.157 63.7553 396.332 63.9945 395.611 64.4924L333.627 107.298C332.712 107.929 332.097 108.882 331.896 109.98C331.694 111.078 331.931 112.188 332.563 113.103L350.014 138.413C351.319 140.306 353.921 140.785 355.814 139.478L417.799 96.6726C418.714 96.041 419.328 95.088 419.53 93.9898C419.731 92.892 419.494 91.7827 418.863 90.8674L401.412 65.5572C400.604 64.3853 399.299 63.7553 397.973 63.7553Z" fill="#3F3D56"/>
<path d="M479.564 207.332H404.256C401.657 207.332 399.543 205.216 399.543 202.616V171.865C399.543 169.264 401.657 167.148 404.256 167.148H479.564C482.163 167.148 484.277 169.264 484.277 171.865V202.616C484.277 205.216 482.163 207.332 479.564 207.332Z" fill="white"/>
<path d="M484.138 171.865V202.615C484.138 205.146 482.092 207.194 479.564 207.194H442.605C437.246 200.828 434.018 192.611 434.018 183.638C434.018 177.76 435.402 172.209 437.864 167.287H479.564C482.092 167.287 484.138 169.335 484.138 171.865Z" fill="#CB8461" fill-opacity="0.53"/>
<path d="M479.564 207.875H404.256C401.358 207.875 399 205.516 399 202.616V171.865C399 168.965 401.358 166.605 404.256 166.605H479.564C482.462 166.605 484.82 168.965 484.82 171.865V202.616C484.82 205.516 482.462 207.875 479.564 207.875ZM404.256 167.691C401.956 167.691 400.085 169.563 400.085 171.865V202.616C400.085 204.917 401.956 206.789 404.256 206.789H479.564C481.864 206.789 483.735 204.917 483.735 202.616V171.865C483.735 169.563 481.864 167.691 479.564 167.691H404.256Z" fill="#3F3D56"/>
<path d="M408.819 196.801C406.91 196.801 405.357 198.355 405.357 200.265C405.357 202.176 406.91 203.73 408.819 203.73H416.572C418.481 203.73 420.034 202.176 420.034 200.265C420.034 198.355 418.481 196.801 416.572 196.801H408.819Z" fill="#215D4F"/>
<path d="M432.418 170.197C429.407 170.197 426.957 172.649 426.957 175.662C426.957 178.676 429.407 181.128 432.418 181.128H444.479C447.491 181.128 449.941 178.676 449.941 175.662C449.941 172.649 447.491 170.197 444.479 170.197H432.418Z" fill="#215D4F"/>
<path d="M484.672 179.751C477.755 183.355 470.29 182.705 467.999 178.3C465.708 173.894 469.457 167.402 476.377 163.797C479.121 162.32 482.179 161.521 485.295 161.468L514.794 146.567L520.652 158.256L491.695 173.773C489.865 176.299 487.456 178.348 484.672 179.751Z" fill="#CB8461"/>
<path d="M518.211 52.731C518.211 52.731 548.596 51.102 555.107 67.3928C561.618 83.6835 567.044 136.9 567.044 136.9L500.848 172.943L489.453 155.363L533.946 120.609L518.211 52.731Z" fill="#3F3D56"/>
<path d="M416.623 100.899H341.315C338.716 100.899 336.602 98.7832 336.602 96.1824V65.4317C336.602 62.8309 338.716 60.7151 341.315 60.7151H416.623C419.222 60.7151 421.336 62.8309 421.336 65.4317V96.1824C421.336 98.7832 419.222 100.899 416.623 100.899Z" fill="white"/>
<path d="M421.197 65.432V96.1824C421.197 98.7125 419.151 100.761 416.622 100.761H379.663C374.305 94.3948 371.076 86.1779 371.076 77.2045C371.076 71.3265 372.461 65.7755 374.923 60.8538H416.622C419.151 60.8538 421.197 62.9018 421.197 65.432Z" fill="#CB8461" fill-opacity="0.54"/>
<path d="M416.623 101.442H341.314C338.417 101.442 336.059 99.0828 336.059 96.1826V65.4316C336.059 62.5314 338.417 60.1721 341.314 60.1721H416.623C419.521 60.1721 421.879 62.5314 421.879 65.4316V96.1826C421.879 99.0828 419.521 101.442 416.623 101.442ZM341.314 61.2582C339.015 61.2582 337.144 63.1301 337.144 65.4316V96.1826C337.144 98.4841 339.015 100.356 341.314 100.356H416.623C418.922 100.356 420.793 98.4841 420.793 96.1826V65.4316C420.793 63.1301 418.922 61.2582 416.623 61.2582H341.314Z" fill="#3F3D56"/>
</g>
<path d="M351.5 67C351.203 67 350.913 66.912 350.667 66.7472C350.42 66.5824 350.228 66.3481 350.114 66.074C350.001 65.7999 349.971 65.4983 350.029 65.2074C350.087 64.9164 350.23 64.6491 350.439 64.4393C350.649 64.2296 350.916 64.0867 351.207 64.0288C351.498 63.9709 351.8 64.0006 352.074 64.1142C352.348 64.2277 352.582 64.42 352.747 64.6666C352.912 64.9133 353 65.2033 353 65.5C353 65.8977 352.841 66.279 352.56 66.5602C352.279 66.8414 351.898 66.9995 351.5 67ZM351.5 64.25C351.253 64.25 351.011 64.3233 350.806 64.4607C350.6 64.598 350.44 64.7932 350.345 65.0216C350.251 65.2501 350.226 65.5014 350.274 65.7439C350.322 65.9863 350.441 66.2091 350.616 66.3839C350.791 66.5587 351.014 66.6778 351.256 66.726C351.499 66.7742 351.75 66.7495 351.978 66.6549C352.207 66.5602 352.402 66.4 352.539 66.1945C352.677 65.9889 352.75 65.7472 352.75 65.5C352.75 65.1686 352.618 64.8509 352.383 64.6165C352.149 64.3822 351.831 64.2504 351.5 64.25Z" fill="#2C9D82"/>
<path d="M348.984 65.5C348.984 65.1879 349.082 64.8835 349.264 64.6293C349.446 64.3752 349.703 64.1838 350 64.082C349.773 64.0041 349.53 63.9812 349.292 64.0154C349.055 64.0496 348.828 64.1398 348.633 64.2786C348.437 64.4173 348.278 64.6005 348.167 64.813C348.057 65.0255 348 65.261 348 65.5C348 65.739 348.057 65.9745 348.167 66.187C348.278 66.3995 348.437 66.5827 348.633 66.7214C348.828 66.8602 349.055 66.9504 349.292 66.9846C349.53 67.0188 349.773 66.9959 350 66.918C349.703 66.8162 349.446 66.6248 349.264 66.3707C349.082 66.1165 348.984 65.8121 348.984 65.5Z" fill="#2C9D82"/>
<path d="M358 84C357.735 83.9996 357.481 83.8731 357.293 83.6481C357.106 83.4232 357 83.1181 357 82.8V79.2C357 78.8817 357.105 78.5765 357.293 78.3515C357.48 78.1264 357.735 78 358 78C358.265 78 358.52 78.1264 358.707 78.3515C358.895 78.5765 359 78.8817 359 79.2V82.8C359 83.1181 358.894 83.4232 358.707 83.6481C358.519 83.8731 358.265 83.9996 358 84Z" fill="#2C9D82"/>
<path d="M361 84C360.735 83.9996 360.481 83.8731 360.293 83.6481C360.106 83.4232 360 83.1181 360 82.8V79.2C360 78.8817 360.105 78.5765 360.293 78.3515C360.48 78.1264 360.735 78 361 78C361.265 78 361.52 78.1264 361.707 78.3515C361.895 78.5765 362 78.8817 362 79.2V82.8C362 83.1181 361.894 83.4232 361.707 83.6481C361.519 83.8731 361.265 83.9996 361 84Z" fill="#2C9D82"/>
<path d="M364 84C363.735 83.9996 363.481 83.8731 363.293 83.6481C363.106 83.4232 363 83.1181 363 82.8V79.2C363 78.8817 363.105 78.5765 363.293 78.3515C363.48 78.1264 363.735 78 364 78C364.265 78 364.52 78.1264 364.707 78.3515C364.895 78.5765 365 78.8817 365 79.2V82.8C365 83.1181 364.894 83.4232 364.707 83.6481C364.519 83.8731 364.265 83.9996 364 84Z" fill="#2C9D82"/>
<path d="M369 84C368.735 83.9996 368.481 83.8731 368.293 83.6481C368.106 83.4232 368 83.1181 368 82.8V79.2C368 78.8817 368.105 78.5765 368.293 78.3515C368.48 78.1264 368.735 78 369 78C369.265 78 369.52 78.1264 369.707 78.3515C369.895 78.5765 370 78.8817 370 79.2V82.8C370 83.1181 369.894 83.4232 369.707 83.6481C369.519 83.8731 369.265 83.9996 369 84Z" fill="#2C9D82"/>
<path d="M372 84C371.735 83.9996 371.481 83.8731 371.293 83.6481C371.106 83.4232 371 83.1181 371 82.8V79.2C371 78.8817 371.105 78.5765 371.293 78.3515C371.48 78.1264 371.735 78 372 78C372.265 78 372.52 78.1264 372.707 78.3515C372.895 78.5765 373 78.8817 373 79.2V82.8C373 83.1181 372.894 83.4232 372.707 83.6481C372.519 83.8731 372.265 83.9996 372 84Z" fill="#2C9D82"/>
<path d="M375.5 84C375.102 83.9996 374.721 83.8731 374.44 83.6481C374.159 83.4232 374 83.1181 374 82.8V79.2C374 78.8817 374.158 78.5765 374.439 78.3515C374.721 78.1264 375.102 78 375.5 78C375.898 78 376.279 78.1264 376.561 78.3515C376.842 78.5765 377 78.8817 377 79.2V82.8C377 83.1181 376.841 83.4232 376.56 83.6481C376.279 83.8731 375.898 83.9996 375.5 84Z" fill="#2C9D82"/>
<path d="M380 84C379.735 83.9996 379.481 83.8731 379.293 83.6481C379.106 83.4232 379 83.1181 379 82.8V79.2C379 78.8817 379.105 78.5765 379.293 78.3515C379.48 78.1264 379.735 78 380 78C380.265 78 380.52 78.1264 380.707 78.3515C380.895 78.5765 381 78.8817 381 79.2V82.8C381 83.1181 380.894 83.4232 380.707 83.6481C380.519 83.8731 380.265 83.9996 380 84Z" fill="#2C9D82"/>
<path d="M383 84C382.735 83.9996 382.481 83.8731 382.293 83.6481C382.106 83.4232 382 83.1181 382 82.8V79.2C382 78.8817 382.105 78.5765 382.293 78.3515C382.48 78.1264 382.735 78 383 78C383.265 78 383.52 78.1264 383.707 78.3515C383.895 78.5765 384 78.8817 384 79.2V82.8C384 83.1181 383.894 83.4232 383.707 83.6481C383.519 83.8731 383.265 83.9996 383 84Z" fill="#2C9D82"/>
<path d="M386.5 84C386.102 83.9996 385.721 83.8731 385.44 83.6481C385.159 83.4232 385 83.1181 385 82.8V79.2C385 78.8817 385.158 78.5765 385.439 78.3515C385.721 78.1264 386.102 78 386.5 78C386.898 78 387.279 78.1264 387.561 78.3515C387.842 78.5765 388 78.8817 388 79.2V82.8C388 83.1181 387.841 83.4232 387.56 83.6481C387.279 83.8731 386.898 83.9996 386.5 84Z" fill="#215D4F"/>
<path d="M366.188 97H348.812C348.597 97 348.39 96.8946 348.238 96.7071C348.086 96.5196 348 96.2652 348 96C348 95.7348 348.086 95.4804 348.238 95.2929C348.39 95.1054 348.597 95 348.812 95H366.188C366.404 95 366.61 95.1054 366.762 95.2929C366.914 95.4804 367 95.7348 367 96C367 96.2652 366.914 96.5196 366.762 96.7071C366.61 96.8946 366.404 97 366.188 97Z" fill="#E6E6E6"/>
<path d="M360.277 94H354.723C354.531 94 354.347 93.8946 354.212 93.7071C354.076 93.5196 354 93.2652 354 93C354 92.7348 354.076 92.4804 354.212 92.2929C354.347 92.1054 354.531 92 354.723 92H360.277C360.469 92 360.653 92.1054 360.788 92.2929C360.924 92.4804 361 92.7348 361 93C361 93.2652 360.924 93.5196 360.788 93.7071C360.653 93.8946 360.469 94 360.277 94Z" fill="#E6E6E6"/>
<path d="M340.236 110.935C339.987 111.092 339.696 111.171 339.402 111.163C339.107 111.154 338.822 111.059 338.581 110.888C338.341 110.717 338.156 110.479 338.051 110.204C337.945 109.928 337.923 109.628 337.988 109.341C338.053 109.053 338.202 108.792 338.416 108.589C338.63 108.387 338.899 108.252 339.189 108.203C339.479 108.153 339.778 108.191 340.047 108.312C340.316 108.432 340.544 108.63 340.701 108.879C340.911 109.214 340.98 109.619 340.893 110.004C340.806 110.389 340.569 110.724 340.236 110.935ZM338.779 108.62C338.571 108.751 338.407 108.941 338.307 109.165C338.207 109.389 338.176 109.638 338.218 109.88C338.259 110.123 338.372 110.347 338.541 110.526C338.71 110.704 338.928 110.829 339.167 110.884C339.406 110.938 339.657 110.921 339.886 110.833C340.115 110.745 340.313 110.592 340.455 110.391C340.596 110.191 340.675 109.953 340.682 109.707C340.688 109.462 340.622 109.22 340.491 109.012C340.315 108.733 340.036 108.535 339.715 108.462C339.394 108.389 339.057 108.446 338.779 108.62Z" fill="#2C9D82"/>
<path d="M337.482 110.906C337.33 110.665 337.257 110.383 337.273 110.099C337.289 109.815 337.393 109.543 337.571 109.322C337.359 109.371 337.163 109.471 336.997 109.612C336.832 109.753 336.702 109.931 336.62 110.133C336.537 110.334 336.504 110.552 336.523 110.769C336.542 110.986 336.612 111.195 336.728 111.38C336.844 111.564 337.003 111.718 337.19 111.829C337.378 111.94 337.589 112.004 337.806 112.017C338.023 112.03 338.24 111.99 338.439 111.902C338.638 111.814 338.812 111.679 338.948 111.51C338.672 111.574 338.382 111.551 338.119 111.442C337.856 111.334 337.633 111.146 337.482 110.906Z" fill="#2C9D82"/>
<path d="M353.934 121.373C353.684 121.531 353.381 121.582 353.092 121.516C352.803 121.45 352.552 121.272 352.394 121.021L350.606 118.181C350.448 117.93 350.396 117.627 350.461 117.337C350.526 117.048 350.704 116.797 350.955 116.64C351.205 116.482 351.508 116.43 351.797 116.496C352.086 116.562 352.337 116.74 352.495 116.992L354.283 119.832C354.441 120.083 354.493 120.386 354.427 120.675C354.362 120.964 354.185 121.215 353.934 121.373Z" fill="#215D4F"/>
<path d="M356.454 119.785C356.203 119.943 355.9 119.994 355.612 119.928C355.323 119.862 355.072 119.684 354.913 119.433L353.125 116.593C352.967 116.342 352.915 116.039 352.981 115.75C353.046 115.46 353.223 115.209 353.474 115.052C353.725 114.894 354.028 114.842 354.317 114.908C354.606 114.974 354.857 115.153 355.015 115.404L356.803 118.244C356.961 118.495 357.012 118.798 356.947 119.087C356.882 119.376 356.704 119.627 356.454 119.785Z" fill="#215D4F"/>
<path d="M358.974 118.199C358.723 118.357 358.42 118.408 358.131 118.342C357.842 118.276 357.591 118.098 357.433 117.847L355.645 115.007C355.487 114.756 355.435 114.453 355.5 114.164C355.566 113.875 355.743 113.624 355.994 113.466C356.244 113.308 356.547 113.257 356.836 113.323C357.125 113.389 357.376 113.567 357.534 113.818L359.322 116.658C359.48 116.909 359.532 117.212 359.467 117.501C359.401 117.79 359.224 118.041 358.974 118.199Z" fill="#2C9D82"/>
<path d="M362.858 115.754C362.608 115.912 362.305 115.963 362.016 115.897C361.727 115.831 361.476 115.653 361.318 115.402L359.53 112.562C359.372 112.311 359.319 112.007 359.385 111.718C359.45 111.429 359.628 111.178 359.878 111.02C360.129 110.863 360.432 110.811 360.721 110.877C361.01 110.943 361.261 111.121 361.419 111.372L363.207 114.213C363.365 114.464 363.417 114.767 363.351 115.056C363.286 115.345 363.109 115.596 362.858 115.754Z" fill="#2C9D82"/>
<path d="M365.376 114.17C365.125 114.328 364.822 114.379 364.533 114.313C364.245 114.247 363.993 114.069 363.835 113.818L362.047 110.978C361.889 110.727 361.837 110.423 361.902 110.134C361.968 109.845 362.145 109.594 362.396 109.436C362.647 109.279 362.95 109.227 363.239 109.293C363.528 109.359 363.779 109.537 363.937 109.788L365.725 112.629C365.882 112.88 365.934 113.183 365.869 113.472C365.803 113.761 365.626 114.012 365.376 114.17Z" fill="#2C9D82"/>
<path d="M367.895 112.582C367.645 112.74 367.342 112.791 367.053 112.725C366.764 112.659 366.513 112.481 366.355 112.23L364.567 109.39C364.409 109.139 364.357 108.836 364.422 108.546C364.487 108.257 364.665 108.006 364.915 107.849C365.166 107.691 365.469 107.639 365.758 107.705C366.047 107.771 366.298 107.949 366.456 108.201L368.244 111.041C368.402 111.292 368.454 111.595 368.388 111.884C368.323 112.173 368.146 112.424 367.895 112.582Z" fill="#2C9D82"/>
<path d="M371.782 110.137C371.531 110.294 371.229 110.346 370.94 110.28C370.651 110.214 370.4 110.036 370.241 109.785L368.453 106.945C368.295 106.694 368.243 106.39 368.309 106.101C368.374 105.812 368.552 105.561 368.802 105.403C369.053 105.246 369.356 105.194 369.645 105.26C369.934 105.326 370.185 105.504 370.343 105.755L372.131 108.595C372.289 108.847 372.341 109.15 372.275 109.439C372.21 109.728 372.032 109.979 371.782 110.137Z" fill="#2C9D82"/>
<path d="M374.3 108.553C374.049 108.71 373.746 108.762 373.457 108.696C373.168 108.63 372.917 108.452 372.759 108.201L370.971 105.361C370.813 105.11 370.761 104.806 370.826 104.517C370.892 104.228 371.069 103.977 371.32 103.819C371.57 103.662 371.873 103.61 372.162 103.676C372.451 103.742 372.702 103.92 372.861 104.171L374.649 107.011C374.806 107.263 374.858 107.566 374.793 107.855C374.727 108.144 374.55 108.395 374.3 108.553Z" fill="#45776B"/>
<path d="M376.819 106.965C376.569 107.122 376.266 107.174 375.977 107.108C375.688 107.042 375.437 106.864 375.278 106.613L373.491 103.773C373.332 103.522 373.28 103.218 373.346 102.929C373.411 102.64 373.589 102.389 373.839 102.231C374.09 102.074 374.393 102.022 374.682 102.088C374.971 102.154 375.222 102.332 375.38 102.583L377.168 105.424C377.326 105.675 377.378 105.978 377.312 106.267C377.247 106.556 377.07 106.807 376.819 106.965Z" fill="#45776B"/>
<path d="M366.973 127.877L353.385 136.431C353.217 136.537 353.013 136.572 352.819 136.527C352.625 136.483 352.456 136.363 352.35 136.195C352.243 136.026 352.208 135.822 352.252 135.628C352.296 135.434 352.416 135.265 352.584 135.159L366.172 126.605C366.34 126.499 366.544 126.464 366.738 126.509C366.932 126.553 367.101 126.673 367.207 126.841C367.313 127.01 367.348 127.214 367.305 127.408C367.261 127.603 367.141 127.771 366.973 127.877Z" fill="#E6E6E6"/>
<path d="M360.895 127.884L356.02 130.953C355.851 131.059 355.648 131.093 355.454 131.049C355.259 131.005 355.091 130.885 354.984 130.716C354.878 130.547 354.843 130.344 354.887 130.149C354.931 129.955 355.05 129.786 355.219 129.68L360.094 126.611C360.262 126.505 360.466 126.471 360.66 126.515C360.854 126.56 361.023 126.679 361.129 126.848C361.235 127.017 361.27 127.221 361.226 127.415C361.182 127.609 361.063 127.778 360.895 127.884Z" fill="#E6E6E6"/>
<defs>
<linearGradient id="paint0_linear_0_1" x1="-58.5" y1="298" x2="843.5" y2="194" gradientUnits="userSpaceOnUse">
<stop stop-color="#00B09B"/>
<stop offset="1" stop-color="#96C93D"/>
</linearGradient>
<linearGradient id="paint1_linear_0_1" x1="-156.001" y1="265.808" x2="516.272" y2="208.379" gradientUnits="userSpaceOnUse">
<stop stop-color="#00B09B"/>
<stop offset="0.289335" stop-color="#44BB70"/>
<stop offset="1" stop-color="#96C93D"/>
</linearGradient>
<clipPath id="clip0_0_1">
<rect width="397" height="299" fill="white" transform="translate(232)"/>
</clipPath>
</defs>
</svg>
