<svg width="130" height="19" viewBox="0 0 130 19" fill="none" xmlns="http://www.w3.org/2000/svg">
<path d="M2.05553 3.47491V6.93526H6.12653V8.51278H2.05553V12.1258H6.63541V13.7033H0.121799V1.89739H6.63541V3.47491H2.05553ZM8.37261 8.98773C8.37261 8.04913 8.56485 7.21797 8.94934 6.49424C9.34513 5.7705 9.87662 5.21074 10.5438 4.81494C11.2223 4.40784 11.9743 4.20429 12.7998 4.20429C13.4105 4.20429 14.0098 4.33999 14.5979 4.61139C15.1972 4.87149 15.6721 5.22205 16.0227 5.66307V1.15104H17.9734V13.7033H16.0227V12.2954C15.7061 12.7478 15.265 13.1209 14.6996 13.4149C14.1455 13.709 13.5066 13.856 12.7829 13.856C11.9687 13.856 11.2223 13.6524 10.5438 13.2453C9.87662 12.8269 9.34513 12.2502 8.94934 11.5151C8.56485 10.7688 8.37261 9.92632 8.37261 8.98773ZM16.0227 9.02165C16.0227 8.37708 15.887 7.81731 15.6156 7.34236C15.3555 6.86741 15.0106 6.50554 14.5809 6.25676C14.1512 6.00798 13.6875 5.88358 13.19 5.88358C12.6924 5.88358 12.2288 6.00798 11.799 6.25676C11.3693 6.49424 11.0188 6.85045 10.7474 7.3254C10.4873 7.78904 10.3572 8.34315 10.3572 8.98773C10.3572 9.6323 10.4873 10.1977 10.7474 10.684C11.0188 11.1702 11.3693 11.5434 11.799 11.8035C12.2401 12.0523 12.7037 12.1767 13.19 12.1767C13.6875 12.1767 14.1512 12.0523 14.5809 11.8035C15.0106 11.5547 15.3555 11.1929 15.6156 10.7179C15.887 10.2316 16.0227 9.66623 16.0227 9.02165ZM24.4316 5.93447H22.7014V13.7033H20.7507V5.93447H19.6482V4.35696H20.7507V3.69542C20.7507 2.62112 21.0335 1.84085 21.5989 1.35459C22.1756 0.857023 23.0746 0.608239 24.2959 0.608239V2.21968C23.7079 2.21968 23.2951 2.33276 23.0576 2.55893C22.8202 2.77379 22.7014 3.15262 22.7014 3.69542V4.35696H24.4316V5.93447ZM28.0791 1.15104V13.7033H26.1454V1.15104H28.0791ZM31.6017 3.11869C31.2512 3.11869 30.9572 2.99995 30.7197 2.76248C30.4822 2.525 30.3635 2.23099 30.3635 1.88043C30.3635 1.52987 30.4822 1.23585 30.7197 0.998377C30.9572 0.760901 31.2512 0.642164 31.6017 0.642164C31.941 0.642164 32.2293 0.760901 32.4668 0.998377C32.7043 1.23585 32.823 1.52987 32.823 1.88043C32.823 2.23099 32.7043 2.525 32.4668 2.76248C32.2293 2.99995 31.941 3.11869 31.6017 3.11869ZM32.5516 4.35696V13.7033H30.6179V4.35696H32.5516ZM39.806 4.20429C40.5411 4.20429 41.197 4.35696 41.7737 4.66228C42.3617 4.96761 42.8197 5.41994 43.1476 6.01928C43.4756 6.61863 43.6396 7.34236 43.6396 8.19049V13.7033H41.7228V8.47885C41.7228 7.64203 41.5136 7.00311 41.0952 6.56208C40.6768 6.10975 40.1057 5.88358 39.382 5.88358C38.6582 5.88358 38.0815 6.10975 37.6518 6.56208C37.2334 7.00311 37.0242 7.64203 37.0242 8.47885V13.7033H35.0904V4.35696H37.0242V5.4256C37.3408 5.04111 37.7423 4.74144 38.2285 4.52658C38.7261 4.31172 39.2519 4.20429 39.806 4.20429ZM49.8718 4.20429C50.5956 4.20429 51.2345 4.3513 51.7886 4.64532C52.354 4.92803 52.795 5.28424 53.1117 5.71396V4.35696H55.0624V13.856C55.0624 14.7154 54.8814 15.4787 54.5196 16.1459C54.1577 16.8244 53.6319 17.3559 52.942 17.7404C52.2635 18.1249 51.4493 18.3171 50.4994 18.3171C49.2329 18.3171 48.1812 18.0174 47.3444 17.4181C46.5076 16.8301 46.0326 16.0272 45.9196 15.0094H47.8363C47.9833 15.4957 48.2943 15.8858 48.7693 16.1798C49.2555 16.4852 49.8322 16.6378 50.4994 16.6378C51.2797 16.6378 51.9073 16.4003 52.3823 15.9254C52.8685 15.4504 53.1117 14.7606 53.1117 13.856V12.2954C52.7837 12.7364 52.337 13.1096 51.7716 13.4149C51.2175 13.709 50.5842 13.856 49.8718 13.856C49.0576 13.856 48.3113 13.6524 47.6328 13.2453C46.9656 12.8269 46.4341 12.2502 46.0383 11.5151C45.6538 10.7688 45.4616 9.92632 45.4616 8.98773C45.4616 8.04913 45.6538 7.21797 46.0383 6.49424C46.4341 5.7705 46.9656 5.21074 47.6328 4.81494C48.3113 4.40784 49.0576 4.20429 49.8718 4.20429ZM53.1117 9.02165C53.1117 8.37708 52.976 7.81731 52.7046 7.34236C52.4445 6.86741 52.0996 6.50554 51.6699 6.25676C51.2401 6.00798 50.7765 5.88358 50.2789 5.88358C49.7814 5.88358 49.3177 6.00798 48.888 6.25676C48.4583 6.49424 48.1077 6.85045 47.8363 7.3254C47.5762 7.78904 47.4462 8.34315 47.4462 8.98773C47.4462 9.6323 47.5762 10.1977 47.8363 10.684C48.1077 11.1702 48.4583 11.5434 48.888 11.8035C49.329 12.0523 49.7927 12.1767 50.2789 12.1767C50.7765 12.1767 51.2401 12.0523 51.6699 11.8035C52.0996 11.5547 52.4445 11.1929 52.7046 10.7179C52.976 10.2316 53.1117 9.66623 53.1117 9.02165ZM61.3639 7.78339C61.3639 6.62993 61.6297 5.59522 62.1612 4.67925C62.704 3.76327 63.4334 3.05084 64.3493 2.54197C65.2766 2.02178 66.2887 1.76169 67.3856 1.76169C68.6409 1.76169 69.7547 2.07267 70.7272 2.69463C71.7111 3.30528 72.4235 4.17602 72.8645 5.30686H70.5407C70.2353 4.6849 69.8113 4.22126 69.2685 3.91593C68.7257 3.61061 68.0981 3.45794 67.3856 3.45794C66.6054 3.45794 65.9099 3.63322 65.2992 3.98378C64.6886 4.33434 64.208 4.83756 63.8574 5.49345C63.5182 6.14933 63.3485 6.91264 63.3485 7.78339C63.3485 8.65413 63.5182 9.41744 63.8574 10.0733C64.208 10.7292 64.6886 11.2381 65.2992 11.6C65.9099 11.9505 66.6054 12.1258 67.3856 12.1258C68.0981 12.1258 68.7257 11.9731 69.2685 11.6678C69.8113 11.3625 70.2353 10.8988 70.5407 10.2769H72.8645C72.4235 11.4077 71.7111 12.2785 70.7272 12.8891C69.7547 13.4998 68.6409 13.8051 67.3856 13.8051C66.2774 13.8051 65.2653 13.5506 64.3493 13.0418C63.4334 12.5216 62.704 11.8035 62.1612 10.8875C61.6297 9.97155 61.3639 8.93684 61.3639 7.78339ZM79.182 13.856C78.3 13.856 77.5027 13.6581 76.7903 13.2623C76.0779 12.8552 75.5181 12.2898 75.111 11.566C74.7039 10.831 74.5003 9.98286 74.5003 9.02165C74.5003 8.07175 74.7096 7.22928 75.128 6.49424C75.5464 5.75919 76.1174 5.19377 76.8412 4.79798C77.5649 4.40219 78.3735 4.20429 79.2668 4.20429C80.1602 4.20429 80.9687 4.40219 81.6925 4.79798C82.4162 5.19377 82.9873 5.75919 83.4057 6.49424C83.8241 7.22928 84.0333 8.07175 84.0333 9.02165C84.0333 9.97155 83.8184 10.814 83.3887 11.5491C82.959 12.2841 82.371 12.8552 81.6246 13.2623C80.8896 13.6581 80.0754 13.856 79.182 13.856ZM79.182 12.1767C79.6796 12.1767 80.1432 12.0579 80.5729 11.8205C81.014 11.583 81.3702 11.2268 81.6416 10.7518C81.913 10.2769 82.0487 9.70015 82.0487 9.02165C82.0487 8.34315 81.9186 7.77208 81.6585 7.30844C81.3984 6.83349 81.0535 6.47727 80.6238 6.2398C80.1941 6.00232 79.7305 5.88358 79.2329 5.88358C78.7353 5.88358 78.2717 6.00232 77.842 6.2398C77.4236 6.47727 77.09 6.83349 76.8412 7.30844C76.5924 7.77208 76.468 8.34315 76.468 9.02165C76.468 10.0281 76.7224 10.8084 77.2313 11.3625C77.7515 11.9053 78.4017 12.1767 79.182 12.1767ZM94.4092 4.35696V13.7033H92.4755V12.6007C92.1701 12.9852 91.7687 13.2906 91.2711 13.5167C90.7849 13.7316 90.2647 13.839 89.7106 13.839C88.9755 13.839 88.314 13.6863 87.726 13.381C87.1492 13.0757 86.6912 12.6234 86.352 12.024C86.024 11.4247 85.8601 10.7009 85.8601 9.85281V4.35696H87.7768V9.56445C87.7768 10.4013 87.986 11.0458 88.4045 11.4982C88.8229 11.9392 89.3939 12.1597 90.1177 12.1597C90.8414 12.1597 91.4125 11.9392 91.8309 11.4982C92.2606 11.0458 92.4755 10.4013 92.4755 9.56445V4.35696H94.4092ZM98.8943 5.71396C99.177 5.23901 99.5502 4.87149 100.014 4.61139C100.489 4.33999 101.049 4.20429 101.693 4.20429V6.20587H101.201C100.444 6.20587 99.8668 6.39811 99.471 6.7826C99.0866 7.16708 98.8943 7.83427 98.8943 8.78418V13.7033H96.9606V4.35696H98.8943V5.71396ZM106.863 13.856C106.128 13.856 105.467 13.7259 104.879 13.4658C104.302 13.1944 103.844 12.8326 103.505 12.3802C103.165 11.9166 102.984 11.4021 102.962 10.8366H104.963C104.997 11.2324 105.184 11.566 105.523 11.8374C105.874 12.0975 106.309 12.2276 106.829 12.2276C107.372 12.2276 107.79 12.1258 108.084 11.9222C108.39 11.7074 108.542 11.436 108.542 11.108C108.542 10.7575 108.373 10.4974 108.034 10.3278C107.706 10.1581 107.18 9.97155 106.456 9.768C105.755 9.57576 105.184 9.38917 104.743 9.20824C104.302 9.02731 103.917 8.75025 103.589 8.37708C103.273 8.0039 103.114 7.51199 103.114 6.90134C103.114 6.40377 103.261 5.95143 103.555 5.54433C103.849 5.12592 104.268 4.79798 104.811 4.56051C105.365 4.32303 105.998 4.20429 106.71 4.20429C107.773 4.20429 108.627 4.47569 109.272 5.0185C109.928 5.54999 110.278 6.27938 110.323 7.20666H108.39C108.356 6.78825 108.186 6.45466 107.881 6.20587C107.576 5.95709 107.163 5.8327 106.643 5.8327C106.134 5.8327 105.744 5.92882 105.472 6.12106C105.201 6.3133 105.065 6.56774 105.065 6.88437C105.065 7.13316 105.156 7.34236 105.336 7.51199C105.517 7.68161 105.738 7.81731 105.998 7.91909C106.258 8.00955 106.643 8.12829 107.151 8.2753C107.83 8.45623 108.384 8.64282 108.814 8.83506C109.255 9.016 109.634 9.2874 109.95 9.64926C110.267 10.0111 110.431 10.4917 110.442 11.0911C110.442 11.6226 110.295 12.0975 110.001 12.5159C109.707 12.9343 109.289 13.2623 108.746 13.4998C108.214 13.7372 107.587 13.856 106.863 13.856ZM121.098 8.80114C121.098 9.1517 121.075 9.46833 121.03 9.75104H113.889C113.945 10.4974 114.222 11.0967 114.72 11.5491C115.217 12.0014 115.828 12.2276 116.552 12.2276C117.592 12.2276 118.327 11.7922 118.757 10.9215H120.843C120.561 11.7809 120.046 12.4877 119.3 13.0418C118.565 13.5846 117.649 13.856 116.552 13.856C115.658 13.856 114.856 13.6581 114.143 13.2623C113.442 12.8552 112.888 12.2898 112.481 11.566C112.085 10.831 111.887 9.98286 111.887 9.02165C111.887 8.06044 112.079 7.21797 112.464 6.49424C112.86 5.75919 113.408 5.19377 114.109 4.79798C114.822 4.40219 115.636 4.20429 116.552 4.20429C117.434 4.20429 118.22 4.39654 118.91 4.78102C119.599 5.1655 120.137 5.7083 120.521 6.40942C120.905 7.09923 121.098 7.89647 121.098 8.80114ZM119.079 8.19049C119.068 7.47806 118.813 6.90699 118.316 6.47727C117.818 6.04756 117.202 5.8327 116.467 5.8327C115.8 5.8327 115.229 6.04756 114.754 6.47727C114.279 6.89568 113.996 7.46675 113.906 8.19049H119.079ZM126.393 13.856C125.658 13.856 124.997 13.7259 124.409 13.4658C123.832 13.1944 123.374 12.8326 123.035 12.3802C122.695 11.9166 122.514 11.4021 122.492 10.8366H124.493C124.527 11.2324 124.714 11.566 125.053 11.8374C125.404 12.0975 125.839 12.2276 126.359 12.2276C126.902 12.2276 127.321 12.1258 127.615 11.9222C127.92 11.7074 128.073 11.436 128.073 11.108C128.073 10.7575 127.903 10.4974 127.564 10.3278C127.236 10.1581 126.71 9.97155 125.986 9.768C125.285 9.57576 124.714 9.38917 124.273 9.20824C123.832 9.02731 123.447 8.75025 123.119 8.37708C122.803 8.0039 122.644 7.51199 122.644 6.90134C122.644 6.40377 122.792 5.95143 123.086 5.54433C123.38 5.12592 123.798 4.79798 124.341 4.56051C124.895 4.32303 125.528 4.20429 126.241 4.20429C127.304 4.20429 128.157 4.47569 128.802 5.0185C129.458 5.54999 129.808 6.27938 129.854 7.20666H127.92C127.886 6.78825 127.716 6.45466 127.411 6.20587C127.106 5.95709 126.693 5.8327 126.173 5.8327C125.664 5.8327 125.274 5.92882 125.002 6.12106C124.731 6.3133 124.595 6.56774 124.595 6.88437C124.595 7.13316 124.686 7.34236 124.867 7.51199C125.048 7.68161 125.268 7.81731 125.528 7.91909C125.788 8.00955 126.173 8.12829 126.682 8.2753C127.36 8.45623 127.914 8.64282 128.344 8.83506C128.785 9.016 129.164 9.2874 129.48 9.64926C129.797 10.0111 129.961 10.4917 129.972 11.0911C129.972 11.6226 129.825 12.0975 129.531 12.5159C129.237 12.9343 128.819 13.2623 128.276 13.4998C127.745 13.7372 127.117 13.856 126.393 13.856Z" fill="#215D4F"/>
</svg>
