<svg width="32" height="32" viewBox="0 0 32 32" fill="none" xmlns="http://www.w3.org/2000/svg">
<path id="Vector" d="M26.675 26.5389H22.0633V19.3125C22.0633 17.5892 22.0282 15.3716 19.6601 15.3716C17.2556 15.3716 16.8884 17.2467 16.8884 19.1853V26.5389H12.2766V11.6786H16.7067V13.7042H16.7664C17.3853 12.5363 18.8906 11.3036 21.1394 11.3036C25.8121 11.3036 26.6763 14.3789 26.6763 18.3821L26.675 26.5389ZM7.06797 9.6452C6.71616 9.64537 6.36776 9.57616 6.04273 9.44153C5.7177 9.3069 5.4224 9.10948 5.17375 8.86059C4.92511 8.6117 4.72798 8.31622 4.59366 7.99106C4.45934 7.66589 4.39047 7.31743 4.39098 6.96562C4.39124 6.4359 4.54857 5.91816 4.84308 5.47786C5.13758 5.03756 5.55604 4.69448 6.04553 4.49201C6.53502 4.28953 7.07356 4.23675 7.59305 4.34035C8.11253 4.44394 8.58964 4.69925 8.96402 5.074C9.3384 5.44875 9.59325 5.9261 9.69634 6.44568C9.79943 6.96527 9.74613 7.50376 9.54318 7.99305C9.34023 8.48234 8.99675 8.90047 8.55616 9.19455C8.11558 9.48863 7.59769 9.64546 7.06797 9.6452ZM9.38033 26.5389H4.75561V11.6786H9.38033V26.5389ZM28.9822 0H2.44066C1.17029 0 0.142578 1.00436 0.142578 2.24358V28.8993C0.142578 30.1398 1.17029 31.1429 2.44066 31.1429H28.9783C30.2473 31.1429 31.2854 30.1398 31.2854 28.8993V2.24358C31.2854 1.00436 30.2473 0 28.9783 0H28.9822Z" fill="white"/>
</svg>
