<svg width="32" height="32" viewBox="0 0 32 32" fill="none" xmlns="http://www.w3.org/2000/svg">
<path id="Vector" d="M16.2863 0C13.2065 0 10.196 0.913248 7.63526 2.62426C5.07455 4.33527 3.07872 6.76719 1.90015 9.6125C0.721591 12.4578 0.413224 15.5887 1.01405 18.6093C1.61488 21.6298 3.09791 24.4044 5.27562 26.5821C7.45332 28.7598 10.2279 30.2428 13.2484 30.8436C16.269 31.4445 19.3999 31.1361 22.2452 29.9575C25.0905 28.779 27.5224 26.7832 29.2334 24.2224C30.9445 21.6617 31.8577 18.6512 31.8577 15.5714C31.8533 11.443 30.2114 7.48484 27.2921 4.56558C24.3729 1.64632 20.4147 0.00435973 16.2863 0ZM27.2507 21.8988C26.4077 23.2463 25.1051 23.956 23.4836 23.956C20.3798 23.956 18.2716 20.1665 16.0392 16.1539C14.4102 13.2252 12.3829 9.58242 10.688 9.58242C8.82696 9.58242 6.70386 13.9065 6.70386 17.699C6.70386 18.9358 6.92845 19.9449 7.35367 20.6276C7.75194 21.261 8.30293 21.5604 9.08898 21.5604C9.99931 21.5604 11.1133 20.5124 12.4937 18.3398C12.6688 18.0823 12.9374 17.9031 13.2424 17.8402C13.5474 17.7773 13.8649 17.8357 14.1276 18.003C14.3903 18.1702 14.5775 18.4333 14.6496 18.7362C14.7216 19.0392 14.6728 19.3584 14.5135 19.626C12.07 23.4634 10.3302 23.956 9.08898 23.956C7.46746 23.956 6.16485 23.2448 5.3219 21.8988C4.65861 20.8388 4.30826 19.3864 4.30826 17.7065C4.33466 15.3547 4.89799 13.0399 5.95523 10.9389C7.20394 8.51937 8.88536 7.18681 10.688 7.18681C13.7919 7.18681 15.9 10.9764 18.1324 14.989C19.7614 17.9161 21.7887 21.5604 23.4836 21.5604C24.2696 21.5604 24.8206 21.261 25.2189 20.6276C25.6441 19.9494 25.8687 18.9358 25.8687 17.699C25.8687 13.9065 23.7456 9.58242 21.8845 9.58242C21.3754 9.58242 20.784 9.92828 20.1267 10.6125C20.0177 10.726 19.8874 10.8168 19.7433 10.8799C19.5991 10.943 19.4439 10.9771 19.2866 10.9802C19.1293 10.9834 18.9729 10.9555 18.8264 10.8982C18.6799 10.8409 18.546 10.7552 18.4326 10.6462C18.3191 10.5372 18.2283 10.4069 18.1652 10.2627C18.1021 10.1186 18.068 9.96344 18.0649 9.80612C18.0617 9.6488 18.0896 9.49241 18.1469 9.34588C18.2043 9.19934 18.2899 9.06552 18.3989 8.95207C19.5413 7.76475 20.6807 7.18681 21.8845 7.18681C23.6812 7.18681 25.3686 8.51937 26.6188 10.9389C27.675 13.0376 28.2382 15.3497 28.2658 17.699C28.2643 19.3864 27.9139 20.8388 27.2507 21.8988Z" fill="white"/>
</svg>
