<svg width="32" height="32" viewBox="0 0 32 32" fill="none" xmlns="http://www.w3.org/2000/svg">
<path id="Vector" d="M15.5714 0C6.97239 0 0 6.97239 0 15.5714C0 24.1705 6.97239 31.1429 15.5714 31.1429C24.1705 31.1429 31.1429 24.1705 31.1429 15.5714C31.1429 6.97239 24.1705 0 15.5714 0ZM23.0547 11.7377C23.0652 11.901 23.0652 12.0713 23.0652 12.2382C23.0652 17.3406 19.1793 23.2181 12.0783 23.2181C9.88855 23.2181 7.8587 22.582 6.14863 21.4872C6.46145 21.5219 6.76036 21.5358 7.08013 21.5358C8.88753 21.5358 10.5489 20.9241 11.8732 19.8883C10.177 19.8536 8.75198 18.7413 8.26537 17.212C8.85972 17.2989 9.39499 17.2989 10.0067 17.1425C9.13336 16.965 8.34835 16.4907 7.78508 15.8001C7.2218 15.1094 6.91499 14.2451 6.91677 13.3539V13.3052C7.42771 13.5937 8.02902 13.771 8.65813 13.7953C8.12927 13.4429 7.69555 12.9653 7.39542 12.4051C7.0953 11.8449 6.93806 11.2193 6.93763 10.5837C6.93763 9.86422 7.12532 9.2073 7.46247 8.63728C8.43187 9.83063 9.64153 10.8066 11.0128 11.5019C12.3841 12.1971 13.8864 12.596 15.422 12.6726C14.8763 10.0484 16.8366 7.92474 19.1932 7.92474C20.3054 7.92474 21.3064 8.3905 22.012 9.14126C22.8844 8.9779 23.7186 8.65118 24.4624 8.21323C24.1739 9.1065 23.5692 9.86075 22.7663 10.3369C23.5448 10.2535 24.2956 10.038 24.9908 9.73562C24.4659 10.5072 23.809 11.192 23.0547 11.7377Z" fill="white"/>
</svg>
