<svg xmlns="http://www.w3.org/2000/svg" width="117" height="21" viewBox="0 0 117 21" fill="none">
  <path d="M11.55 0C6.3 0 1.8165 3.26551 0 7.87502C1.8165 12.4845 6.3 15.75 11.55 15.75C16.8 15.75 21.2835 12.4845 23.1 7.87502C21.2835 3.26551 16.8 0 11.55 0ZM11.55 13.125C8.652 13.125 6.3 10.773 6.3 7.87502C6.3 4.97701 8.652 2.62501 11.55 2.62501C14.448 2.62501 16.8 4.97701 16.8 7.87502C16.8 10.773 14.448 13.125 11.55 13.125ZM11.55 4.72501C9.807 4.72501 8.4 6.13201 8.4 7.87502C8.4 9.61802 9.807 11.025 11.55 11.025C13.293 11.025 14.7 9.61802 14.7 7.87502C14.7 6.13201 13.293 4.72501 11.55 4.72501Z" fill="#215D4F"/>
  <path d="M67.8016 6.30001H63.6016V0H57.3016V6.30001H53.1016L60.4516 13.65L67.8016 6.30001ZM53.1016 15.75V17.85H67.8016V15.75H53.1016Z" fill="#215D4F"/>
  <path d="M113.551 14.784C112.753 14.784 112.039 15.099 111.493 15.5925L104.006 11.235C104.059 10.9935 104.101 10.752 104.101 10.5C104.101 10.248 104.059 10.0065 104.006 9.76502L111.409 5.44951C111.976 5.97451 112.721 6.30001 113.551 6.30001C115.294 6.30001 116.701 4.89301 116.701 3.15001C116.701 1.407 115.294 0 113.551 0C111.808 0 110.401 1.407 110.401 3.15001C110.401 3.40201 110.443 3.64351 110.495 3.88501L103.093 8.20052C102.526 7.67552 101.78 7.35002 100.951 7.35002C99.2078 7.35002 97.8008 8.75702 97.8008 10.5C97.8008 12.243 99.2078 13.65 100.951 13.65C101.78 13.65 102.526 13.3245 103.093 12.7995L110.569 17.1675C110.516 17.388 110.485 17.619 110.485 17.85C110.485 19.5405 111.86 20.916 113.551 20.916C115.241 20.916 116.617 19.5405 116.617 17.85C116.617 16.1595 115.241 14.784 113.551 14.784Z" fill="#215D4F"/>
</svg>