<svg xmlns="http://www.w3.org/2000/svg" width="17" height="17" viewBox="0 0 17 17" fill="none">
  <path d="M8.50004 8.49996C8.88962 8.49996 9.22325 8.36113 9.50092 8.08346C9.77858 7.80579 9.91718 7.4724 9.91671 7.08329C9.91671 6.69371 9.77787 6.36008 9.50021 6.08242C9.22254 5.80475 8.88915 5.66615 8.50004 5.66663C8.11046 5.66663 7.77683 5.80546 7.49917 6.08313C7.2215 6.36079 7.0829 6.69418 7.08337 7.08329C7.08337 7.47288 7.22221 7.8065 7.49987 8.08417C7.77754 8.36184 8.11093 8.50043 8.50004 8.49996ZM8.50004 15.3177C8.4056 15.3177 8.31115 15.3 8.21671 15.2645C8.12226 15.2291 8.03962 15.1819 7.96879 15.1229C6.24518 13.6 4.95837 12.1861 4.10837 10.8814C3.25837 9.57663 2.83337 8.35782 2.83337 7.22496C2.83337 5.45413 3.40311 4.04336 4.54258 2.99267C5.68205 1.94197 7.00121 1.41663 8.50004 1.41663C9.99935 1.41663 11.3187 1.94197 12.4582 2.99267C13.5977 4.04336 14.1672 5.45413 14.1667 7.22496C14.1667 8.35829 13.7417 9.57733 12.8917 10.8821C12.0417 12.1868 10.7549 13.6004 9.03129 15.1229C8.96046 15.1819 8.87782 15.2291 8.78337 15.2645C8.68893 15.3 8.59448 15.3177 8.50004 15.3177Z" fill="white"/>
</svg>