<svg xmlns="http://www.w3.org/2000/svg" width="19" height="20" viewBox="0 0 19 20" fill="none">
  <path d="M15.2417 18C13.6889 18 12.1754 17.6272 10.7011 16.8816C9.22676 16.1359 7.92074 15.1507 6.783 13.926C5.64526 12.7013 4.73044 11.2948 4.03856 9.70656C3.34667 8.11833 3.00048 6.48837 3 4.81667C3 4.58333 3.07222 4.38889 3.21667 4.23333C3.36111 4.07778 3.54167 4 3.75833 4H6.68333C6.85185 4 7.00232 4.05833 7.13472 4.175C7.26713 4.29167 7.34537 4.44074 7.36944 4.62222L7.83889 7.34444C7.86296 7.52593 7.85983 7.69133 7.8295 7.84067C7.79917 7.99 7.73007 8.12274 7.62222 8.23889L5.88889 10.1444C6.39444 11.0778 7.02639 11.9528 7.78472 12.7694C8.54306 13.5861 9.37963 14.2926 10.2944 14.8889L11.9917 13.0611C12.1 12.9444 12.2416 12.8571 12.4163 12.799C12.5911 12.7409 12.7625 12.7246 12.9306 12.75L15.4222 13.2944C15.5907 13.3333 15.7292 13.421 15.8375 13.5573C15.9458 13.6937 16 13.8524 16 14.0333V17.1833C16 17.4167 15.9278 17.6111 15.7833 17.7667C15.6389 17.9222 15.4583 18 15.2417 18Z" fill="white"/>
</svg>